<svg xmlns="http://www.w3.org/2000/svg" viewBox="0 0 355.45 99.48">
  <defs>
    <style>
      .cls-1 {
        fill: #fff;
      }
    </style>
  </defs>
  <g id="Capa_2" data-name="Capa 2">
    <g id="logo_lema" data-name="logo lema">
      <g>
        <g>
          <path class="cls-1" d="M65.93,70.86a11.09,11.09,0,0,0,.33-4l2.95-2.71a14.87,14.87,0,0,0-1.11-2.89l-4,0a11,11,0,0,0-2.86-2.7l-.27-4c-.47-.2-1-.39-1.46-.55s-1-.28-1.5-.39l-2.54,3.12a11.29,11.29,0,0,0-3.89.56L48.24,55a14.78,14.78,0,0,0-2.57,1.72l.85,3.91a11.22,11.22,0,0,0-2,3.42l-3.85,1.17a14.45,14.45,0,0,0-.27,3.06L44,70.07a11.41,11.41,0,0,0,1.44,3.75l-1.49,3.73a14.32,14.32,0,0,0,2.22,2.11L49.79,78a11.06,11.06,0,0,0,1.86.79,11.69,11.69,0,0,0,2,.43l2,3.49a14.57,14.57,0,0,0,3-.44l.93-3.91a11.2,11.2,0,0,0,3.34-2.24l4,.62A14.49,14.49,0,0,0,68.41,74ZM53.82,73.08a5,5,0,1,1,5.91-4A5,5,0,0,1,53.82,73.08Z"/>
          <path class="cls-1" d="M44.34,50.5c-.05-.63-.12-1.27-.23-1.91s-.19-1-.31-1.53l-4-.45A18.46,18.46,0,0,0,38.11,43l2.37-3.41a23,23,0,0,0-2.15-2.67L34.5,38.6a19.3,19.3,0,0,0-3.22-2.31l.36-4.2a23.32,23.32,0,0,0-3.17-1.22L26,34.29A17.83,17.83,0,0,0,22,33.9l-1.8-3.85q-.84.07-1.68.21c-.56.09-1.11.21-1.66.34l-.47,4.22a18.73,18.73,0,0,0-3.61,1.64L9.31,34A21.69,21.69,0,0,0,6.7,36.2l1.69,3.87a18.68,18.68,0,0,0-2.3,3.22l-4.17-.36A23,23,0,0,0,.74,46.15l3.34,2.46a18.45,18.45,0,0,0-.39,4L0,54.29c.05.52.11,1,.19,1.55s.25,1.27.4,1.88l4,.45a18.7,18.7,0,0,0,1.63,3.61L4,65.06a22.55,22.55,0,0,0,2.26,2.71l3.64-1.59a18.23,18.23,0,0,0,3.21,2.3l-.33,3.91a21.56,21.56,0,0,0,3.34,1.24l2.32-3.14a18.42,18.42,0,0,0,3.94.39L24,74.39c.59,0,1.18-.11,1.78-.21S27,74,27.53,73.81L28,70a18.43,18.43,0,0,0,3.61-1.63l3.21,2.23a22.21,22.21,0,0,0,2.76-2.25L36,64.7a18.81,18.81,0,0,0,2.31-3.21l3.95.33a23.31,23.31,0,0,0,1.27-3.29l-3.22-2.37a17.8,17.8,0,0,0,.39-3.94ZM24,63.59a11.53,11.53,0,1,1,9.5-13.25A11.52,11.52,0,0,1,24,63.59Z"/>
          <path class="cls-1" d="M93.64,29.85a27,27,0,0,0-.1-4.49l-4.93-1.22a23.51,23.51,0,0,0-1.46-4.83l3.47-3.8c-.36-.72-.76-1.43-1.19-2.13s-.73-1.12-1.12-1.65l-5,1.43a23.43,23.43,0,0,0-3.68-3.44l1.14-5.16A29.06,29.06,0,0,0,77,2.47L73.27,6.3a23.57,23.57,0,0,0-4.9-1.14L66.74,0a27,27,0,0,0-4.31.11l-1.3,5.23A23.7,23.7,0,0,0,56.3,6.84l-4-3.64c-.64.33-1.26.68-1.88,1.06s-1.2.79-1.78,1.21l1.5,5.19a23,23,0,0,0-3.45,3.68l-5.27-1.16a29,29,0,0,0-2,3.82l3.87,3.72a23.66,23.66,0,0,0-1.14,4.91l-5.07,1.6a27.66,27.66,0,0,0,.17,4.36l5.13,1.27a22.88,22.88,0,0,0,1.45,4.83l-3.5,3.83c.31.58.64,1.16,1,1.73s.9,1.37,1.38,2l4.95-1.42a23.43,23.43,0,0,0,3.68,3.44l-1.09,5a28.85,28.85,0,0,0,4,2.08l3.5-3.63a23.66,23.66,0,0,0,4.91,1.14l1.5,4.76a28.73,28.73,0,0,0,4.54-.16l1.19-4.82a23.51,23.51,0,0,0,4.83-1.46l3.64,3.33c.67-.35,1.34-.72,2-1.12s1.28-.84,1.88-1.29l-1.36-4.74a23.43,23.43,0,0,0,3.44-3.68l4.86,1.07a29.52,29.52,0,0,0,2.15-4l-3.59-3.46a23.51,23.51,0,0,0,1.14-4.91ZM65.37,43A14.67,14.67,0,1,1,80,28.31,14.66,14.66,0,0,1,65.37,43Z"/>
        </g>
        <g>
          <polygon class="cls-1" points="136.6 14.68 144.6 14.68 144.6 60.03 136.6 60.03 136.6 41.07 114.67 41.07 114.67 60.03 106.59 60.03 106.59 14.68 114.67 14.68 114.67 33.73 136.6 33.73 136.6 14.68"/>
          <path class="cls-1" d="M150,29.52a29.37,29.37,0,0,1,5.4-1.19,40.8,40.8,0,0,1,5.4-.45q7.68,0,11,2.84T175.11,40V60H168l-.08-2.81a14.32,14.32,0,0,1-9.24,3,12.16,12.16,0,0,1-8.16-2.6,8.51,8.51,0,0,1-3-6.8,8.54,8.54,0,0,1,3.42-7.21q3.42-2.61,9.77-2.93l6.19-.33a10.57,10.57,0,0,0-.58-4.21,3.25,3.25,0,0,0-2.06-1.81,16.13,16.13,0,0,0-4.7-.5,36,36,0,0,0-5,.41A22.46,22.46,0,0,0,150,35.3ZM167.2,45.69l-5.61.41a10.06,10.06,0,0,0-4.7,1.24,3.24,3.24,0,0,0-1.48,2.88,3.5,3.5,0,0,0,1.4,3,6.18,6.18,0,0,0,3.87,1.07,13.35,13.35,0,0,0,3.26-.33,13.74,13.74,0,0,0,3.26-1.48Z"/>
          <path class="cls-1" d="M178.25,28.7h4.37a9.14,9.14,0,0,0-2.77,1.4,4.31,4.31,0,0,0-1.52,1.82ZM178.41,60h7.83V36a16.34,16.34,0,0,1,5.2-.91,13.22,13.22,0,0,1,6.43,1.48V28.78a18.76,18.76,0,0,0-3.54-.41h-.75A27.31,27.31,0,0,0,183,30.31c-3.08,1.29-4.59,3.37-4.54,6.22Z"/>
          <path class="cls-1" d="M207.77,28.37l.16,2.56.91-.33,1.15-.5a21.74,21.74,0,0,1,8.25-1.89q5.35,0,8.16,3.21A26.37,26.37,0,0,1,238,28.21c3.9,0,6.68,1.12,8.33,3.38s2.47,5.82,2.47,10.72V60h-7.84V41.32a7.7,7.7,0,0,0-1.27-4.74,4.42,4.42,0,0,0-3.75-1.7,12,12,0,0,0-3.14.46,36.19,36.19,0,0,0-4.2,1.52,24,24,0,0,1,.57,5.78V60h-7.91V41.32a7.7,7.7,0,0,0-1.28-4.74,4.49,4.49,0,0,0-3.83-1.7,11.47,11.47,0,0,0-2.69.38,41.55,41.55,0,0,0-4.24,1.36V60h-7.84V28.37Z"/>
          <path class="cls-1" d="M268.29,60.78a16.38,16.38,0,0,1-8.49-2.15,14.78,14.78,0,0,1-5.73-5.85,17.29,17.29,0,0,1-2-8.41q0-7.66,4.45-12.08t11.87-4.41q7.42,0,11.84,4.45t4.41,12a17.93,17.93,0,0,1-2,8.58,14.92,14.92,0,0,1-5.77,5.81,17.05,17.05,0,0,1-8.58,2.11m0-26.72a7.1,7.1,0,0,0-5.81,2.85,11.6,11.6,0,0,0-2.27,7.46,11.28,11.28,0,0,0,2.27,7.38,7.18,7.18,0,0,0,5.81,2.76,7.31,7.31,0,0,0,5.94-2.72,11.4,11.4,0,0,0,2.23-7.42,11.5,11.5,0,0,0-2.31-7.46,7.23,7.23,0,0,0-5.86-2.85"/>
          <path class="cls-1" d="M294.51,28.37v2.72a25.1,25.1,0,0,1,11-2.72q5,0,7.59,2.23a10.25,10.25,0,0,1,3,4.61,25,25,0,0,1,.86,7.26V60h-7.83V41.48a7.05,7.05,0,0,0-1.45-4.74,5.25,5.25,0,0,0-4.24-1.69,24.08,24.08,0,0,0-7.67,1.73V60h-7.83V28.37Z"/>
          <polygon class="cls-1" points="319.42 28.37 328.4 28.37 337.89 52.7 347.2 28.37 355.45 28.37 335.25 77.02 326.43 77.02 333.6 60.28 319.42 28.37"/>
          <path class="cls-1" d="M106.85,70.12h2.45c1.28,0,2,.64,2,1.81a1.71,1.71,0,0,1-1.18,1.68,1.73,1.73,0,0,1,1.45,1.82c0,1.22-.84,1.9-2.34,1.9h-2.4ZM109,73.37c.91,0,1.41-.45,1.41-1.27a1.11,1.11,0,0,0-1.25-1.2h-1.43v2.47Zm.16,3.18c.93,0,1.46-.43,1.46-1.21S110.08,74,109,74h-1.27v2.54Z"/>
          <path class="cls-1" d="M112.55,74.87c0-1.68.85-2.61,2.23-2.61s2,.84,2,2.33c0,.09,0,.23,0,.34h-3.37c0,1.21.56,1.82,1.53,1.82a2.24,2.24,0,0,0,1.62-.67l.1.7a2.51,2.51,0,0,1-1.82.67c-1.43,0-2.26-.93-2.26-2.58m3.37-.51c0-.89-.39-1.4-1.15-1.4s-1.29.59-1.37,1.4Z"/>
          <path class="cls-1" d="M122.07,73.65v3.69h-.79V73.87a.86.86,0,0,0-.92-.89,2,2,0,0,0-1.43.76v3.6h-.79V69.7h.79V73a2.47,2.47,0,0,1,1.71-.74,1.31,1.31,0,0,1,1.43,1.39"/>
          <path class="cls-1" d="M123.36,74.85c0-1.66.83-2.59,2.28-2.59s2.29.93,2.29,2.59-.83,2.6-2.29,2.6-2.28-.93-2.28-2.6m3.76,0c0-1.22-.53-1.89-1.47-1.89s-1.47.67-1.47,1.89.52,1.9,1.47,1.9,1.47-.67,1.47-1.9"/>
          <rect class="cls-1" x="129.31" y="69.7" width="0.79" height="7.64"/>
          <path class="cls-1" d="M135.85,69.7v7.63h-.64l-.09-.64a1.88,1.88,0,0,1-1.6.76c-1.3,0-2-1-2-2.56s.75-2.63,2-2.63a2.08,2.08,0,0,1,1.53.64V69.7Zm-.79,6.36V73.65a1.71,1.71,0,0,0-1.35-.69c-.87,0-1.39.71-1.39,1.88s.57,1.91,1.42,1.91a1.62,1.62,0,0,0,1.32-.69"/>
          <polygon class="cls-1" points="137.1 78.54 137.56 76.23 138.59 76.23 137.58 78.66 137.1 78.54"/>
          <path class="cls-1" d="M146.24,73.65v3.69h-.79V73.87a.86.86,0,0,0-.92-.89,2,2,0,0,0-1.43.76v3.6h-.79V69.7h.79V73a2.47,2.47,0,0,1,1.71-.74,1.31,1.31,0,0,1,1.43,1.39"/>
          <path class="cls-1" d="M147.53,74.85c0-1.66.83-2.59,2.28-2.59s2.29.93,2.29,2.59-.82,2.6-2.29,2.6-2.28-.93-2.28-2.6m3.75,0c0-1.22-.52-1.89-1.46-1.89s-1.48.67-1.48,1.89.53,1.9,1.48,1.9,1.46-.67,1.46-1.9"/>
          <polygon class="cls-1" points="159.85 72.38 158.33 77.33 157.39 77.33 156.3 73.53 155.18 77.33 154.21 77.33 152.74 72.38 153.62 72.38 154.75 76.49 155.96 72.38 156.73 72.38 157.89 76.49 159.04 72.38 159.85 72.38"/>
          <path class="cls-1" d="M167.26,77.87c0,1-.81,1.56-2.38,1.56s-2.31-.49-2.31-1.41a1.43,1.43,0,0,1,1.27-1.38.58.58,0,0,1-.45-.57.64.64,0,0,1,.49-.6A1.57,1.57,0,0,1,163,74c0-1.06.73-1.7,1.92-1.7a2.13,2.13,0,0,1,1.37.42l.83-.43.18.63-.68.21a1.7,1.7,0,0,1,.21.87c0,1.07-.71,1.71-1.91,1.71l-.32,0-.07,0c-.26,0-.41.12-.41.28s.3.3,1,.38c1,.11,2.12.41,2.12,1.54m-.77.06c0-.63-.69-.78-1.93-1-.82.06-1.28.44-1.28.92s.62.93,1.68.93,1.53-.32,1.53-.87m-2.72-4a1.16,1.16,0,0,0,2.31,0,1.16,1.16,0,0,0-2.31,0"/>
          <path class="cls-1" d="M168.12,74.85c0-1.66.83-2.59,2.28-2.59s2.29.93,2.29,2.59-.82,2.6-2.29,2.6-2.28-.93-2.28-2.6m3.76,0c0-1.22-.53-1.89-1.47-1.89s-1.47.67-1.47,1.89.52,1.9,1.47,1.9,1.47-.67,1.47-1.9"/>
          <path class="cls-1" d="M173.72,74.85c0-1.66.83-2.59,2.28-2.59s2.29.93,2.29,2.59-.83,2.6-2.29,2.6-2.28-.93-2.28-2.6m3.76,0c0-1.22-.53-1.89-1.47-1.89s-1.47.67-1.47,1.89.52,1.9,1.47,1.9,1.47-.67,1.47-1.9"/>
          <path class="cls-1" d="M183.68,69.7v7.63H183l-.09-.64a1.88,1.88,0,0,1-1.6.76c-1.3,0-2-1-2-2.56s.75-2.63,2-2.63a2,2,0,0,1,1.52.64V69.7Zm-.8,6.36V73.65a1.68,1.68,0,0,0-1.35-.69c-.86,0-1.39.71-1.39,1.88s.58,1.91,1.43,1.91a1.59,1.59,0,0,0,1.31-.69"/>
          <path class="cls-1" d="M191.29,73.75v3.58h-.66l-.09-.6a2.6,2.6,0,0,1-1.72.72,1.32,1.32,0,0,1-1.41-1.38c0-1.18,1.11-1.84,3.07-1.84v-.5c0-.5-.31-.79-1-.79a3.56,3.56,0,0,0-1.63.44l-.21-.59a4.31,4.31,0,0,1,2-.53,1.48,1.48,0,0,1,1.67,1.49m-.81,2.4V74.78c-1.43,0-2.24.43-2.24,1.19a.78.78,0,0,0,.84.83,2.13,2.13,0,0,0,1.4-.65"/>
          <path class="cls-1" d="M196.86,73.65v3.69h-.79V73.87a.86.86,0,0,0-.92-.89,2.08,2.08,0,0,0-1.43.76v3.6h-.79v-5h.64l.08.72a2.41,2.41,0,0,1,1.78-.84,1.31,1.31,0,0,1,1.43,1.39"/>
          <path class="cls-1" d="M202.51,69.7v7.63h-.64l-.09-.64a1.88,1.88,0,0,1-1.6.76c-1.3,0-2-1-2-2.56s.75-2.63,2-2.63a2.08,2.08,0,0,1,1.53.64V69.7Zm-.79,6.36V73.65a1.71,1.71,0,0,0-1.35-.69c-.87,0-1.39.71-1.39,1.88s.57,1.91,1.42,1.91a1.61,1.61,0,0,0,1.32-.69"/>
          <path class="cls-1" d="M210.55,73.65v3.69h-.8V73.87a.86.86,0,0,0-.92-.89,2,2,0,0,0-1.42.76v3.6h-.8V69.7h.8V73a2.45,2.45,0,0,1,1.71-.74,1.32,1.32,0,0,1,1.43,1.39"/>
          <path class="cls-1" d="M211.84,74.85c0-1.66.82-2.59,2.28-2.59s2.29.93,2.29,2.59-.83,2.6-2.29,2.6-2.28-.93-2.28-2.6m3.75,0c0-1.22-.52-1.89-1.46-1.89s-1.48.67-1.48,1.89.53,1.9,1.48,1.9,1.46-.67,1.46-1.9"/>
          <polygon class="cls-1" points="224.16 72.38 222.63 77.33 221.69 77.33 220.6 73.53 219.49 77.33 218.51 77.33 217.05 72.38 217.93 72.38 219.06 76.49 220.27 72.38 221.03 72.38 222.19 76.49 223.34 72.38 224.16 72.38"/>
          <path class="cls-1" d="M231.94,74.87c0,1.62-.78,2.58-2,2.58a1.88,1.88,0,0,1-1.53-.68v2.66h-.8V72.38h.64l.09.59a2.11,2.11,0,0,1,1.6-.71c1.22,0,2,1,2,2.61m-.83,0c0-1.2-.52-1.91-1.39-1.91a1.68,1.68,0,0,0-1.35.69v2.42a1.58,1.58,0,0,0,1.33.68c.88,0,1.41-.67,1.41-1.88"/>
          <rect class="cls-1" x="233.32" y="69.7" width="0.79" height="7.64"/>
          <path class="cls-1" d="M235.49,74.87c0-1.68.85-2.61,2.23-2.61s2,.84,2,2.33c0,.09,0,.23,0,.34h-3.37c0,1.21.57,1.82,1.54,1.82a2.22,2.22,0,0,0,1.61-.67l.1.7a2.49,2.49,0,0,1-1.82.67c-1.43,0-2.26-.93-2.26-2.58m3.37-.51c0-.89-.39-1.4-1.15-1.4s-1.28.59-1.37,1.4Z"/>
          <path class="cls-1" d="M244.54,73.75v3.58h-.65l-.09-.6a2.6,2.6,0,0,1-1.72.72,1.32,1.32,0,0,1-1.41-1.38c0-1.18,1.11-1.84,3.07-1.84v-.5c0-.5-.32-.79-1-.79a3.63,3.63,0,0,0-1.64.44l-.21-.59a4.38,4.38,0,0,1,2-.53,1.47,1.47,0,0,1,1.66,1.49m-.8,2.4V74.78c-1.44,0-2.24.43-2.24,1.19a.78.78,0,0,0,.84.83,2.13,2.13,0,0,0,1.4-.65"/>
          <path class="cls-1" d="M245.8,77l.08-.71a3.91,3.91,0,0,0,1.8.48c.63,0,1-.24,1-.74s-.6-.74-1.24-.92-1.6-.53-1.6-1.45.77-1.39,1.72-1.39a4.06,4.06,0,0,1,1.6.35l-.06.67a4.4,4.4,0,0,0-1.5-.36c-.55,0-1,.26-1,.7s.53.63,1.14.81c.79.22,1.67.55,1.67,1.5s-.74,1.52-1.9,1.52A3.5,3.5,0,0,1,245.8,77"/>
          <path class="cls-1" d="M254.26,73.75v3.58h-.65l-.09-.6a2.6,2.6,0,0,1-1.72.72,1.32,1.32,0,0,1-1.41-1.38c0-1.18,1.11-1.84,3.07-1.84v-.5c0-.5-.32-.79-1-.79a3.63,3.63,0,0,0-1.64.44l-.21-.59a4.38,4.38,0,0,1,2-.53,1.47,1.47,0,0,1,1.66,1.49m-.8,2.4V74.78c-1.43,0-2.24.43-2.24,1.19a.78.78,0,0,0,.84.83,2.13,2.13,0,0,0,1.4-.65"/>
          <path class="cls-1" d="M259.84,73.65v3.69h-.79V73.87a.86.86,0,0,0-.92-.89,2.06,2.06,0,0,0-1.43.76v3.6h-.79v-5h.64l.08.72a2.41,2.41,0,0,1,1.78-.84,1.31,1.31,0,0,1,1.43,1.39"/>
          <path class="cls-1" d="M263.59,77.17a1.93,1.93,0,0,1-.83.21,1.12,1.12,0,0,1-1.22-1.25V73.07h-.78l.2-.69h.58V70.59h.79v1.79h1v.69h-1v3c0,.37.19.58.52.58a1.57,1.57,0,0,0,.52-.08Z"/>
          <path class="cls-1" d="M266.92,71.21a.54.54,0,1,1,.54.53.48.48,0,0,1-.54-.53m.12,1.17h.8v5H267Z"/>
          <path class="cls-1" d="M271.8,77.17a1.89,1.89,0,0,1-.83.21,1.12,1.12,0,0,1-1.22-1.25V73.07H269l.2-.69h.57V70.59h.8v1.79h1v.69h-1v3c0,.37.18.58.52.58a1.51,1.51,0,0,0,.51-.08Z"/>
          <path class="cls-1" d="M275.13,71.21a.54.54,0,1,1,.54.53.48.48,0,0,1-.54-.53m.12,1.17h.8v5h-.8Z"/>
          <path class="cls-1" d="M277.4,77l.08-.71a3.91,3.91,0,0,0,1.8.48c.63,0,1-.24,1-.74s-.6-.74-1.24-.92-1.6-.53-1.6-1.45.77-1.39,1.72-1.39a4.06,4.06,0,0,1,1.6.35l-.06.67a4.4,4.4,0,0,0-1.5-.36c-.55,0-1,.26-1,.7s.53.63,1.14.81c.79.22,1.67.55,1.67,1.5s-.74,1.52-1.9,1.52A3.5,3.5,0,0,1,277.4,77"/>
          <path class="cls-1" d="M117.24,84.93h1v.68h-1v4.28h-.8V85.61h-.77l.2-.68h.57V83.37a1.12,1.12,0,0,1,1.23-1.23,1.45,1.45,0,0,1,.65.15l.07.65a1.86,1.86,0,0,0-.63-.12.5.5,0,0,0-.52.57Z"/>
          <path class="cls-1" d="M119,87.41c0-1.66.82-2.59,2.28-2.59s2.29.93,2.29,2.59-.83,2.6-2.29,2.6-2.28-.94-2.28-2.6m3.75,0c0-1.22-.52-1.89-1.46-1.89s-1.48.67-1.48,1.89.52,1.89,1.48,1.89,1.46-.66,1.46-1.89"/>
          <path class="cls-1" d="M127.32,85.52a2.57,2.57,0,0,0-1.6.73v3.64h-.79v-5h.64l.09.71a2.42,2.42,0,0,1,1.6-.82Z"/>
          <path class="cls-1" d="M135.2,87.42c0,1.62-.77,2.59-2,2.59a1.89,1.89,0,0,1-1.6-.77l-.09.65h-.64V82.25h.79v3.22a2,2,0,0,1,1.54-.65c1.29,0,2,1,2,2.6m-.82,0c0-1.19-.53-1.9-1.41-1.9a1.67,1.67,0,0,0-1.35.71v2.38a1.63,1.63,0,0,0,1.34.7c.88,0,1.42-.67,1.42-1.89"/>
          <path class="cls-1" d="M139,85.52a2.54,2.54,0,0,0-1.6.73v3.64h-.8v-5h.64l.1.71a2.42,2.42,0,0,1,1.6-.82Z"/>
          <path class="cls-1" d="M139.6,87.42c0-1.67.85-2.6,2.23-2.6s2,.83,2,2.33c0,.08,0,.23,0,.33h-3.37c0,1.22.57,1.82,1.54,1.82a2.23,2.23,0,0,0,1.61-.66l.11.7a2.51,2.51,0,0,1-1.82.67c-1.44,0-2.26-.93-2.26-2.59m3.37-.5c0-.89-.39-1.4-1.15-1.4s-1.29.58-1.37,1.4Z"/>
          <path class="cls-1" d="M147.4,89.72a1.75,1.75,0,0,1-.82.21,1.12,1.12,0,0,1-1.23-1.24V85.62h-.77l.2-.69h.57V83.14h.8v1.79h1v.69h-1v3a.5.5,0,0,0,.52.57,1.46,1.46,0,0,0,.51-.07Z"/>
          <path class="cls-1" d="M152.43,86.21v3.68h-.8V86.43a.86.86,0,0,0-.92-.89,2,2,0,0,0-1.42.75v3.6h-.8V82.26h.8v3.3a2.43,2.43,0,0,1,1.7-.74,1.32,1.32,0,0,1,1.44,1.39"/>
          <path class="cls-1" d="M156.46,85.52a2.59,2.59,0,0,0-1.6.73v3.64h-.79v-5h.64l.09.71a2.42,2.42,0,0,1,1.6-.82Z"/>
          <path class="cls-1" d="M157.09,87.42c0-1.67.85-2.6,2.23-2.6s2,.83,2,2.33c0,.08,0,.23,0,.33h-3.37c0,1.22.56,1.82,1.54,1.82a2.25,2.25,0,0,0,1.61-.66l.1.7a2.49,2.49,0,0,1-1.82.67c-1.43,0-2.26-.93-2.26-2.59m3.37-.5c0-.89-.39-1.4-1.15-1.4s-1.29.58-1.37,1.4Z"/>
          <path class="cls-1" d="M166.61,86.21v3.68h-.79V86.43a.85.85,0,0,0-.92-.89,2,2,0,0,0-1.42.75v3.6h-.8v-5h.64l.08.72a2.44,2.44,0,0,1,1.78-.83,1.31,1.31,0,0,1,1.43,1.39"/>
          <path class="cls-1" d="M172.85,89.72a1.76,1.76,0,0,1-.83.21,1.12,1.12,0,0,1-1.22-1.24V85.62H170l.2-.69h.58V83.14h.79v1.79h1v.69h-1v3a.5.5,0,0,0,.53.57,1.5,1.5,0,0,0,.51-.07Z"/>
          <path class="cls-1" d="M173.53,87.41c0-1.66.83-2.59,2.28-2.59s2.29.93,2.29,2.59-.82,2.6-2.29,2.6-2.28-.94-2.28-2.6m3.76,0c0-1.22-.53-1.89-1.47-1.89s-1.47.67-1.47,1.89.52,1.89,1.47,1.89,1.47-.66,1.47-1.89"/>
          <path class="cls-1" d="M185.86,82.25v7.64h-.64l-.1-.65a1.88,1.88,0,0,1-1.6.77c-1.29,0-2-1-2-2.57s.76-2.62,2-2.62a2,2,0,0,1,1.53.64V82.25Zm-.8,6.37V86.21a1.69,1.69,0,0,0-1.35-.69c-.87,0-1.39.71-1.39,1.88s.57,1.9,1.42,1.9a1.6,1.6,0,0,0,1.32-.68"/>
          <polygon class="cls-1" points="194.03 84.93 192.5 89.89 191.56 89.89 190.47 86.08 189.35 89.89 188.38 89.89 186.91 84.93 187.79 84.93 188.92 89.04 190.13 84.93 190.9 84.93 192.06 89.04 193.21 84.93 194.03 84.93"/>
          <path class="cls-1" d="M194.64,87.42c0-1.67.84-2.6,2.22-2.6s2,.83,2,2.33c0,.08,0,.23,0,.33h-3.37c0,1.22.57,1.82,1.54,1.82a2.25,2.25,0,0,0,1.61-.66l.1.7a2.48,2.48,0,0,1-1.82.67c-1.43,0-2.25-.93-2.25-2.59m3.36-.5c0-.89-.38-1.4-1.15-1.4s-1.28.58-1.37,1.4Z"/>
          <rect class="cls-1" x="200.22" y="82.25" width="0.79" height="7.64"/>
          <rect class="cls-1" x="202.75" y="82.25" width="0.79" height="7.64"/>
          <path class="cls-1" d="M209.88,89.72a1.76,1.76,0,0,1-.83.21,1.12,1.12,0,0,1-1.22-1.24V85.62h-.77l.19-.69h.58V83.14h.79v1.79h1v.69h-1v3a.5.5,0,0,0,.53.57,1.53,1.53,0,0,0,.51-.07Z"/>
          <path class="cls-1" d="M210.56,87.41c0-1.66.83-2.59,2.28-2.59s2.29.93,2.29,2.59-.83,2.6-2.29,2.6-2.28-.94-2.28-2.6m3.76,0c0-1.22-.53-1.89-1.47-1.89s-1.47.67-1.47,1.89.52,1.89,1.47,1.89,1.47-.66,1.47-1.89"/>
          <path class="cls-1" d="M220.49,90.42c0,1-.82,1.56-2.39,1.56s-2.31-.48-2.31-1.4a1.44,1.44,0,0,1,1.28-1.38.58.58,0,0,1-.45-.57.62.62,0,0,1,.49-.6,1.57,1.57,0,0,1-.89-1.51c0-1.06.72-1.7,1.91-1.7a2.09,2.09,0,0,1,1.38.42l.82-.43.19.62-.68.21a1.74,1.74,0,0,1,.21.88c0,1.07-.71,1.71-1.92,1.71l-.32,0-.06,0c-.26,0-.41.11-.41.28s.29.29,1,.38c1,.11,2.12.4,2.12,1.53m-.78.07c0-.63-.69-.79-1.92-1-.83.07-1.29.44-1.29.92s.63.94,1.69.94,1.52-.32,1.52-.87m-2.71-4a1.16,1.16,0,1,0,1.16-1.13A1,1,0,0,0,217,86.52"/>
          <path class="cls-1" d="M221.35,87.42c0-1.67.85-2.6,2.23-2.6s2,.83,2,2.33c0,.08,0,.23,0,.33h-3.37c0,1.22.57,1.82,1.54,1.82a2.25,2.25,0,0,0,1.61-.66l.11.7a2.51,2.51,0,0,1-1.82.67c-1.44,0-2.26-.93-2.26-2.59m3.37-.5c0-.89-.39-1.4-1.15-1.4s-1.29.58-1.37,1.4Z"/>
          <path class="cls-1" d="M229.15,89.72a1.75,1.75,0,0,1-.82.21,1.12,1.12,0,0,1-1.23-1.24V85.62h-.77l.2-.69h.57V83.14h.8v1.79h1v.69h-1v3a.5.5,0,0,0,.52.57,1.46,1.46,0,0,0,.51-.07Z"/>
          <path class="cls-1" d="M234.18,86.21v3.68h-.8V86.43a.86.86,0,0,0-.92-.89,2,2,0,0,0-1.42.75v3.6h-.8V82.26h.8v3.3a2.43,2.43,0,0,1,1.7-.74,1.32,1.32,0,0,1,1.44,1.39"/>
          <path class="cls-1" d="M235.46,87.42c0-1.67.85-2.6,2.23-2.6s2,.83,2,2.33c0,.08,0,.23,0,.33h-3.37c0,1.22.56,1.82,1.54,1.82a2.27,2.27,0,0,0,1.61-.66l.1.7a2.49,2.49,0,0,1-1.82.67c-1.43,0-2.26-.93-2.26-2.59m3.37-.5c0-.89-.39-1.4-1.15-1.4s-1.29.58-1.37,1.4Z"/>
          <path class="cls-1" d="M243.45,85.52a2.54,2.54,0,0,0-1.6.73v3.64h-.8v-5h.64l.09.71a2.42,2.42,0,0,1,1.6-.82Z"/>
          <path class="cls-1" d="M246.83,83.77a.48.48,0,0,1,.54-.52.53.53,0,1,1,0,1,.48.48,0,0,1-.54-.53m.12,1.16h.8v5H247Z"/>
          <path class="cls-1" d="M253.42,86.21v3.68h-.8V86.43a.85.85,0,0,0-.92-.89,2,2,0,0,0-1.42.75v3.6h-.8v-5h.64l.08.72a2.45,2.45,0,0,1,1.78-.83,1.32,1.32,0,0,1,1.44,1.39"/>
          <path class="cls-1" d="M261.31,84.93v5h-.64l-.09-.71a2.42,2.42,0,0,1-1.77.83,1.32,1.32,0,0,1-1.44-1.38v-3.7h.8v3.46a.86.86,0,0,0,.92.9,2,2,0,0,0,1.42-.76v-3.6Z"/>
          <path class="cls-1" d="M267,86.21v3.68h-.8V86.43a.85.85,0,0,0-.92-.89,2,2,0,0,0-1.42.75v3.6H263v-5h.64l.09.72a2.42,2.42,0,0,1,1.77-.83A1.32,1.32,0,0,1,267,86.21"/>
          <path class="cls-1" d="M268.49,83.77a.48.48,0,0,1,.55-.52.53.53,0,1,1,0,1,.49.49,0,0,1-.55-.53m.13,1.16h.79v5h-.79Z"/>
          <path class="cls-1" d="M273.38,89.72a1.76,1.76,0,0,1-.83.21,1.12,1.12,0,0,1-1.22-1.24V85.62h-.77l.2-.69h.57V83.14h.8v1.79h1v.69h-1v3c0,.36.18.57.52.57a1.5,1.5,0,0,0,.51-.07Z"/>
          <path class="cls-1" d="M278.38,84.93l-1.91,5.22c-.38,1.07-.76,1.83-1.72,1.83a1.93,1.93,0,0,1-.42,0l-.11-.69a1.37,1.37,0,0,0,.34,0c.47,0,.76-.16,1.11-1.21l-1.88-5.14h.89l1.45,4.13,1.42-4.13Z"/>
          <path class="cls-1" d="M279.41,89.39A.62.62,0,1,1,280,90a.55.55,0,0,1-.61-.62m.1-6.72h1l-.23,5.19h-.56Z"/>
          <path class="cls-1" d="M293.47,92.81c1.27.06,2.17-1.86,2.44-3.28.21-1.14.27-3.5-1.26-3-1.09.35-1.9,1.85-2.37,2.85A34.88,34.88,0,0,0,290,96.1a5.56,5.56,0,0,0-.1,2.81c.33.51-.25.88-.6.19a6.3,6.3,0,0,1,0-3.14,57.1,57.1,0,0,1,3.13-11.06c.29-.68,1.17-.49.67.39,0,.15-3.42,8-3.58,11.75A33.68,33.68,0,0,1,292,89.21c.62-1.26,1.77-3.36,3.16-3.36,1.68,0,1.83,2,1.46,3.44-.43,1.67-1.71,3.84-3.15,3.84-1.16,0-1.21-1.42-.93-2.33s1.1-.24.59.3-.5,1.71.38,1.71"/>
          <path class="cls-1" d="M299.16,93.21a1.88,1.88,0,0,1-.25,2.19A3.34,3.34,0,0,1,296.74,97c-.57,0-1-.28-.9-.91.12-.92,1.42-2,2.78-2.93-.48-.46-1.48-.67-1.44-1.5a1.44,1.44,0,0,1,1.69-1.24c.75.15.35,1-.17.53s-1,0-1,.61.77,1,1.19,1.39c.95-.62,1.87-1.14,2.47-1.47.35-.2.58,0,.22.25-.54.31-1.49.86-2.45,1.51m-.33.23c-1.26.87-2.43,1.83-2.64,2.53-.1.35.1.67.49.5a4.16,4.16,0,0,0,1.43-1.3,3.71,3.71,0,0,0,.74-1.43.6.6,0,0,0,0-.3"/>
          <path class="cls-1" d="M301.39,93a.72.72,0,0,1-.27-.77,2.44,2.44,0,0,1,2.68-2.06,1.11,1.11,0,0,1,.92.6c.16.34-.27.42-.42.06a.73.73,0,0,0-.6-.42c-.63-.06-1.36.65-1.64,1.35-.06.13-.21.54-.11.68s1.4-1.23,1.56-1.38c.36-.35.78-.19.67.15-.34,1-.13,1.48.29,1.58a3.92,3.92,0,0,0,2.69-1.37c.21-.29.56-.14.24.19a4,4,0,0,1-3.07,1.49c-.92-.09-1.23-.88-.8-1.71-.33.27-1.32,2-2.14,1.61"/>
          <path class="cls-1" d="M307.39,95.94c.77.21,2.28-1.78,3.22-3.36.24-.4.46-.79.69-1.13s.5-.15.23.21-.5.82-.77,1.25c-.95,1.6-2.54,3.32-3.44,3.22-1.22-.16-.8-2.35-.35-4,.68-2.54,1.78-5.33,2.68-6.27.5-.5,1.25-.46,1.07.53-.25,1.34-1.83,3.51-2.83,4.82-.37.75-1.64,4.43-.5,4.73m.8-5.69a23.31,23.31,0,0,0,1.67-2.74c.64-1.24.3-1.22-.39-.12a14.84,14.84,0,0,0-1.28,2.86"/>
          <path class="cls-1" d="M314.73,92.43a3.52,3.52,0,0,0-.91.7,4,4,0,0,1-.6.53c-.35.14-.55,0-.38-.3.6-.9,1.14-2.19.87-2.4s-1.38,1.88-1.45,2c-.22.49-.51,1.21-.86,1.21s-.41-.43-.43-.71a5.23,5.23,0,0,1,.76-2.85c.33-.39.79-.19.68.15a19,19,0,0,0-1,2.84s0,.21.09.09c.44-.53,1.27-3.09,2.33-3.09.61,0,.4,1.19.14,2a7.38,7.38,0,0,1,1.13-.92c.27-.12.47,0,.37.22-.35.82-.37,1.31,0,1.4.73.06,1.88-1.17,2.39-1.8.21-.29.56-.14.25.19-.65.79-1.71,2-2.8,1.91-.68,0-.83-.55-.57-1.12"/>
          <path class="cls-1" d="M319.81,93.21a1.88,1.88,0,0,1-.25,2.19A3.34,3.34,0,0,1,317.39,97c-.57,0-1-.28-.91-.91.13-.92,1.43-2,2.78-2.93-.47-.46-1.47-.67-1.43-1.5a1.44,1.44,0,0,1,1.69-1.24c.75.15.35,1-.17.53s-1,0-1,.61.77,1,1.19,1.39c.94-.62,1.86-1.14,2.47-1.47.35-.2.58,0,.22.25-.54.31-1.5.86-2.45,1.51m-.33.23c-1.26.87-2.43,1.83-2.64,2.53-.1.35.1.67.49.5a4.14,4.14,0,0,0,1.42-1.3,3.62,3.62,0,0,0,.75-1.43.6.6,0,0,0,0-.3"/>
          <path class="cls-1" d="M325.46,94.69a20.5,20.5,0,0,1,.62-3.14A21.62,21.62,0,0,1,328,86.66a3.6,3.6,0,0,1-1.36.94c-.8.26-.86-.48-.25-.48.83,0,1.52-.78,2.13-1.39h0c.38-.31.89,0,.45.69a19.61,19.61,0,0,0-2.62,5.38,8.77,8.77,0,0,0-.49,2.84,2.48,2.48,0,0,0,.29,1.18c.52.51-.28,1-.62.14a2.67,2.67,0,0,1-.11-1.26"/>
          <path class="cls-1" d="M329.65,96.09c2,.18,4.15-3.28,2.49-4.86a2,2,0,0,0-1.59-.62c-.52.14-.64-.39,0-.35,1.22.06,2.57-1.53,3-2.67s-.35-1.8-1.25-1.71a2.12,2.12,0,0,0-2,2.11c.08.75-.78.67-.56-.2a3.1,3.1,0,0,1,2.52-2.24,1.7,1.7,0,0,1,2,1.38c.06,1.49-1.66,3-2.95,3.5a3.22,3.22,0,0,1,1,.54c2.37,2,.22,5.65-2.71,5.44-2-.15-1.84-2.4-.88-3.66.55-.74,1.12-.06.51.33-1.07.73-1.34,2.86.42,3"/>
          <path class="cls-1" d="M336.26,96.09c2.05.18,4.16-3.28,2.49-4.86a2,2,0,0,0-1.58-.62c-.53.14-.64-.39,0-.35,1.22.06,2.57-1.53,3-2.67s-.34-1.8-1.24-1.71a2.12,2.12,0,0,0-2,2.11c.08.75-.78.67-.56-.2a3.09,3.09,0,0,1,2.52-2.24,1.7,1.7,0,0,1,2,1.38c.06,1.49-1.66,3-2.95,3.5a3.22,3.22,0,0,1,1,.54c2.37,2,.22,5.65-2.71,5.44-2-.15-1.84-2.4-.89-3.66.56-.74,1.12-.06.51.33-1.06.73-1.33,2.86.42,3"/>
          <path class="cls-1" d="M344.08,90.85c-.18.3-.74.24-.62-.18s1.11-.87.62.18m0,2.28c-.18.31-.74.25-.62-.18s1.11-.87.62.18"/>
          <path class="cls-1" d="M347.08,94.69a19.37,19.37,0,0,1,.62-3.14,21.12,21.12,0,0,1,1.92-4.89,3.57,3.57,0,0,1-1.35.94c-.8.26-.86-.48-.25-.48.83,0,1.52-.78,2.13-1.39h0c.39-.31.9,0,.45.69A20.28,20.28,0,0,0,348,91.79a8.77,8.77,0,0,0-.49,2.84,2.73,2.73,0,0,0,.29,1.18c.52.51-.28,1-.61.14a2.67,2.67,0,0,1-.11-1.26"/>
        </g>
      </g>
    </g>
  </g>
</svg>
