<?xml version="1.0" encoding="UTF-8"?>
<svg id="Layer_2" data-name="Layer 2" xmlns="http://www.w3.org/2000/svg" xmlns:xlink="http://www.w3.org/1999/xlink" viewBox="0 0 1086.4 265.77">
  <defs>
    <style>
      .cls-1 {
        fill: none;
      }

      .cls-2 {
        fill: #fff;
      }

      .cls-3 {
        clip-path: url(#clippath);
      }
    </style>
    <clipPath id="clippath">
      <rect class="cls-1" width="247.04" height="261.4"/>
    </clipPath>
  </defs>
  <g id="Capa_4" data-name="Capa 4">
    <g>
      <path class="cls-2" d="M362.11,209.54c0,2.56-1.79,3.32-5.62,3.32h-66.45c-3.83,0-5.62-.77-5.62-3.32,0-5.11,17.12-5.88,17.12-31.44v-109.38c0-25.56-17.12-26.32-17.12-31.43,0-2.56,1.79-3.32,5.62-3.32h115.77c3.83,0,6.39,2.56,6.39,6.39v40.12c0,4.09-.77,6.39-3.32,6.39-5.11,0-33.99-42.68-57.76-42.68-5.88,0-8.69,2.04-8.69,6.39v56.99c0,5.11,3.83,7.92,10.48,7.92,19.17,0,28.11-27.09,32.97-27.09,2.56,0,3.32,2.04,3.32,6.13v52.39c0,4.09-.77,6.39-3.32,6.39-4.86,0-13.8-27.09-32.97-27.09-6.64,0-10.48,2.81-10.48,7.92v43.96c0,25.56,19.68,26.32,19.68,31.44Z"/>
      <path class="cls-2" d="M500.37,171.72c0-1.28-.51-1.53-1.02-1.53-5.11,0-4.09,44.47-47.79,44.47-23.51,0-43.19-12.52-43.19-37.57,0-51.88,82.04-34.25,83.06-59.29-.26-19.42-5.37-30.16-16.87-30.16-22.49,0-15.33,40.89-42.17,40.89-9.97,0-17.12-5.62-17.12-17.12,0-24.79,33.74-33.22,59.8-33.22,33.74,0,54.69,14.06,54.69,56.48v43.45c0,25.56,17.12,26.32,17.12,31.44,0,2.56-1.79,3.32-5.62,3.32h-40.12c-7.67,0-9.71-2.04-9.71-7.16,0-10.73,8.94-29.39,8.94-33.99ZM447.21,176.06c0,18.4,6.9,27.6,17.89,27.6,14.06,0,26.32-14.82,26.32-41.66v-34.25c-12.01,16.1-44.21,9.46-44.21,48.3Z"/>
      <path class="cls-2" d="M652.69,78.18c14.82,0,29.13,8.18,29.13,28.62,0,13.29-5.88,26.32-5.88,33.22,0,2.81,1.02,3.07,1.53,3.07,5.37,0,5.62-64.92,48.05-64.92,17.63,0,33.73,11.25,33.73,45.24v54.69c0,25.56,17.12,26.32,17.12,31.44,0,2.56-1.79,3.32-5.62,3.32h-61.34c-3.83,0-5.62-.77-5.62-3.32,0-5.11,17.12-5.88,17.12-31.44v-52.14c0-18.66-2.3-33.22-10.99-33.22-11.76,0-24.79,30.41-24.79,59.29v26.07c0,25.56,17.12,26.32,17.12,31.44,0,2.56-1.79,3.32-5.62,3.32h-61.34c-3.83,0-5.62-.77-5.62-3.32,0-5.11,17.12-5.88,17.12-31.44v-52.14c0-18.66-2.04-33.22-10.73-33.22-11.76,0-25.04,30.41-25.04,59.29v26.07c0,25.56,17.12,26.32,17.12,31.44,0,2.56-1.79,3.32-5.62,3.32h-61.34c-3.83,0-5.62-.77-5.62-3.32,0-5.11,17.12-5.88,17.12-31.44v-52.39c0-25.56-17.12-26.32-17.12-31.43,0-2.56,1.79-3.32,5.62-4.34l44.72-11.76c3.32-.77,5.11.26,5.11,3.83v2.04c0,24.02-8.69,49.32-8.69,56.99,0,1.79.51,2.04,1.02,2.04,5.37,0,7.16-64.92,49.33-64.92Z"/>
      <path class="cls-2" d="M837.98,178.11c0,25.56,17.12,26.32,17.12,31.44,0,2.56-1.79,3.32-5.62,3.32h-61.34c-3.83,0-5.62-.77-5.62-3.32,0-5.11,17.12-5.88,17.12-31.44v-52.14c0-25.56-17.12-26.32-17.12-31.44,0-2.56,1.79-3.32,5.62-4.34l44.72-11.76c3.32-.77,5.11.26,5.11,3.83v95.84ZM818.82,27.07c16.61,0,27.86,8.94,27.86,21.98s-11.25,21.98-27.86,21.98-27.86-8.69-27.86-21.98,11.25-21.98,27.86-21.98Z"/>
      <path class="cls-2" d="M916.7,178.11c0,25.56,17.12,26.32,17.12,31.44,0,2.56-1.79,3.32-5.62,3.32h-61.34c-3.83,0-5.62-.77-5.62-3.32,0-5.11,17.12-5.88,17.12-31.44v-103.5c0-25.56-17.12-26.32-17.12-31.44,0-2.56,1.79-3.32,5.62-4.34l44.72-11.76c3.32-.77,5.11.26,5.11,3.83v147.21Z"/>
      <path class="cls-2" d="M1039.88,126.99c9.2-29.13-15.85-38.59-15.85-43.7,0-2.56,1.79-3.32,5.62-3.32h51.11c3.83,0,5.62.77,5.62,3.32,0,5.11-27.35,15.08-37.06,43.96l-27.6,81.27c-6.9,20.45-13.03,57.25-50.09,57.25-16.87,0-34.25-8.18-34.25-27.6,0-14.57,9.97-20.45,19.42-20.45,15.59,0,23,16.36,35.78,16.36,11.5,0,24.02-13.03,10.22-41.15l-38.59-78.2c-11.25-22.75-25.81-26.32-25.81-31.43,0-2.56,1.79-3.32,5.62-3.32h65.43c3.83,0,5.62.77,5.62,3.32,0,5.11-18.91,7.41-8.43,31.43l18.91,43.7c1.53,3.58,3.32,3.32,4.34-.25l9.97-31.18Z"/>
    </g>
    <g class="cls-3">
      <path class="cls-2" d="M231.3,77.35C212.64,37.05,173.83,0,124.59.09c0,0-30.82-2.91-60.38,23.74-29.57,26.65-46.22,48.72-54.55,69.96C1.33,115.03-2.84,140.84,2.16,161.67c4.35,18.11,9.99,37.9,22.07,50.39,12.08,12.49,34.56,38.73,73.71,46.64,0,0,65.38,17.07,114.1-34.56,48.72-51.64,37.93-106.47,19.26-146.78M200.73,197.22c-37.93,40.1-91.91,33.72-120.01,10.58-28.1-23.14-41.33-57.53-35.04-92.9,6.28-35.38,26.12-61.22,43.64-75.1,17.52-13.89,36.37-13.83,36.37-13.83,49.46.98,76.31,38.45,86.56,55.97,10.25,17.52,24.6,77.11-11.51,115.29"/>
      <path class="cls-2" d="M118.57,48.63s-10.11.51-15.94,7.63c-5.84,7.12-3.26,20.15-3.26,20.15,0,0,3.46,13.43,18.52,12.76,15.06-.68,18.18-15.81,18.18-15.81,0,0,1.83-12.76-4.07-18.52-5.9-5.77-10.04-6.31-13.43-6.21"/>
      <path class="cls-2" d="M182.1,99.8s-12.59,1.22-10.5,12.07c1.98,10.21,12.52,7.73,15.48,6.38,2.89-1.31,6.91-5.16,5.42-12.07-1.49-6.91-10.41-6.39-10.41-6.39"/>
      <path class="cls-2" d="M167.08,175.02s7.45,2.81,9.48-4.23c1.92-6.63-4.75-8.11-6.82-8.14-2.01-.03-5.42,1.13-6.63,5.65-1.21,4.52,3.97,6.72,3.97,6.72"/>
      <path class="cls-2" d="M170.08,206.02c-10.04-3.31-21.57-17.85-21.3-29.22,0,0,25.63-21.86,8.96-56.3-12.69-26.23-36.7-25.45-36.7-25.45,0,0-30.32-3.81-44.36,31.98-6.81,17.36-4.61,50.44-.29,63.43,4.59,13.78,29.43,29.85,58.48,29.22,7.1-.15,16.69-1.15,27.65-5.32,11.06-4.2,11.31-6.72,11.31-6.72,0,0,.22-.33-3.75-1.64M137.25,138.59c-1.74,8.96-11.41,15.71-17.17,18.22-5.76-2.51-15.43-9.27-17.17-18.22-.61-3.15.48-6.63,2.83-8.86,2.37-2.25,6.1-3.02,9.2-1.91,2.32.84,4.21,2.7,5.14,4.94.93-2.24,2.82-4.1,5.14-4.94,3.1-1.12,6.83-.35,9.2,1.91,2.36,2.24,3.45,5.71,2.83,8.86"/>
      <path class="cls-2" d="M188.11,123.06c15.01-6.34,30.97,5.58,28.42,21.15-1.59,9.68-5.14,21.75-14.49,34.72-8.98,12.46-15.93,5.36-16.34-7.04-.21-6.43-3.44-13.54-7.31-19.44-6.79-10.35-2.32-24.3,9.5-29.29l.22-.09Z"/>
      <path class="cls-2" d="M167.33,195.67c-9.48-10.65-5.18-16.79,3.45-18.12,8.63-1.32,9.02,2.74,9.18,11.82-.01,7.98,3.55,10.08,1.47,11.54-2.24,1.57-9.2.27-14.11-5.25"/>
    </g>
  </g>
</svg>