<svg xmlns="http://www.w3.org/2000/svg" viewBox="0 0 355.52 98.41">
  <defs>
    <style>
      .cls-1 {
        fill: #fff;
      }
    </style>
  </defs>
  <g id="Capa_2" data-name="Capa 2">
    <g id="logo_lema" data-name="logo lema">
      <g>
        <path class="cls-1" d="M65.93,70.86a11.09,11.09,0,0,0,.33-4l2.95-2.71a14.87,14.87,0,0,0-1.11-2.89l-4,0a11.19,11.19,0,0,0-2.87-2.7l-.27-4c-.47-.2-1-.39-1.46-.55s-1-.28-1.5-.39l-2.54,3.12a11.29,11.29,0,0,0-3.89.56L48.24,55a14.78,14.78,0,0,0-2.57,1.72l.85,3.91a11.22,11.22,0,0,0-2,3.42l-3.85,1.17a14.45,14.45,0,0,0-.27,3.06L44,70.07a11.41,11.41,0,0,0,1.44,3.75l-1.49,3.73a14.32,14.32,0,0,0,2.22,2.11L49.79,78a11.06,11.06,0,0,0,1.86.79,11.69,11.69,0,0,0,2,.43l2,3.49a14.57,14.57,0,0,0,3-.44l.93-3.91a11.2,11.2,0,0,0,3.34-2.24l4,.62A14.49,14.49,0,0,0,68.41,74ZM53.82,73.08a5,5,0,1,1,5.91-4A5,5,0,0,1,53.82,73.08Z"/>
        <path class="cls-1" d="M44.34,50.5c-.05-.63-.12-1.27-.23-1.91s-.19-1-.31-1.53l-4-.45A18.46,18.46,0,0,0,38.11,43l2.37-3.41a23,23,0,0,0-2.15-2.67L34.5,38.6a19.3,19.3,0,0,0-3.22-2.31l.36-4.2a23.32,23.32,0,0,0-3.17-1.22L26,34.29A17.83,17.83,0,0,0,22,33.9l-1.8-3.85q-.84.07-1.68.21c-.56.09-1.11.21-1.66.34l-.47,4.22a18.73,18.73,0,0,0-3.61,1.64L9.31,34A21.69,21.69,0,0,0,6.7,36.2l1.69,3.87a18.68,18.68,0,0,0-2.3,3.22l-4.17-.36A23,23,0,0,0,.74,46.15l3.34,2.46a18.45,18.45,0,0,0-.39,4L0,54.29c.05.52.11,1,.19,1.55s.25,1.27.4,1.88l4,.45a18.7,18.7,0,0,0,1.63,3.61L4,65.06a22.55,22.55,0,0,0,2.26,2.71l3.64-1.59a18.23,18.23,0,0,0,3.21,2.3l-.33,3.91a21.56,21.56,0,0,0,3.34,1.24l2.32-3.14a18.42,18.42,0,0,0,3.94.39L24,74.39c.59,0,1.18-.11,1.78-.21S27,74,27.53,73.81L28,70a18.43,18.43,0,0,0,3.61-1.63l3.21,2.23a22.21,22.21,0,0,0,2.76-2.25L36,64.7a18.81,18.81,0,0,0,2.31-3.21l3.95.33a23.31,23.31,0,0,0,1.27-3.29l-3.22-2.37a17.8,17.8,0,0,0,.39-3.94ZM24,63.59a11.53,11.53,0,1,1,9.5-13.25A11.52,11.52,0,0,1,24,63.59Z"/>
        <path class="cls-1" d="M93.64,29.85a27,27,0,0,0-.1-4.49l-4.93-1.22a23.51,23.51,0,0,0-1.46-4.83l3.47-3.8c-.36-.72-.76-1.43-1.19-2.13s-.73-1.12-1.12-1.65l-5,1.43a23.43,23.43,0,0,0-3.68-3.44l1.14-5.16A29.06,29.06,0,0,0,77,2.47L73.27,6.3a23.57,23.57,0,0,0-4.9-1.14L66.74,0a27,27,0,0,0-4.31.11l-1.3,5.23A23.7,23.7,0,0,0,56.3,6.84l-4-3.64c-.64.33-1.26.68-1.88,1.06s-1.21.79-1.78,1.21l1.5,5.19a23,23,0,0,0-3.45,3.68l-5.27-1.16a29,29,0,0,0-2,3.82l3.87,3.72a23.66,23.66,0,0,0-1.14,4.91l-5.07,1.6a27.66,27.66,0,0,0,.17,4.36l5.13,1.27a22.88,22.88,0,0,0,1.45,4.83l-3.5,3.83c.31.58.64,1.16,1,1.73s.9,1.37,1.38,2l4.95-1.42a23.43,23.43,0,0,0,3.68,3.44l-1.09,5a28.85,28.85,0,0,0,4,2.08l3.5-3.63a23.66,23.66,0,0,0,4.91,1.14l1.5,4.76a28.73,28.73,0,0,0,4.54-.16l1.19-4.82a23.33,23.33,0,0,0,4.83-1.46l3.64,3.33c.67-.35,1.34-.72,2-1.12s1.28-.84,1.88-1.29l-1.36-4.74a23.43,23.43,0,0,0,3.44-3.68l4.86,1.07a29.52,29.52,0,0,0,2.15-4l-3.59-3.46a23.51,23.51,0,0,0,1.14-4.91ZM65.37,43A14.67,14.67,0,1,1,80,28.31,14.66,14.66,0,0,1,65.37,43Z"/>
        <path class="cls-1" d="M124.69,16.22,124.6,16H115L95,69l-.19.51h10l5.27-13.91h18.95l5.37,13.91h10.3Zm1,30.16H113.36l6.19-18.22Z"/>
        <path class="cls-1" d="M169.25,32.38a22.12,22.12,0,0,0-4.19-.48h-.87a32.16,32.16,0,0,0-12.51,2.28c-3.72,1.56-5.58,4.11-5.51,7.58V69.47H156V42.61a9.84,9.84,0,0,1,5.69-2.2A13.4,13.4,0,0,1,169,42.09l.55.31v-10Z"/>
        <path class="cls-1" d="M224.77,35.79c-2-2.71-5.34-4.09-10-4.09-3.93,0-8.42,1.23-13.33,3.66-2.24-2.43-5.46-3.66-9.59-3.66a25.7,25.7,0,0,0-9.73,2.24l-1.33.57-.58.21L180,31.9h-8.21V69.47h9.86V42.12c2-.71,3.54-1.21,4.65-1.48,3.64-.88,5.84-.39,7.19,1.4a8.65,8.65,0,0,1,1.41,5.29V69.47h10V48.86a28.64,28.64,0,0,0-.61-6.49,38.76,38.76,0,0,1,4.55-1.63,13.15,13.15,0,0,1,3.55-.52A4.76,4.76,0,0,1,216.45,42a8.65,8.65,0,0,1,1.41,5.29V69.47h9.86v-21C227.72,42.73,226.73,38.46,224.77,35.79Z"/>
        <path class="cls-1" d="M263.2,36.61c-3.48-3.51-8.2-5.29-14-5.29s-10.56,1.76-14.07,5.24-5.29,8.29-5.29,14.31a20.58,20.58,0,0,0,2.39,10,17.74,17.74,0,0,0,6.8,7,19.52,19.52,0,0,0,10.07,2.54,20.39,20.39,0,0,0,10.16-2.49,17.8,17.8,0,0,0,6.86-6.91,21.32,21.32,0,0,0,2.34-10.15C268.43,44.89,266.67,40.12,263.2,36.61Zm-5,14.26c0,3.54-.84,6.37-2.5,8.4a8.15,8.15,0,0,1-6.62,3,8,8,0,0,1-6.47-3.07,12.83,12.83,0,0,1-2.55-8.35,13.19,13.19,0,0,1,2.56-8.44,7.94,7.94,0,0,1,6.46-3.17,8.09,8.09,0,0,1,6.52,3.17A13,13,0,0,1,258.19,50.87Z"/>
        <path class="cls-1" d="M304,40.11a12.25,12.25,0,0,0-3.61-5.53c-2-1.78-5.1-2.68-9.07-2.68a29.39,29.39,0,0,0-12.38,2.94V31.9h-8.42V69.47h9.86V42.32a27,27,0,0,1,8.54-1.91,5.81,5.81,0,0,1,4.66,1.84,7.93,7.93,0,0,1,1.58,5.27V69.47H305V48.67A29.24,29.24,0,0,0,304,40.11Z"/>
        <path class="cls-1" d="M351.5,34.72c-2.64-2.26-7-3.4-13-3.4a48.07,48.07,0,0,0-6.33.53,34.24,34.24,0,0,0-6.36,1.41l-.25.09v7.52l.51-.19a25.73,25.73,0,0,1,5.24-1.23A42,42,0,0,1,337,39a18.54,18.54,0,0,1,5.35.56,3.41,3.41,0,0,1,2.18,1.92,11.18,11.18,0,0,1,.63,4.37l-6.84.36c-5,.26-8.87,1.43-11.57,3.48a10.35,10.35,0,0,0-4.13,8.69,10.31,10.31,0,0,0,3.68,8.2c2.43,2.07,5.7,3.11,9.74,3.11a17.3,17.3,0,0,0,10.39-3.09l.08,2.9h9V45.79C355.52,40.71,354.17,37,351.5,34.72Zm-5.94,25.34a14.9,14.9,0,0,1-3.5,1.57,15.07,15.07,0,0,1-3.7.38,7,7,0,0,1-4.28-1.17,3.74,3.74,0,0,1-1.48-3.16,3.39,3.39,0,0,1,1.56-3,11.49,11.49,0,0,1,5.29-1.38l6.11-.45Z"/>
        <g>
          <path class="cls-1" d="M95.18,81.38a.51.51,0,0,1,.57-.57.5.5,0,0,1,.56.57.51.51,0,0,1-.56.58A.52.52,0,0,1,95.18,81.38Zm.32,1.4H96l.21,4.81h-1Z"/>
          <path class="cls-1" d="M98.28,79H99.4l2.08,5.21h.06L103.67,79h1.08l.19,6.64h-.84L104,80.31h-.07l-2.05,5h-.73l-2-5H99l-.16,5.36h-.79Z"/>
          <path class="cls-1" d="M106.59,80a.5.5,0,0,1,1,0,.5.5,0,0,1-1,0Zm.11,1.07h.73v4.56h-.73Z"/>
          <path class="cls-1" d="M111.23,81.65a2.38,2.38,0,0,0-1.47.67v3.35H109V81.11h.59l.08.65a2.22,2.22,0,0,1,1.47-.76Z"/>
          <path class="cls-1" d="M115.43,82.37v3.3h-.6l-.08-.56a2.4,2.4,0,0,1-1.59.66,1.21,1.21,0,0,1-1.29-1.27c0-1.08,1-1.69,2.82-1.69v-.46c0-.45-.29-.72-.9-.72a3.27,3.27,0,0,0-1.5.4l-.2-.54A4,4,0,0,1,113.9,81,1.36,1.36,0,0,1,115.43,82.37Zm-.74,2.21V83.32c-1.32,0-2.06.4-2.06,1.1a.72.72,0,0,0,.77.76A1.93,1.93,0,0,0,114.69,84.58Z"/>
          <path class="cls-1" d="M120.62,78.65v7H120l-.09-.6a1.74,1.74,0,0,1-1.47.7c-1.19,0-1.87-.88-1.87-2.35S117.3,81,118.49,81a1.9,1.9,0,0,1,1.4.59V78.65Zm-.73,5.84V82.28a1.57,1.57,0,0,0-1.24-.63c-.8,0-1.28.65-1.28,1.73s.53,1.75,1.31,1.75A1.47,1.47,0,0,0,119.89,84.49Z"/>
          <path class="cls-1" d="M124.06,83.39c0-1.53.76-2.39,2.09-2.39a2,2,0,0,1,1.46.53l-.16.67a1.62,1.62,0,0,0-1.24-.55c-.9,0-1.4.62-1.4,1.74s.5,1.74,1.38,1.74a1.76,1.76,0,0,0,1.35-.64l.17.66a2.07,2.07,0,0,1-1.57.62C124.82,85.77,124.06,84.92,124.06,83.39Z"/>
          <path class="cls-1" d="M132.44,81.11v4.56h-.58l-.08-.66a2.22,2.22,0,0,1-1.63.76,1.21,1.21,0,0,1-1.32-1.27V81.11h.73v3.18a.79.79,0,0,0,.85.82,1.84,1.84,0,0,0,1.3-.69V81.11Z"/>
          <path class="cls-1" d="M137.18,82.37v3.3h-.6l-.08-.56a2.4,2.4,0,0,1-1.59.66,1.21,1.21,0,0,1-1.29-1.27c0-1.08,1-1.69,2.82-1.69v-.46c0-.45-.29-.72-.9-.72a3.27,3.27,0,0,0-1.5.4l-.19-.54a4,4,0,0,1,1.8-.49A1.36,1.36,0,0,1,137.18,82.37Zm-.74,2.21V83.32c-1.32,0-2.06.4-2.06,1.1a.72.72,0,0,0,.77.76A1.93,1.93,0,0,0,136.44,84.58Zm-.93-3.93h-.57l.93-1.46.82.21Z"/>
          <path class="cls-1" d="M142.31,82.28v3.39h-.74V82.48a.77.77,0,0,0-.84-.81,1.91,1.91,0,0,0-1.31.69v3.31h-.73V81.11h.59l.07.66A2.26,2.26,0,0,1,141,81,1.21,1.21,0,0,1,142.31,82.28Z"/>
          <path class="cls-1" d="M150,83.4c0,1.49-.71,2.37-1.87,2.37a1.72,1.72,0,0,1-1.47-.7l-.09.6H146v-7h.73V81.6a1.88,1.88,0,0,1,1.41-.6C149.31,81,150,81.94,150,83.4Zm-.75,0c0-1.1-.49-1.75-1.29-1.75a1.52,1.52,0,0,0-1.24.65v2.19a1.45,1.45,0,0,0,1.23.64C148.75,85.13,149.25,84.51,149.25,83.4Z"/>
          <path class="cls-1" d="M154.83,81.11v4.56h-.59l-.07-.66a2.25,2.25,0,0,1-1.64.76,1.21,1.21,0,0,1-1.32-1.27V81.11h.73v3.18a.79.79,0,0,0,.85.82,1.88,1.88,0,0,0,1.31-.69V81.11Z"/>
          <path class="cls-1" d="M156.1,83.4c0-1.54.78-2.4,2-2.4s1.82.77,1.82,2.15c0,.08,0,.21,0,.31h-3.09c0,1.11.52,1.67,1.41,1.67a2,2,0,0,0,1.48-.62l.1.65a2.33,2.33,0,0,1-1.68.61C156.86,85.77,156.1,84.92,156.1,83.4Zm3.09-.46c0-.82-.35-1.29-1.05-1.29s-1.19.54-1.26,1.29Z"/>
          <path class="cls-1" d="M164.84,82.28v3.39h-.73V82.48a.77.77,0,0,0-.84-.81,1.89,1.89,0,0,0-1.31.69v3.31h-.73V81.11h.59l.07.66a2.26,2.26,0,0,1,1.64-.77A1.2,1.2,0,0,1,164.84,82.28Z"/>
          <path class="cls-1" d="M166,83.39c0-1.53.76-2.39,2.09-2.39s2.11.86,2.11,2.39-.76,2.38-2.11,2.38S166,84.92,166,83.39Zm3.45,0c0-1.13-.48-1.74-1.35-1.74s-1.35.61-1.35,1.74.48,1.74,1.35,1.74S169.48,84.51,169.48,83.39Z"/>
          <path class="cls-1" d="M177.26,81.11l-1.76,4.8c-.34,1-.69,1.68-1.57,1.68a1.67,1.67,0,0,1-.39,0l-.1-.63a1.15,1.15,0,0,0,.31,0c.44,0,.7-.16,1-1.12L173,81.11h.82l1.34,3.8,1.3-3.8Z"/>
          <path class="cls-1" d="M180.07,83.39c0-1.53.76-2.39,2.08-2.39a2,2,0,0,1,1.47.53l-.17.67a1.6,1.6,0,0,0-1.24-.55c-.89,0-1.39.62-1.39,1.74s.5,1.74,1.37,1.74a1.8,1.8,0,0,0,1.36-.64l.16.66a2,2,0,0,1-1.56.62C180.83,85.77,180.07,84.92,180.07,83.39Z"/>
          <path class="cls-1" d="M188.45,81.11v4.56h-.59l-.07-.66a2.23,2.23,0,0,1-1.64.76,1.21,1.21,0,0,1-1.31-1.27V81.11h.73v3.18a.78.78,0,0,0,.84.82,1.86,1.86,0,0,0,1.31-.69V81.11Z"/>
          <path class="cls-1" d="M193.19,82.37v3.3h-.61l-.07-.56a2.43,2.43,0,0,1-1.59.66,1.21,1.21,0,0,1-1.29-1.27c0-1.08,1-1.69,2.82-1.69v-.46c0-.45-.29-.72-.9-.72a3.27,3.27,0,0,0-1.5.4l-.2-.54a4,4,0,0,1,1.81-.49A1.36,1.36,0,0,1,193.19,82.37Zm-.74,2.21V83.32c-1.32,0-2.06.4-2.06,1.1a.72.72,0,0,0,.77.76A2,2,0,0,0,192.45,84.58Zm-.93-3.93H191l.92-1.46.83.21Z"/>
          <path class="cls-1" d="M198.31,82.28v3.39h-.73V82.48a.77.77,0,0,0-.84-.81,1.88,1.88,0,0,0-1.31.69v3.31h-.73V81.11h.58l.08.66A2.24,2.24,0,0,1,197,81,1.21,1.21,0,0,1,198.31,82.28Z"/>
          <path class="cls-1" d="M205.68,78.65v7h-.59l-.09-.6a1.71,1.71,0,0,1-1.47.7c-1.19,0-1.86-.88-1.86-2.35s.69-2.42,1.87-2.42a1.9,1.9,0,0,1,1.4.59V78.65Zm-.74,5.84V82.28a1.55,1.55,0,0,0-1.24-.63c-.79,0-1.27.65-1.27,1.73s.52,1.75,1.3,1.75A1.46,1.46,0,0,0,204.94,84.49Z"/>
          <path class="cls-1" d="M206.94,83.4c0-1.54.78-2.4,2.05-2.4s1.82.77,1.82,2.15c0,.08,0,.21,0,.31h-3.1c0,1.11.52,1.67,1.42,1.67a2,2,0,0,0,1.48-.62l.09.65a2.31,2.31,0,0,1-1.67.61C207.7,85.77,206.94,84.92,206.94,83.4Zm3.1-.46c0-.82-.36-1.29-1.06-1.29s-1.18.54-1.26,1.29Z"/>
          <path class="cls-1" d="M212.08,78.65h.73v7h-.73Z"/>
          <path class="cls-1" d="M214.29,80a.5.5,0,0,1,1,0,.5.5,0,0,1-1,0Zm.11,1.07h.73v4.56h-.73Z"/>
          <path class="cls-1" d="M216.4,83.39c0-1.53.76-2.39,2.09-2.39a2,2,0,0,1,1.46.53l-.17.67a1.59,1.59,0,0,0-1.24-.55c-.89,0-1.39.62-1.39,1.74s.5,1.74,1.38,1.74a1.78,1.78,0,0,0,1.35-.64l.16.66a2,2,0,0,1-1.56.62C217.16,85.77,216.4,84.92,216.4,83.39Z"/>
          <path class="cls-1" d="M221.1,80a.44.44,0,0,1,.5-.48.48.48,0,1,1-.5.48Zm.12,1.07H222v4.56h-.73Z"/>
          <path class="cls-1" d="M223.21,83.39c0-1.53.76-2.39,2.1-2.39s2.11.86,2.11,2.39-.76,2.38-2.11,2.38S223.21,84.92,223.21,83.39Zm3.46,0c0-1.13-.48-1.74-1.35-1.74s-1.36.61-1.36,1.74.49,1.74,1.36,1.74S226.67,84.51,226.67,83.39Z"/>
          <path class="cls-1" d="M228.32,85.35l.08-.65a3.52,3.52,0,0,0,1.65.44c.58,0,.95-.22.95-.68s-.55-.68-1.13-.85-1.47-.48-1.47-1.33S229.1,81,230,81a3.76,3.76,0,0,1,1.47.32l-.05.62a4,4,0,0,0-1.38-.33c-.51,0-.88.24-.88.64s.49.58,1,.74c.74.21,1.54.51,1.54,1.39S231,85.77,230,85.77A3.18,3.18,0,0,1,228.32,85.35Z"/>
          <path class="cls-1" d="M232.55,83.39c0-1.53.76-2.39,2.09-2.39s2.11.86,2.11,2.39-.76,2.38-2.11,2.38S232.55,84.92,232.55,83.39Zm3.45,0c0-1.13-.48-1.74-1.35-1.74s-1.35.61-1.35,1.74.48,1.74,1.35,1.74S236,84.51,236,83.39Z"/>
          <path class="cls-1" d="M239.86,83.4c0-1.54.78-2.4,2-2.4s1.82.77,1.82,2.15c0,.08,0,.21,0,.31h-3.1c0,1.11.52,1.67,1.42,1.67a2,2,0,0,0,1.48-.62l.09.65a2.31,2.31,0,0,1-1.67.61C240.62,85.77,239.86,84.92,239.86,83.4Zm3.1-.46c0-.82-.36-1.29-1.06-1.29s-1.18.54-1.26,1.29Z"/>
          <path class="cls-1" d="M244.63,85.35l.08-.65a3.52,3.52,0,0,0,1.65.44c.58,0,.95-.22.95-.68s-.55-.68-1.13-.85-1.47-.48-1.47-1.33.7-1.28,1.57-1.28a3.76,3.76,0,0,1,1.47.32l-.05.62a4,4,0,0,0-1.38-.33c-.51,0-.88.24-.88.64s.49.58,1.05.74c.73.21,1.53.51,1.53,1.39s-.68,1.39-1.75,1.39A3.21,3.21,0,0,1,244.63,85.35Z"/>
          <path class="cls-1" d="M251.68,79h.85V82H256V79h.85v6.64H256v-3h-3.44v3h-.85Z"/>
          <path class="cls-1" d="M261.8,82.37v3.3h-.61l-.08-.56a2.38,2.38,0,0,1-1.58.66,1.21,1.21,0,0,1-1.29-1.27c0-1.08,1-1.69,2.82-1.69v-.46c0-.45-.29-.72-.91-.72a3.27,3.27,0,0,0-1.5.4l-.19-.54a4,4,0,0,1,1.81-.49A1.36,1.36,0,0,1,261.8,82.37Zm-.74,2.21V83.32c-1.32,0-2.06.4-2.06,1.1a.72.72,0,0,0,.77.76A2,2,0,0,0,261.06,84.58Z"/>
          <path class="cls-1" d="M267.32,83.4c0,1.49-.71,2.37-1.87,2.37a1.72,1.72,0,0,1-1.47-.7l-.09.6h-.58v-7H264V81.6a1.88,1.88,0,0,1,1.41-.6C266.63,81,267.32,81.94,267.32,83.4Zm-.76,0c0-1.1-.48-1.75-1.28-1.75a1.52,1.52,0,0,0-1.24.65v2.19a1.45,1.45,0,0,0,1.23.64C266.07,85.13,266.56,84.51,266.56,83.4Z"/>
          <path class="cls-1" d="M268.47,80a.5.5,0,0,1,1,0,.5.5,0,0,1-1,0Zm.11,1.07h.73v4.56h-.73Z"/>
          <path class="cls-1" d="M273,85.51a1.63,1.63,0,0,1-.76.2,1,1,0,0,1-1.13-1.15V81.74h-.71l.18-.63h.53V79.47h.73v1.64h.93v.63h-.93v2.8c0,.34.18.53.48.53a1.25,1.25,0,0,0,.47-.07Z"/>
          <path class="cls-1" d="M277.18,82.37v3.3h-.61l-.08-.56a2.4,2.4,0,0,1-1.58.66,1.21,1.21,0,0,1-1.29-1.27c0-1.08,1-1.69,2.82-1.69v-.46c0-.45-.29-.72-.91-.72a3.27,3.27,0,0,0-1.5.4l-.19-.54a4,4,0,0,1,1.81-.49A1.36,1.36,0,0,1,277.18,82.37Zm-.74,2.21V83.32c-1.32,0-2.06.4-2.06,1.1a.72.72,0,0,0,.77.76A2,2,0,0,0,276.44,84.58Z"/>
          <path class="cls-1" d="M280.89,81.65a2.43,2.43,0,0,0-1.48.67v3.35h-.73V81.11h.59l.09.65a2.22,2.22,0,0,1,1.47-.76Z"/>
          <path class="cls-1" d="M150.45,89.47h.73v7h-.73Z"/>
          <path class="cls-1" d="M152.44,94.21c0-1.53.76-2.39,2.1-2.39s2.11.86,2.11,2.39-.76,2.38-2.11,2.38S152.44,95.74,152.44,94.21Zm3.46,0c0-1.13-.48-1.74-1.35-1.74s-1.36.61-1.36,1.74.48,1.74,1.36,1.74S155.9,95.33,155.9,94.21Z"/>
          <path class="cls-1" d="M157.55,96.17l.07-.65a3.59,3.59,0,0,0,1.66.44c.58,0,.95-.22.95-.68s-.55-.68-1.13-.85-1.48-.48-1.48-1.33.71-1.28,1.58-1.28a3.76,3.76,0,0,1,1.47.32l0,.62a4,4,0,0,0-1.38-.33c-.51,0-.88.24-.88.64s.49.58,1,.74c.73.21,1.54.51,1.54,1.39s-.68,1.39-1.75,1.39A3.18,3.18,0,0,1,157.55,96.17Z"/>
          <path class="cls-1" d="M167.89,93.1v3.39h-.73V93.31a.79.79,0,0,0-.85-.82,1.86,1.86,0,0,0-1.3.69v3.31h-.73v-7H165v3a2.22,2.22,0,0,1,1.56-.69A1.21,1.21,0,0,1,167.89,93.1Z"/>
          <path class="cls-1" d="M169.07,94.22c0-1.54.78-2.4,2.05-2.4s1.82.77,1.82,2.15c0,.08,0,.21,0,.31h-3.1c0,1.11.52,1.67,1.42,1.67a2,2,0,0,0,1.48-.62l.09.65a2.31,2.31,0,0,1-1.67.61C169.83,96.59,169.07,95.74,169.07,94.22Zm3.1-.46c0-.82-.36-1.29-1.06-1.29s-1.18.54-1.26,1.29Z"/>
          <path class="cls-1" d="M176.41,92.47a2.38,2.38,0,0,0-1.47.67v3.35h-.73V91.93h.58l.09.65a2.22,2.22,0,0,1,1.47-.76Z"/>
          <path class="cls-1" d="M184,93.1v3.39h-.73V93.31a.78.78,0,0,0-.83-.82,1.85,1.85,0,0,0-1.32.7v3.3h-.73V93.31a.79.79,0,0,0-.85-.82,1.91,1.91,0,0,0-1.31.69v3.31h-.73V91.93H178l.08.66a2.23,2.23,0,0,1,1.63-.77,1.2,1.2,0,0,1,1.25.81,2.11,2.11,0,0,1,1.64-.81A1.21,1.21,0,0,1,184,93.1Z"/>
          <path class="cls-1" d="M188.68,93.19v3.3h-.6l-.08-.56a2.4,2.4,0,0,1-1.59.66,1.21,1.21,0,0,1-1.29-1.27c0-1.08,1-1.69,2.82-1.69v-.46c0-.45-.29-.72-.9-.72a3.27,3.27,0,0,0-1.5.4l-.19-.54a4,4,0,0,1,1.8-.49A1.36,1.36,0,0,1,188.68,93.19Zm-.74,2.21V94.14c-1.32,0-2.06.4-2.06,1.1a.72.72,0,0,0,.77.76A1.93,1.93,0,0,0,187.94,95.4Z"/>
          <path class="cls-1" d="M193.8,93.1v3.39h-.73V93.31a.78.78,0,0,0-.84-.82,1.89,1.89,0,0,0-1.31.69v3.31h-.73V91.93h.59l.07.66a2.26,2.26,0,0,1,1.64-.77A1.2,1.2,0,0,1,193.8,93.1Z"/>
          <path class="cls-1" d="M195,94.21c0-1.53.76-2.39,2.09-2.39s2.11.86,2.11,2.39-.76,2.38-2.11,2.38S195,95.74,195,94.21Zm3.45,0c0-1.13-.48-1.74-1.35-1.74s-1.35.61-1.35,1.74.48,1.74,1.35,1.74S198.44,95.33,198.44,94.21Z"/>
          <path class="cls-1" d="M200.09,96.17l.08-.65a3.52,3.52,0,0,0,1.65.44c.58,0,1-.22,1-.68s-.55-.68-1.13-.85-1.47-.48-1.47-1.33.7-1.28,1.57-1.28a3.76,3.76,0,0,1,1.47.32l-.05.62a4,4,0,0,0-1.38-.33c-.51,0-.88.24-.88.64s.49.58,1,.74c.74.21,1.54.51,1.54,1.39s-.68,1.39-1.75,1.39A3.21,3.21,0,0,1,200.09,96.17Z"/>
          <path class="cls-1" d="M206.13,98.36l-.1-.63a1.87,1.87,0,0,0,.35,0,.47.47,0,0,0,.49-.53V91.93h.74v5.31a1,1,0,0,1-1.16,1.17A1.07,1.07,0,0,1,206.13,98.36Zm.63-7.5a.44.44,0,0,1,.5-.48.48.48,0,1,1-.5.48Z"/>
          <path class="cls-1" d="M212.77,91.93v4.56h-.59l-.07-.66a2.21,2.21,0,0,1-1.64.76,1.21,1.21,0,0,1-1.32-1.27V91.93h.73v3.18a.79.79,0,0,0,.85.82,1.88,1.88,0,0,0,1.31-.69V91.93Z"/>
          <path class="cls-1" d="M218,93.1v3.39h-.73V93.31a.79.79,0,0,0-.85-.82,1.91,1.91,0,0,0-1.31.69v3.31h-.73V91.93H215l.08.66a2.23,2.23,0,0,1,1.63-.77A1.21,1.21,0,0,1,218,93.1Z"/>
          <path class="cls-1" d="M221.42,96.33a1.63,1.63,0,0,1-.76.2,1,1,0,0,1-1.13-1.15V92.57h-.71l.18-.64h.53V90.29h.73v1.64h.93v.64h-.93v2.79a.46.46,0,0,0,.49.53,1.31,1.31,0,0,0,.47-.07Z"/>
          <path class="cls-1" d="M222,94.21c0-1.53.76-2.39,2.1-2.39s2.1.86,2.1,2.39-.76,2.38-2.1,2.38S222,95.74,222,94.21Zm3.45,0c0-1.13-.48-1.74-1.34-1.74s-1.36.61-1.36,1.74.48,1.74,1.36,1.74S225.49,95.33,225.49,94.21Z"/>
          <path class="cls-1" d="M227.15,96.17l.07-.65a3.59,3.59,0,0,0,1.66.44c.57,0,1-.22,1-.68s-.55-.68-1.14-.85-1.47-.48-1.47-1.33.7-1.28,1.58-1.28a3.76,3.76,0,0,1,1.47.32l-.06.62a3.88,3.88,0,0,0-1.37-.33c-.51,0-.89.24-.89.64s.49.58,1.05.74c.73.21,1.54.51,1.54,1.39s-.68,1.39-1.75,1.39A3.15,3.15,0,0,1,227.15,96.17Z"/>
          <path class="cls-1" d="M233.55,94.22c0-1.54.78-2.4,2-2.4s1.81.77,1.81,2.15c0,.08,0,.21,0,.31h-3.09c0,1.11.52,1.67,1.41,1.67a2,2,0,0,0,1.48-.62l.1.65a2.33,2.33,0,0,1-1.68.61C234.31,96.59,233.55,95.74,233.55,94.22Zm3.09-.46c0-.82-.35-1.29-1-1.29s-1.19.54-1.26,1.29Z"/>
          <path class="cls-1" d="M242.3,93.1v3.39h-.74V93.31a.78.78,0,0,0-.84-.82,1.91,1.91,0,0,0-1.31.69v3.31h-.73V91.93h.59l.07.66a2.26,2.26,0,0,1,1.64-.77A1.21,1.21,0,0,1,242.3,93.1Z"/>
          <path class="cls-1" d="M249.2,93.19v3.3h-.61l-.08-.56a2.38,2.38,0,0,1-1.58.66,1.21,1.21,0,0,1-1.29-1.27c0-1.08,1-1.69,2.82-1.69v-.46c0-.45-.29-.72-.91-.72a3.27,3.27,0,0,0-1.5.4l-.19-.54a4,4,0,0,1,1.81-.49A1.36,1.36,0,0,1,249.2,93.19Zm-.74,2.21V94.14c-1.32,0-2.06.4-2.06,1.1a.72.72,0,0,0,.77.76A2,2,0,0,0,248.46,95.4Z"/>
          <path class="cls-1" d="M252.91,92.47a2.38,2.38,0,0,0-1.47.67v3.35h-.74V91.93h.59l.09.65a2.22,2.22,0,0,1,1.47-.76Z"/>
          <path class="cls-1" d="M260.45,93.1v3.39h-.73V93.31a.78.78,0,0,0-.83-.82,1.85,1.85,0,0,0-1.32.7v3.3h-.73V93.31a.79.79,0,0,0-.85-.82,1.91,1.91,0,0,0-1.31.69v3.31H254V91.93h.59l.08.66a2.23,2.23,0,0,1,1.63-.77,1.2,1.2,0,0,1,1.25.81,2.11,2.11,0,0,1,1.64-.81A1.21,1.21,0,0,1,260.45,93.1Z"/>
          <path class="cls-1" d="M261.63,94.21c0-1.53.76-2.39,2.1-2.39s2.1.86,2.1,2.39-.75,2.38-2.1,2.38S261.63,95.74,261.63,94.21Zm3.45,0c0-1.13-.48-1.74-1.34-1.74s-1.36.61-1.36,1.74.48,1.74,1.36,1.74S265.08,95.33,265.08,94.21Z"/>
          <path class="cls-1" d="M270.72,93.1v3.39H270V93.31a.79.79,0,0,0-.85-.82,1.91,1.91,0,0,0-1.31.69v3.31h-.73V91.93h.59l.08.66a2.23,2.23,0,0,1,1.63-.77A1.21,1.21,0,0,1,270.72,93.1Z"/>
          <path class="cls-1" d="M272.94,90l.82.21-1.18,1.25H272Zm-.72,1.92H273v4.56h-.74Z"/>
          <path class="cls-1" d="M277.73,93.19v3.3h-.6l-.08-.56a2.4,2.4,0,0,1-1.59.66,1.2,1.2,0,0,1-1.28-1.27c0-1.08,1-1.69,2.81-1.69v-.46c0-.45-.29-.72-.9-.72a3.27,3.27,0,0,0-1.5.4l-.19-.54a4,4,0,0,1,1.8-.49A1.36,1.36,0,0,1,277.73,93.19ZM277,95.4V94.14c-1.31,0-2.05.4-2.05,1.1a.71.71,0,0,0,.76.76A1.93,1.93,0,0,0,277,95.4Z"/>
          <path class="cls-1" d="M279.22,96a.57.57,0,1,1,.57.56A.51.51,0,0,1,279.22,96Zm.1-6.18h.94l-.21,4.77h-.51Z"/>
        </g>
        <g>
          <path class="cls-1" d="M294.6,86.19c-.78.7-1.32-.34-.56-.65,1.77-.72,2.25-4.31.39-5.13-1.21-.53-3.11.26-4.72,1.45s-2.94,3-2.09,4.67c.66,1.34,2.12,2.78,2.94,4.31a18.4,18.4,0,0,1,5.31-2.33c.84-.21.46.34.08.34a19.59,19.59,0,0,0-5.18,2.4,3.25,3.25,0,0,1-.1,3.26,4,4,0,0,1-2.27,1.81c-1.71.55-1.89-1-1.27-2.21a9.29,9.29,0,0,1,3.09-3.06c-.78-1.57-2.63-3-3.34-4.51-1-2.06.53-4.12,2.29-5.35,2-1.38,4.58-2,5.92-.8C296.58,81.66,296.05,84.9,294.6,86.19Zm-4.19,5.3a9.89,9.89,0,0,0-3,2.92c-.53.94-.31,2,1,1.3a4.7,4.7,0,0,0,1.61-1.5A3,3,0,0,0,290.41,91.49Z"/>
          <path class="cls-1" d="M295.86,90.28a.83.83,0,0,1-.3-.86,2.74,2.74,0,0,1,3-2.32,1.27,1.27,0,0,1,1,.67c.18.39-.31.48-.47.07a.83.83,0,0,0-.68-.47c-.71-.07-1.53.74-1.85,1.52-.06.15-.24.6-.12.77s1.58-1.39,1.75-1.56c.41-.39.88-.21.76.17-.38,1.16-.15,1.66.33,1.77.82.18,2.41-.79,3-1.53.24-.33.63-.16.28.21a4.48,4.48,0,0,1-3.46,1.67c-1-.09-1.38-1-.9-1.92C297.9,88.77,296.79,90.76,295.86,90.28Z"/>
          <path class="cls-1" d="M302.61,93.56c.86.24,2.56-2,3.62-3.78.27-.45.52-.89.78-1.27s.56-.17.26.24-.57.92-.87,1.4c-1.07,1.8-2.86,3.73-3.87,3.62-1.37-.17-.91-2.64-.39-4.5.76-2.86,2-6,3-7,.57-.57,1.41-.52,1.2.59-.27,1.51-2.05,4-3.19,5.42C302.75,89.08,301.32,93.22,302.61,93.56Zm.9-6.41a26.29,26.29,0,0,0,1.88-3.07c.71-1.4.34-1.38-.44-.15A17.08,17.08,0,0,0,303.51,87.15Z"/>
          <path class="cls-1" d="M310.86,89.61a4.18,4.18,0,0,0-1,.78,3.6,3.6,0,0,1-.67.6c-.4.17-.63,0-.43-.34.67-1,1.28-2.46,1-2.69-.47-.16-1.56,2.11-1.63,2.21-.26.56-.58,1.36-1,1.36s-.46-.49-.49-.79a5.92,5.92,0,0,1,.86-3.22c.37-.43.88-.2.76.17a22,22,0,0,0-1.11,3.2s0,.24.1.1c.49-.59,1.43-3.48,2.62-3.48.69,0,.46,1.34.16,2.23a8.45,8.45,0,0,1,1.27-1c.3-.13.53,0,.42.24-.4.93-.43,1.49,0,1.58.82.07,2.11-1.32,2.69-2,.23-.33.62-.16.27.21-.73.89-1.92,2.22-3.14,2.15C310.74,90.83,310.57,90.25,310.86,89.61Z"/>
          <path class="cls-1" d="M314.14,88.88a2.16,2.16,0,0,1,2.49-1.22c.3.21-.09.51-.4.29-1-.51-1.48,1.4-1.45,2.13,0,.3.22.38.46.14A2.7,2.7,0,0,0,315.8,89c-1-.34,0-1.33.23-.3a7,7,0,0,0,2.46-.14c.79-.21.42.29.18.34a7.64,7.64,0,0,1-2.58.14,2.41,2.41,0,0,1-.67,1.61.91.91,0,0,1-1.41-.1A2,2,0,0,1,314.14,88.88Z"/>
          <path class="cls-1" d="M320.69,90.49A2.11,2.11,0,0,1,320.4,93,3.74,3.74,0,0,1,318,94.71c-.64,0-1.11-.31-1-1,.14-1,1.6-2.27,3.13-3.3-.53-.51-1.66-.75-1.62-1.68a1.62,1.62,0,0,1,1.91-1.39c.84.17.39,1.1-.2.59s-1.15,0-1.09.68.87,1.14,1.34,1.57c1.06-.69,2.1-1.28,2.78-1.65.39-.23.66,0,.25.27C322.84,89.13,321.76,89.76,320.69,90.49Zm-.38.25c-1.42,1-2.73,2.07-3,2.86-.11.38.12.74.55.55a4.48,4.48,0,0,0,1.6-1.46,4.15,4.15,0,0,0,.84-1.6A.81.81,0,0,0,320.31,90.74Z"/>
          <path class="cls-1" d="M327,92.15a22,22,0,0,1,.69-3.53,24.47,24.47,0,0,1,2.17-5.5,4.09,4.09,0,0,1-1.52,1c-.9.29-1-.54-.29-.54.94,0,1.72-.87,2.4-1.56h0c.43-.35,1,0,.5.78a22.36,22.36,0,0,0-2.94,6,9.75,9.75,0,0,0-.55,3.19,2.9,2.9,0,0,0,.32,1.33c.59.58-.31,1.08-.69.16A2.93,2.93,0,0,1,327,92.15Z"/>
          <path class="cls-1" d="M331.74,93.73c2.31.2,4.68-3.7,2.8-5.47a2.28,2.28,0,0,0-1.78-.7c-.59.16-.72-.44,0-.4,1.37.07,2.88-1.72,3.36-3s-.38-2-1.4-1.92a2.36,2.36,0,0,0-2.2,2.37c.09.85-.88.75-.63-.22a3.46,3.46,0,0,1,2.84-2.52A1.92,1.92,0,0,1,337,83.42c.06,1.68-1.87,3.39-3.32,3.94a3.82,3.82,0,0,1,1.08.61c2.66,2.22.25,6.36-3.05,6.12-2.24-.17-2.07-2.7-1-4.12.62-.84,1.25-.07.57.37C330.07,91.16,329.77,93.56,331.74,93.73Z"/>
          <path class="cls-1" d="M339.18,93.73c2.31.2,4.68-3.7,2.8-5.47a2.28,2.28,0,0,0-1.78-.7c-.59.16-.72-.44,0-.4,1.37.07,2.89-1.72,3.37-3s-.39-2-1.41-1.92a2.37,2.37,0,0,0-2.2,2.37c.09.85-.88.75-.63-.22a3.47,3.47,0,0,1,2.84-2.52,1.91,1.91,0,0,1,2.29,1.55c.07,1.68-1.87,3.39-3.32,3.94a3.82,3.82,0,0,1,1.08.61c2.67,2.22.25,6.36-3.05,6.12-2.24-.17-2.06-2.7-1-4.12.62-.84,1.26-.07.57.37C337.51,91.16,337.21,93.56,339.18,93.73Z"/>
          <path class="cls-1" d="M346.62,90.4c-.2.34-.83.28-.69-.2S347.18,89.22,346.62,90.4Z"/>
          <path class="cls-1" d="M349.05,92.15a23.2,23.2,0,0,1,.7-3.53,24,24,0,0,1,2.17-5.5,4,4,0,0,1-1.53,1c-.9.29-1-.54-.28-.54.93,0,1.71-.87,2.4-1.56h0c.44-.35,1,0,.51.78a22.22,22.22,0,0,0-3,6,10,10,0,0,0-.55,3.19,2.9,2.9,0,0,0,.33,1.33c.58.58-.32,1.08-.7.16A3.06,3.06,0,0,1,349.05,92.15Z"/>
        </g>
        <path class="cls-1" d="M148.36,28.79A2.15,2.15,0,0,0,146.22,31l.11,4.55c2.07-5.11,9.2-6.76,9.2-6.76h-7.17Z"/>
        <path class="cls-1" d="M311.54,38.64a10.6,10.6,0,0,1-2.18-.21v31h9.95V35.9A11.92,11.92,0,0,1,311.54,38.64Z"/>
        <path class="cls-1" d="M315.68,22c1.18,2.41-1.3,3.24-3.89,4-5.45,1.7-2.48,7.81-1.92,8.86,1,.35,5.7.57,7.94-2.53C321,28,317.55,23,315.68,22Z"/>
      </g>
    </g>
  </g>
</svg>
