<?xml version="1.0" encoding="UTF-8"?>
<svg id="Layer_2" data-name="Layer 2" xmlns="http://www.w3.org/2000/svg" viewBox="0 0 372.21 88.11">
  <defs>
    <style>
      .cls-1 {
        fill: #fff;
      }
    </style>
  </defs>
  <g id="Capa_2" data-name="Capa 2">
    <path id="ICONO" class="cls-1" d="M77.97,26.07C71.68,12.49,58.59,0,42,.03c0,0-10.39-.98-20.35,8C11.68,17.02,6.06,24.46,3.25,31.62.45,38.77-.96,47.48.73,54.5c1.46,6.1,3.37,12.77,7.44,16.98,4.07,4.21,11.65,13.05,24.85,15.72,0,0,22.04,5.76,38.46-11.65,16.42-17.41,12.79-35.89,6.49-49.48ZM67.66,66.48c-12.78,13.52-30.98,11.37-40.45,3.57s-13.93-19.39-11.81-31.32c2.12-11.92,8.8-20.64,14.71-25.32,5.91-4.68,12.26-4.66,12.26-4.66,16.67.33,25.72,12.96,29.18,18.87,3.45,5.91,8.29,25.99-3.88,38.86Z"/>
    <path class="cls-1" d="M39.97,16.39s-3.41.17-5.37,2.57c-1.97,2.4-1.1,6.79-1.1,6.79,0,0,1.17,4.53,6.24,4.3,5.08-.23,6.13-5.33,6.13-5.33,0,0,.62-4.3-1.37-6.24-1.99-1.94-3.39-2.13-4.53-2.09Z"/>
    <path class="cls-1" d="M61.38,33.64s-4.25.41-3.54,4.07c.67,3.44,4.22,2.61,5.22,2.15.97-.44,2.33-1.74,1.83-4.07s-3.51-2.15-3.51-2.15Z"/>
    <path class="cls-1" d="M56.32,59s2.51.95,3.2-1.42c.65-2.23-1.6-2.73-2.3-2.74-.68-.01-1.83.38-2.23,1.91s1.34,2.26,1.34,2.26Z"/>
    <path class="cls-1" d="M57.33,69.45c-3.39-1.12-7.27-6.02-7.18-9.85,0,0,8.64-7.37,3.02-18.98-4.28-8.84-12.37-8.58-12.37-8.58,0,0-10.22-1.28-14.95,10.78-2.3,5.85-1.56,17-.1,21.38,1.55,4.64,9.92,10.06,19.71,9.85,2.39-.05,5.63-.39,9.32-1.79,3.73-1.42,3.81-2.26,3.81-2.26,0,0,.07-.11-1.26-.55ZM46.26,46.72c-.59,3.02-3.85,5.3-5.79,6.14-1.94-.85-5.2-3.12-5.79-6.14-.21-1.06.16-2.23.95-2.99.8-.76,2.06-1.02,3.1-.64.78.28,1.42.91,1.73,1.66.31-.75.95-1.38,1.73-1.66,1.05-.38,2.3-.12,3.1.64.79.75,1.16,1.92.95,2.99Z"/>
    <path class="cls-1" d="M63.41,41.48c5.06-2.14,10.44,1.88,9.58,7.13-.53,3.26-1.73,7.33-4.88,11.7-3.03,4.2-5.37,1.81-5.51-2.37-.07-2.17-1.16-4.56-2.46-6.55-2.29-3.49-.78-8.19,3.2-9.87l.07-.03Z"/>
    <path class="cls-1" d="M56.41,65.96c-3.2-3.59-1.75-5.66,1.16-6.11,2.91-.45,3.04.92,3.1,3.98,0,2.69,1.2,3.4.5,3.89-.75.53-3.1.09-4.76-1.77Z"/>
    <path class="cls-1" d="M118.52,73.29c0,.81-.57,1.06-1.79,1.06h-21.13c-1.22,0-1.79-.24-1.79-1.06,0-1.63,5.45-1.87,5.45-10V28.5c0-8.13-5.45-8.37-5.45-10,0-.81.57-1.06,1.79-1.06h36.82c1.22,0,2.03.81,2.03,2.03v12.76c0,1.3-.24,2.03-1.06,2.03-1.63,0-10.81-13.57-18.37-13.57-1.87,0-2.76.65-2.76,2.03v18.13c0,1.63,1.22,2.52,3.33,2.52,6.1,0,8.94-8.62,10.49-8.62.81,0,1.06.65,1.06,1.95v16.66c0,1.3-.24,2.03-1.06,2.03-1.54,0-4.39-8.62-10.49-8.62-2.11,0-3.33.89-3.33,2.52v13.98c0,8.13,6.26,8.37,6.26,10Z"/>
    <path class="cls-1" d="M162.5,61.26c0-.41-.16-.49-.33-.49-1.63,0-1.3,14.14-15.2,14.14-7.48,0-13.74-3.98-13.74-11.95,0-16.5,26.09-10.89,26.42-18.86-.08-6.18-1.71-9.59-5.36-9.59-7.15,0-4.88,13.01-13.41,13.01-3.17,0-5.45-1.79-5.45-5.45,0-7.88,10.73-10.57,19.02-10.57,10.73,0,17.39,4.47,17.39,17.96v13.82c0,8.13,5.45,8.37,5.45,10,0,.81-.57,1.06-1.79,1.06h-12.76c-2.44,0-3.09-.65-3.09-2.28,0-3.41,2.84-9.35,2.84-10.81ZM145.59,62.64c0,5.85,2.19,8.78,5.69,8.78,4.47,0,8.37-4.71,8.37-13.25v-10.89c-3.82,5.12-14.06,3.01-14.06,15.36Z"/>
    <path class="cls-1" d="M210.95,31.51c4.71,0,9.27,2.6,9.27,9.1,0,4.23-1.87,8.37-1.87,10.57,0,.89.32.98.49.98,1.71,0,1.79-20.65,15.28-20.65,5.61,0,10.73,3.58,10.73,14.39v17.39c0,8.13,5.45,8.37,5.45,10,0,.81-.57,1.06-1.79,1.06h-19.51c-1.22,0-1.79-.24-1.79-1.06,0-1.63,5.45-1.87,5.45-10v-16.58c0-5.93-.73-10.57-3.5-10.57-3.74,0-7.88,9.67-7.88,18.86v8.29c0,8.13,5.45,8.37,5.45,10,0,.81-.57,1.06-1.79,1.06h-19.51c-1.22,0-1.79-.24-1.79-1.06,0-1.63,5.45-1.87,5.45-10v-16.58c0-5.93-.65-10.57-3.41-10.57-3.74,0-7.97,9.67-7.97,18.86v8.29c0,8.13,5.45,8.37,5.45,10,0,.81-.57,1.06-1.79,1.06h-19.51c-1.22,0-1.79-.24-1.79-1.06,0-1.63,5.45-1.87,5.45-10v-16.66c0-8.13-5.45-8.37-5.45-10,0-.81.57-1.06,1.79-1.38l14.22-3.74c1.06-.24,1.63.08,1.63,1.22v.65c0,7.64-2.76,15.69-2.76,18.13,0,.57.16.65.33.65,1.71,0,2.28-20.65,15.69-20.65Z"/>
    <path class="cls-1" d="M269.88,63.29c0,8.13,5.45,8.37,5.45,10,0,.81-.57,1.06-1.79,1.06h-19.51c-1.22,0-1.79-.24-1.79-1.06,0-1.63,5.45-1.87,5.45-10v-16.58c0-8.13-5.45-8.37-5.45-10,0-.81.57-1.06,1.79-1.38l14.22-3.74c1.06-.24,1.63.08,1.63,1.22v30.48ZM263.78,15.25c5.28,0,8.86,2.85,8.86,6.99s-3.58,6.99-8.86,6.99-8.86-2.76-8.86-6.99,3.58-6.99,8.86-6.99Z"/>
    <path class="cls-1" d="M294.91,62.57c0,8.66,5.45,8.92,5.45,10.65,0,.87-.57,1.13-1.79,1.13h-19.51c-1.22,0-1.79-.26-1.79-1.13,0-1.73,5.45-1.99,5.45-10.65V27.5c0-8.66-5.45-8.92-5.45-10.65,0-.87.57-1.13,1.79-1.47l14.22-3.98c1.06-.26,1.63.09,1.63,1.3v49.88Z"/>
    <path class="cls-1" d="M319.95,63.29c0,8.13,5.45,8.37,5.45,10,0,.81-.57,1.06-1.79,1.06h-19.51c-1.22,0-1.79-.24-1.79-1.06,0-1.63,5.45-1.87,5.45-10v-16.58c0-8.13-5.45-8.37-5.45-10,0-.81.57-1.06,1.79-1.38l14.22-3.74c1.06-.24,1.63.08,1.63,1.22v30.48ZM313.85,15.25c5.28,0,8.86,2.85,8.86,6.99s-3.58,6.99-8.86,6.99-8.86-2.76-8.86-6.99,3.58-6.99,8.86-6.99Z"/>
    <path class="cls-1" d="M357.42,61.26c0-.41-.16-.49-.32-.49-1.63,0-1.3,14.14-15.2,14.14-7.48,0-13.74-3.98-13.74-11.95,0-16.5,26.09-10.89,26.42-18.86-.08-6.18-1.71-9.59-5.36-9.59-7.15,0-4.88,13.01-13.41,13.01-3.17,0-5.45-1.79-5.45-5.45,0-7.88,10.73-10.57,19.02-10.57,10.73,0,17.39,4.47,17.39,17.96v13.82c0,8.13,5.45,8.37,5.45,10,0,.81-.57,1.06-1.79,1.06h-12.76c-2.44,0-3.09-.65-3.09-2.28,0-3.41,2.84-9.35,2.84-10.81ZM340.51,62.64c0,5.85,2.19,8.78,5.69,8.78,4.47,0,8.37-4.71,8.37-13.25v-10.89c-3.82,5.12-14.06,3.01-14.06,15.36Z"/>
  </g>
</svg>