<?xml version="1.0" standalone="no"?>
<!DOCTYPE svg PUBLIC "-//W3C//DTD SVG 20010904//EN"
 "http://www.w3.org/TR/2001/REC-SVG-20010904/DTD/svg10.dtd">
<svg version="1.0" xmlns="http://www.w3.org/2000/svg"
 width="670.000000pt" height="134.000000pt" viewBox="0 0 670.000000 134.000000"
 preserveAspectRatio="xMidYMid meet">

<g transform="translate(0.000000,134.000000) scale(0.100000,-0.100000)"
fill="#ffffff" stroke="none">
<path d="M5127 1182 l-327 -55 2 -460 3 -461 335 -58 c184 -32 341 -56 348
-53 9 3 12 128 12 575 l0 570 -22 -1 c-13 -1 -170 -26 -351 -57z m-14 -302 c3
-11 1 -18 -4 -14 -5 3 -9 12 -9 20 0 20 7 17 13 -6z m74 -12 c-3 -7 -5 -2 -5
12 0 14 2 19 5 13 2 -7 2 -19 0 -25z m-112 4 c-3 -3 -11 0 -18 7 -9 10 -8 11
6 5 10 -3 15 -9 12 -12z m-61 -47 c-6 -15 11 -22 19 -7 2 4 2 2 1 -5 -2 -7 1
-15 6 -18 13 -8 13 -25 0 -25 -5 0 -10 7 -10 15 0 8 -4 15 -10 15 -5 0 -10 -7
-10 -15 0 -8 -4 -15 -10 -15 -11 0 -14 53 -3 63 12 12 22 7 17 -8z m53 -47
c-2 -13 -4 -3 -4 22 0 25 2 35 4 23 2 -13 2 -33 0 -45z m30 0 c-2 -13 -4 -3
-4 22 0 25 2 35 4 23 2 -13 2 -33 0 -45z m120 -5 c-2 -16 -4 -5 -4 22 0 28 2
40 4 28 2 -13 2 -35 0 -50z m-80 22 c2 -13 0 -26 -4 -28 -5 -3 -9 11 -10 30
-2 38 9 37 14 -2z m33 0 c0 -19 -4 -35 -10 -35 -5 0 -10 16 -10 35 0 19 5 35
10 35 6 0 10 -16 10 -35z m118 -12 c6 -18 7 -33 3 -33 -5 0 -12 11 -15 24 -3
13 -9 32 -12 43 -5 12 -4 15 3 8 6 -5 15 -25 21 -42z"/>
<path d="M5602 1193 l-33 -4 26 -21 26 -20 -3 -447 c-3 -438 -3 -447 -25 -483
l-22 -37 27 10 c14 6 37 8 49 4 l23 -5 0 505 c0 563 8 507 -68 498z"/>
<path d="M315 989 c-48 -13 -115 -78 -141 -133 -42 -89 -28 -214 31 -292 13
-17 48 -44 77 -58 44 -22 65 -26 138 -26 73 0 94 4 138 26 66 33 82 62 82 154
l0 70 -112 -1 c-110 0 -112 -1 -69 -14 86 -27 114 -78 82 -150 -23 -52 -61
-75 -123 -75 -56 0 -101 29 -130 82 -20 38 -23 57 -23 163 0 105 3 126 23 167
51 103 173 119 241 32 25 -31 27 -57 6 -74 -24 -20 -18 -30 18 -30 44 0 77 25
77 57 0 34 -55 85 -107 101 -46 14 -163 14 -208 1z"/>
<path d="M2996 967 c-22 -16 -18 -65 5 -80 23 -14 67 0 74 24 8 25 -19 69 -43
69 -10 0 -26 -6 -36 -13z"/>
<path d="M817 860 c-52 -10 -88 -38 -114 -90 -65 -125 16 -269 150 -270 64 0
112 22 137 62 23 39 27 63 4 30 -21 -30 -66 -52 -109 -52 -26 0 -45 9 -72 33
-32 30 -37 40 -41 93 l-5 59 21 -19 c23 -20 96 -32 136 -22 13 3 38 18 55 32
32 27 41 67 21 103 -18 34 -111 55 -183 41z m94 -23 c21 -16 39 -51 39 -77 0
-33 -44 -70 -82 -70 -28 0 -98 31 -98 43 0 18 27 76 43 95 23 24 72 29 98 9z"/>
<path d="M2080 863 c-8 -3 -30 -19 -47 -36 l-33 -31 0 32 c0 37 1 37 -36 17
-16 -8 -51 -15 -79 -15 -47 0 -48 -1 -25 -13 33 -17 50 -53 50 -109 0 -42 -4
-50 -42 -83 -116 -100 -239 -111 -283 -25 -31 60 -15 189 29 233 63 63 163
-54 107 -125 -12 -15 -31 -29 -44 -31 -21 -4 -21 -4 2 -6 35 -2 105 35 120 62
21 39 10 79 -28 104 -49 33 -163 33 -211 1 -55 -38 -74 -71 -78 -141 -7 -123
72 -204 189 -194 103 9 183 70 305 232 70 94 101 111 138 76 30 -28 70 -25 74
5 2 11 -4 26 -12 33 -17 14 -75 23 -96 14z"/>
<path d="M2704 860 c-50 -11 -91 -41 -114 -82 -33 -58 -26 -160 14 -213 38
-49 85 -68 158 -63 62 5 96 27 124 80 18 35 17 51 -1 17 -16 -30 -70 -59 -110
-59 -40 0 -83 27 -101 63 -33 63 -10 212 37 237 63 34 129 -30 83 -81 -15 -17
-15 -18 9 -24 14 -4 38 -1 54 7 22 10 29 21 31 50 3 32 -1 39 -25 51 -35 18
-118 27 -159 17z"/>
<path d="M3267 860 c-52 -10 -88 -38 -114 -90 -67 -130 18 -270 161 -270 110
0 184 74 185 185 2 119 -105 199 -232 175z m102 -36 c63 -80 48 -266 -25 -304
-109 -59 -174 205 -77 312 25 28 77 23 102 -8z"/>
<path d="M4105 865 c-5 -2 -22 -6 -37 -9 -14 -3 -40 -18 -57 -32 l-31 -26 -62
31 c-78 40 -158 43 -208 9 -19 -13 -36 -29 -38 -37 -4 -11 1 -10 19 2 33 24
75 21 93 -5 12 -17 16 -49 16 -133 0 -84 -4 -116 -16 -133 l-15 -22 87 0 87 0
-24 26 c-22 24 -24 36 -29 150 l-5 125 23 -6 c13 -3 41 -17 63 -32 42 -28 53
-41 18 -22 -33 17 -42 -2 -37 -79 3 -57 8 -76 32 -107 38 -49 85 -68 158 -63
62 5 96 27 124 80 21 40 17 48 -5 12 -44 -72 -168 -69 -204 4 -17 33 -30 96
-21 105 4 3 19 0 35 -8 60 -32 159 -12 193 37 41 59 3 113 -90 128 -32 6 -59
10 -59 9 0 0 -4 -2 -10 -4z m85 -40 c33 -35 33 -91 0 -117 -32 -26 -103 -20
-133 10 -20 20 -20 22 -3 66 10 25 25 50 34 56 32 18 77 11 102 -15z"/>
<path d="M1150 844 c-14 -7 -47 -14 -75 -14 -47 0 -48 -1 -25 -13 38 -19 50
-54 50 -144 0 -87 -10 -128 -38 -149 -14 -11 -3 -13 71 -14 l88 0 -15 22 c-22
31 -22 207 -1 247 23 45 78 56 108 23 24 -26 25 -237 1 -270 l-15 -22 87 0 87
0 -24 26 c-22 23 -24 35 -27 132 -1 59 -5 117 -8 130 -8 40 -40 62 -90 62 -53
0 -81 -12 -111 -48 l-23 -27 0 38 c0 40 -3 42 -40 21z"/>
<path d="M2263 840 c-27 -16 -33 -26 -33 -55 0 -29 4 -36 25 -41 37 -9 58 13
52 53 -5 26 -1 36 16 48 l21 15 -24 0 c-14 0 -40 -9 -57 -20z"/>
<path d="M2367 850 c44 -18 55 -51 51 -159 -3 -95 -5 -101 -32 -130 -39 -40
-86 -42 -123 -5 -46 47 -14 113 79 160 26 13 53 34 59 46 l12 21 -27 -20 c-14
-12 -50 -27 -79 -33 -68 -16 -100 -33 -126 -66 -25 -32 -27 -64 -6 -104 20
-39 63 -60 119 -60 39 0 52 6 86 36 l40 36 0 -37 c0 -32 2 -36 15 -25 10 8 33
10 72 6 32 -3 52 -3 45 0 -29 13 -42 63 -42 163 0 55 -5 111 -11 124 -15 34
-60 57 -111 56 -35 0 -39 -2 -21 -9z"/>
<path d="M3040 845 c-14 -8 -47 -14 -74 -15 l-49 0 26 -21 c37 -28 50 -86 41
-177 -5 -60 -12 -80 -30 -99 l-23 -23 95 0 95 0 -23 31 c-21 28 -23 45 -28
174 l-5 143 -25 -13z"/>
<path d="M3620 844 c-14 -7 -47 -14 -75 -14 -49 -1 -49 -1 -24 -15 40 -22 51
-62 48 -164 -4 -78 -7 -93 -28 -115 l-24 -26 86 0 87 0 -16 25 c-13 19 -15 48
-14 137 4 204 5 197 -40 172z"/>
<path d="M4377 850 c-23 -14 -47 -63 -47 -94 0 -42 48 -86 104 -97 62 -11 95
-28 118 -59 23 -32 16 -55 -23 -75 -37 -19 -83 -19 -125 1 -41 19 -52 33 -70
81 l-13 38 -1 -56 0 -56 51 -16 c161 -53 304 37 244 152 -17 33 -79 66 -144
76 -26 4 -54 17 -69 32 -22 22 -23 26 -9 46 17 25 66 34 97 17 12 -6 27 -25
34 -42 l13 -30 12 32 c15 44 15 45 -11 48 -91 10 -145 11 -161 2z"/>
<path d="M1956 694 c-26 -30 -42 -62 -48 -92 -4 -25 -18 -56 -30 -69 l-21 -23
96 0 c97 0 97 0 77 20 -24 24 -29 46 -32 138 l-3 73 -39 -47z"/>
<path d="M1585 680 c3 -5 16 -10 28 -9 21 0 21 1 2 9 -28 12 -37 12 -30 0z"/>
<path d="M6095 565 c-209 -47 -381 -85 -382 -85 -1 0 -3 -61 -5 -135 -2 -88 1
-134 7 -131 30 13 901 429 904 432 2 2 -29 4 -70 3 -54 0 -178 -23 -454 -84z"/>
</g>
</svg>
