<svg xmlns="http://www.w3.org/2000/svg" xmlns:xlink="http://www.w3.org/1999/xlink" viewBox="0 0 1508.17 367.24">
  <defs>
    <style>
      .cls-1 {
        fill: url(#linear-gradient);
      }

      .cls-2 {
        fill: url(#linear-gradient-2);
      }

      .cls-3 {
        fill: url(#linear-gradient-3);
      }

      .cls-4 {
        fill: url(#linear-gradient-4);
      }

      .cls-5 {
        fill: url(#linear-gradient-5);
      }

      .cls-6 {
        fill: url(#linear-gradient-6);
      }

      .cls-7 {
        fill: url(#linear-gradient-7);
      }

      .cls-8 {
        fill: url(#linear-gradient-8);
      }

      .cls-9 {
        fill: url(#linear-gradient-9);
      }

      .cls-10 {
        fill: url(#linear-gradient-10);
      }

      .cls-11 {
        fill: url(#linear-gradient-11);
      }

      .cls-12 {
        fill: url(#linear-gradient-12);
      }

      .cls-13 {
        fill: url(#linear-gradient-13);
      }

      .cls-14 {
        fill: url(#linear-gradient-14);
      }

      .cls-15 {
        fill: url(#linear-gradient-15);
      }

      .cls-16 {
        fill: url(#linear-gradient-16);
      }

      .cls-17 {
        fill: url(#linear-gradient-17);
      }

      .cls-18 {
        fill: url(#linear-gradient-18);
      }

      .cls-19 {
        fill: url(#linear-gradient-19);
      }

      .cls-20 {
        fill: url(#linear-gradient-20);
      }

      .cls-21 {
        fill: url(#linear-gradient-21);
      }

      .cls-22 {
        fill: url(#linear-gradient-22);
      }

      .cls-23 {
        fill: url(#linear-gradient-23);
      }

      .cls-24 {
        fill: url(#linear-gradient-24);
      }

      .cls-25 {
        fill: url(#linear-gradient-25);
      }

      .cls-26 {
        fill: url(#linear-gradient-26);
      }

      .cls-27 {
        fill: url(#linear-gradient-27);
      }

      .cls-28 {
        fill: url(#linear-gradient-28);
      }

      .cls-29 {
        fill: url(#linear-gradient-29);
      }

      .cls-30 {
        fill: url(#linear-gradient-30);
      }

      .cls-31 {
        fill: url(#linear-gradient-31);
      }

      .cls-32 {
        fill: url(#linear-gradient-32);
      }

      .cls-33 {
        fill: url(#linear-gradient-33);
      }

      .cls-34 {
        fill: url(#linear-gradient-34);
      }

      .cls-35 {
        fill: url(#linear-gradient-35);
      }

      .cls-36 {
        fill: url(#linear-gradient-36);
      }

      .cls-37 {
        fill: url(#linear-gradient-37);
      }

      .cls-38 {
        fill: url(#linear-gradient-38);
      }

      .cls-39 {
        fill: url(#linear-gradient-39);
      }

      .cls-40 {
        fill: url(#linear-gradient-40);
      }

      .cls-41 {
        fill: url(#linear-gradient-41);
      }

      .cls-42 {
        fill: url(#linear-gradient-42);
      }

      .cls-43 {
        fill: url(#linear-gradient-43);
      }

      .cls-44 {
        fill: url(#linear-gradient-44);
      }

      .cls-45 {
        fill: url(#linear-gradient-45);
      }

      .cls-46 {
        fill: url(#linear-gradient-46);
      }

      .cls-47 {
        fill: url(#linear-gradient-47);
      }

      .cls-48 {
        fill: url(#linear-gradient-48);
      }

      .cls-49 {
        fill: url(#linear-gradient-49);
      }

      .cls-50 {
        fill: url(#linear-gradient-50);
      }

      .cls-51 {
        fill: url(#linear-gradient-51);
      }

      .cls-52 {
        fill: url(#linear-gradient-52);
      }

      .cls-53 {
        fill: url(#linear-gradient-53);
      }

      .cls-54 {
        fill: url(#linear-gradient-54);
      }

      .cls-55 {
        fill: url(#linear-gradient-55);
      }

      .cls-56 {
        fill: url(#linear-gradient-56);
      }

      .cls-57 {
        fill: url(#linear-gradient-57);
      }

      .cls-58 {
        fill: url(#linear-gradient-58);
      }

      .cls-59 {
        fill: url(#linear-gradient-59);
      }

      .cls-60 {
        fill: url(#linear-gradient-60);
      }

      .cls-61 {
        fill: url(#linear-gradient-61);
      }

      .cls-62 {
        fill: url(#linear-gradient-62);
      }

      .cls-63 {
        fill: url(#linear-gradient-63);
      }

      .cls-64 {
        fill: url(#linear-gradient-64);
      }

      .cls-65 {
        fill: url(#linear-gradient-65);
      }

      .cls-66 {
        fill: url(#linear-gradient-66);
      }

      .cls-67 {
        fill: url(#linear-gradient-67);
      }

      .cls-68 {
        fill: url(#linear-gradient-68);
      }

      .cls-69 {
        fill: url(#linear-gradient-69);
      }

      .cls-70 {
        fill: url(#linear-gradient-70);
      }

      .cls-71 {
        fill: url(#linear-gradient-71);
      }

      .cls-72 {
        fill: url(#linear-gradient-72);
      }

      .cls-73 {
        fill: url(#linear-gradient-73);
      }

      .cls-74 {
        fill: url(#linear-gradient-74);
      }

      .cls-75 {
        fill: url(#linear-gradient-75);
      }

      .cls-76 {
        fill: url(#linear-gradient-76);
      }

      .cls-77 {
        fill: url(#linear-gradient-77);
      }

      .cls-78 {
        fill: url(#linear-gradient-78);
      }

      .cls-79 {
        fill: url(#linear-gradient-79);
      }

      .cls-80 {
        fill: url(#linear-gradient-80);
      }

      .cls-81 {
        fill: url(#linear-gradient-81);
      }

      .cls-82 {
        fill: url(#linear-gradient-82);
      }

      .cls-83 {
        fill: url(#linear-gradient-83);
      }

      .cls-84 {
        fill: url(#linear-gradient-84);
      }

      .cls-85 {
        fill: url(#linear-gradient-85);
      }

      .cls-86 {
        fill: url(#linear-gradient-86);
      }

      .cls-87 {
        fill: url(#linear-gradient-87);
      }

      .cls-88 {
        fill: url(#linear-gradient-88);
      }

      .cls-89 {
        fill: url(#linear-gradient-89);
      }

      .cls-90 {
        fill: url(#linear-gradient-90);
      }

      .cls-91 {
        fill: url(#linear-gradient-91);
      }

      .cls-92 {
        fill: url(#linear-gradient-92);
      }

      .cls-93 {
        fill: url(#linear-gradient-93);
      }

      .cls-94 {
        fill: url(#linear-gradient-94);
      }

      .cls-95 {
        fill: url(#linear-gradient-95);
      }

      .cls-96 {
        fill: url(#linear-gradient-96);
      }

      .cls-97 {
        fill: url(#linear-gradient-97);
      }

      .cls-98 {
        fill: url(#linear-gradient-98);
      }

      .cls-99 {
        fill: url(#linear-gradient-99);
      }

      .cls-100 {
        fill: url(#linear-gradient-100);
      }
    </style>
    <linearGradient id="linear-gradient" x1="150.18" y1="200.47" x2="240.96" y2="293.34" gradientUnits="userSpaceOnUse">
      <stop offset="0" stop-color="#fbd158"/>
      <stop offset="0.17" stop-color="#ecd268"/>
      <stop offset="0.18" stop-color="#e5c965"/>
      <stop offset="0.22" stop-color="#ceac5d"/>
      <stop offset="0.26" stop-color="#bf9958"/>
      <stop offset="0.29" stop-color="#ba9356"/>
      <stop offset="0.45" stop-color="#b29b52"/>
      <stop offset="0.61" stop-color="#ecbb24"/>
      <stop offset="0.7" stop-color="#cea323"/>
      <stop offset="0.79" stop-color="#ba9222"/>
      <stop offset="0.84" stop-color="#b28c22"/>
      <stop offset="0.89" stop-color="#ba9221"/>
      <stop offset="0.96" stop-color="#d1a120"/>
      <stop offset="0.99" stop-color="#dca91f"/>
    </linearGradient>
    <linearGradient id="linear-gradient-2" x1="240.68" y1="272.81" x2="149.2" y2="212.64" gradientUnits="userSpaceOnUse">
      <stop offset="0" stop-color="#ffe6a0"/>
      <stop offset="0.16" stop-color="#ecbb24"/>
      <stop offset="0.22" stop-color="#f2c94d"/>
      <stop offset="0.34" stop-color="#ffe6a0"/>
      <stop offset="0.44" stop-color="#f2d381"/>
      <stop offset="0.59" stop-color="#dbb44d"/>
      <stop offset="0.63" stop-color="#dfb644"/>
      <stop offset="0.7" stop-color="#e9ba2b"/>
      <stop offset="0.72" stop-color="#ecbb24"/>
      <stop offset="0.76" stop-color="#e6b421"/>
      <stop offset="0.83" stop-color="#d6a118"/>
      <stop offset="0.85" stop-color="#d19b16"/>
      <stop offset="0.96" stop-color="#f3d27b"/>
      <stop offset="1" stop-color="#ffe6a0"/>
    </linearGradient>
    <linearGradient id="linear-gradient-3" x1="0" y1="184.41" x2="152.22" y2="184.41" xlink:href="#linear-gradient"/>
    <linearGradient id="linear-gradient-4" x1="8.55" y1="117.92" x2="145.59" y2="252.87" xlink:href="#linear-gradient-2"/>
    <linearGradient id="linear-gradient-5" x1="150.14" y1="30.32" x2="296.23" y2="172.23" xlink:href="#linear-gradient"/>
    <linearGradient id="linear-gradient-6" x1="344.11" y1="150.82" x2="103.76" y2="53.43" xlink:href="#linear-gradient-2"/>
    <linearGradient id="linear-gradient-7" x1="352.85" y1="-0.63" x2="459.01" y2="299.94" xlink:href="#linear-gradient"/>
    <linearGradient id="linear-gradient-8" x1="467.81" y1="288.86" x2="364.4" y2="46.89" xlink:href="#linear-gradient-2"/>
    <linearGradient id="linear-gradient-9" x1="679.98" y1="63.15" x2="915.75" y2="273.41" xlink:href="#linear-gradient"/>
    <linearGradient id="linear-gradient-10" x1="913.93" y1="269.99" x2="642.1" y2="31.7" xlink:href="#linear-gradient-2"/>
    <linearGradient id="linear-gradient-11" x1="957.54" y1="71.92" x2="1100.24" y2="251.17" xlink:href="#linear-gradient"/>
    <linearGradient id="linear-gradient-12" x1="1117.26" y1="240.97" x2="916.44" y2="67.5" xlink:href="#linear-gradient-2"/>
    <linearGradient id="linear-gradient-13" x1="1105.12" y1="38.61" x2="1280.23" y2="292.3" xlink:href="#linear-gradient"/>
    <linearGradient id="linear-gradient-14" x1="1310.96" y1="264.27" x2="1090.81" y2="86.05" xlink:href="#linear-gradient-2"/>
    <linearGradient id="linear-gradient-15" x1="1359.03" y1="156.57" x2="1508.17" y2="156.57" xlink:href="#linear-gradient"/>
    <linearGradient id="linear-gradient-16" x1="1334.09" y1="26.72" x2="1525.19" y2="279.78" xlink:href="#linear-gradient-2"/>
    <linearGradient id="linear-gradient-17" x1="452.45" y1="308.61" x2="1673.32" y2="429.66" gradientUnits="userSpaceOnUse">
      <stop offset="0" stop-color="#ffe59d"/>
      <stop offset="0.08" stop-color="#f7d77f"/>
      <stop offset="0.24" stop-color="#e1b232"/>
      <stop offset="0.28" stop-color="#dca91f"/>
      <stop offset="0.33" stop-color="#ce9e20"/>
      <stop offset="0.46" stop-color="#a47f22"/>
      <stop offset="0.51" stop-color="#b59239"/>
      <stop offset="0.65" stop-color="#ddbe6d"/>
      <stop offset="0.75" stop-color="#f6da8e"/>
      <stop offset="0.8" stop-color="#ffe49a"/>
      <stop offset="1" stop-color="#ffe49a"/>
    </linearGradient>
    <linearGradient id="linear-gradient-18" x1="453.42" y1="298.83" x2="1674.29" y2="419.87" xlink:href="#linear-gradient-17"/>
    <linearGradient id="linear-gradient-19" x1="453.53" y1="297.7" x2="1674.4" y2="418.74" xlink:href="#linear-gradient-17"/>
    <linearGradient id="linear-gradient-20" x1="453.37" y1="299.33" x2="1674.24" y2="420.37" xlink:href="#linear-gradient-17"/>
    <linearGradient id="linear-gradient-21" x1="453.48" y1="298.17" x2="1674.35" y2="419.21" xlink:href="#linear-gradient-17"/>
    <linearGradient id="linear-gradient-22" x1="454.19" y1="291.06" x2="1675.06" y2="412.1" xlink:href="#linear-gradient-17"/>
    <linearGradient id="linear-gradient-23" x1="453.98" y1="293.14" x2="1674.85" y2="414.19" xlink:href="#linear-gradient-17"/>
    <linearGradient id="linear-gradient-24" x1="454.16" y1="291.32" x2="1675.03" y2="412.37" xlink:href="#linear-gradient-17"/>
    <linearGradient id="linear-gradient-25" x1="454.71" y1="285.82" x2="1675.57" y2="406.87" xlink:href="#linear-gradient-17"/>
    <linearGradient id="linear-gradient-26" x1="454.54" y1="287.45" x2="1675.41" y2="408.5" xlink:href="#linear-gradient-17"/>
    <linearGradient id="linear-gradient-27" x1="455.27" y1="280.14" x2="1676.14" y2="401.18" xlink:href="#linear-gradient-17"/>
    <linearGradient id="linear-gradient-28" x1="455.04" y1="282.4" x2="1675.91" y2="403.44" xlink:href="#linear-gradient-17"/>
    <linearGradient id="linear-gradient-29" x1="455.24" y1="280.38" x2="1676.11" y2="401.43" xlink:href="#linear-gradient-17"/>
    <linearGradient id="linear-gradient-30" x1="455.43" y1="278.47" x2="1676.3" y2="399.51" xlink:href="#linear-gradient-17"/>
    <linearGradient id="linear-gradient-31" x1="455.64" y1="276.41" x2="1676.51" y2="397.45" xlink:href="#linear-gradient-17"/>
    <linearGradient id="linear-gradient-32" x1="455.55" y1="277.31" x2="1676.42" y2="398.36" xlink:href="#linear-gradient-17"/>
    <linearGradient id="linear-gradient-33" x1="456.19" y1="270.82" x2="1677.06" y2="391.86" xlink:href="#linear-gradient-17"/>
    <linearGradient id="linear-gradient-34" x1="456.37" y1="269" x2="1677.24" y2="390.04" xlink:href="#linear-gradient-17"/>
    <linearGradient id="linear-gradient-35" x1="456.92" y1="263.5" x2="1677.79" y2="384.54" xlink:href="#linear-gradient-17"/>
    <linearGradient id="linear-gradient-36" x1="456.76" y1="265.13" x2="1677.63" y2="386.17" xlink:href="#linear-gradient-17"/>
    <linearGradient id="linear-gradient-37" x1="457.55" y1="257.16" x2="1678.42" y2="378.2" xlink:href="#linear-gradient-17"/>
    <linearGradient id="linear-gradient-38" x1="457.25" y1="260.11" x2="1678.12" y2="381.16" xlink:href="#linear-gradient-17"/>
    <linearGradient id="linear-gradient-39" x1="457.88" y1="253.8" x2="1678.75" y2="374.84" xlink:href="#linear-gradient-17"/>
    <linearGradient id="linear-gradient-40" x1="457.78" y1="254.77" x2="1678.65" y2="375.81" xlink:href="#linear-gradient-17"/>
    <linearGradient id="linear-gradient-41" x1="457.63" y1="256.34" x2="1678.5" y2="377.38" xlink:href="#linear-gradient-17"/>
    <linearGradient id="linear-gradient-42" x1="458.05" y1="252.05" x2="1678.92" y2="373.09" xlink:href="#linear-gradient-17"/>
    <linearGradient id="linear-gradient-43" x1="457.9" y1="253.61" x2="1678.77" y2="374.66" xlink:href="#linear-gradient-17"/>
    <linearGradient id="linear-gradient-44" x1="458.08" y1="251.76" x2="1678.95" y2="372.8" xlink:href="#linear-gradient-17"/>
    <linearGradient id="linear-gradient-45" x1="458.27" y1="249.89" x2="1679.14" y2="370.94" xlink:href="#linear-gradient-17"/>
    <linearGradient id="linear-gradient-46" x1="458.56" y1="246.99" x2="1679.42" y2="368.04" xlink:href="#linear-gradient-17"/>
    <linearGradient id="linear-gradient-47" x1="458.73" y1="245.26" x2="1679.6" y2="366.3" xlink:href="#linear-gradient-17"/>
    <linearGradient id="linear-gradient-48" x1="459.46" y1="237.9" x2="1680.33" y2="358.95" xlink:href="#linear-gradient-17"/>
    <linearGradient id="linear-gradient-49" x1="459.27" y1="239.82" x2="1680.14" y2="360.86" xlink:href="#linear-gradient-17"/>
    <linearGradient id="linear-gradient-50" x1="459.91" y1="233.37" x2="1680.77" y2="354.42" xlink:href="#linear-gradient-17"/>
    <linearGradient id="linear-gradient-51" x1="459.93" y1="233.17" x2="1680.8" y2="354.21" xlink:href="#linear-gradient-17"/>
    <linearGradient id="linear-gradient-52" x1="460.06" y1="231.79" x2="1680.93" y2="352.83" xlink:href="#linear-gradient-17"/>
    <linearGradient id="linear-gradient-53" x1="459.87" y1="233.69" x2="1680.74" y2="354.73" xlink:href="#linear-gradient-17"/>
    <linearGradient id="linear-gradient-54" x1="460.07" y1="231.7" x2="1680.94" y2="352.74" xlink:href="#linear-gradient-17"/>
    <linearGradient id="linear-gradient-55" x1="451.13" y1="321.87" x2="1672" y2="442.91" xlink:href="#linear-gradient-17"/>
    <linearGradient id="linear-gradient-56" x1="450.79" y1="325.33" x2="1671.66" y2="446.37" xlink:href="#linear-gradient-17"/>
    <linearGradient id="linear-gradient-57" x1="450.97" y1="323.48" x2="1671.84" y2="444.52" xlink:href="#linear-gradient-17"/>
    <linearGradient id="linear-gradient-58" x1="451.68" y1="316.36" x2="1672.55" y2="437.4" xlink:href="#linear-gradient-17"/>
    <linearGradient id="linear-gradient-59" x1="451.44" y1="318.72" x2="1672.31" y2="439.76" xlink:href="#linear-gradient-17"/>
    <linearGradient id="linear-gradient-60" x1="451.63" y1="316.85" x2="1672.5" y2="437.9" xlink:href="#linear-gradient-17"/>
    <linearGradient id="linear-gradient-61" x1="451.82" y1="314.93" x2="1672.69" y2="435.98" xlink:href="#linear-gradient-17"/>
    <linearGradient id="linear-gradient-62" x1="452.06" y1="312.47" x2="1672.93" y2="433.52" xlink:href="#linear-gradient-17"/>
    <linearGradient id="linear-gradient-63" x1="452.27" y1="310.43" x2="1673.14" y2="431.47" xlink:href="#linear-gradient-17"/>
    <linearGradient id="linear-gradient-64" x1="452.47" y1="308.37" x2="1673.34" y2="429.42" xlink:href="#linear-gradient-17"/>
    <linearGradient id="linear-gradient-65" x1="452.65" y1="306.52" x2="1673.52" y2="427.56" xlink:href="#linear-gradient-17"/>
    <linearGradient id="linear-gradient-66" x1="452.78" y1="305.23" x2="1673.65" y2="426.28" xlink:href="#linear-gradient-17"/>
    <linearGradient id="linear-gradient-67" x1="453.02" y1="302.81" x2="1673.89" y2="423.85" xlink:href="#linear-gradient-17"/>
    <linearGradient id="linear-gradient-68" x1="453.22" y1="300.8" x2="1674.09" y2="421.84" xlink:href="#linear-gradient-17"/>
    <linearGradient id="linear-gradient-69" x1="453.71" y1="295.84" x2="1674.58" y2="416.89" xlink:href="#linear-gradient-17"/>
    <linearGradient id="linear-gradient-70" x1="453.54" y1="297.59" x2="1674.41" y2="418.63" xlink:href="#linear-gradient-17"/>
    <linearGradient id="linear-gradient-71" x1="453.72" y1="295.73" x2="1674.59" y2="416.78" xlink:href="#linear-gradient-17"/>
    <linearGradient id="linear-gradient-72" x1="453.99" y1="293.02" x2="1674.86" y2="414.06" xlink:href="#linear-gradient-17"/>
    <linearGradient id="linear-gradient-73" x1="454.18" y1="291.1" x2="1675.05" y2="412.14" xlink:href="#linear-gradient-17"/>
    <linearGradient id="linear-gradient-74" x1="454.45" y1="288.35" x2="1675.32" y2="409.39" xlink:href="#linear-gradient-17"/>
    <linearGradient id="linear-gradient-75" x1="454.65" y1="286.36" x2="1675.52" y2="407.4" xlink:href="#linear-gradient-17"/>
    <linearGradient id="linear-gradient-76" x1="454.84" y1="284.44" x2="1675.71" y2="405.48" xlink:href="#linear-gradient-17"/>
    <linearGradient id="linear-gradient-77" x1="455.1" y1="281.81" x2="1675.97" y2="402.85" xlink:href="#linear-gradient-17"/>
    <linearGradient id="linear-gradient-78" x1="455.31" y1="279.77" x2="1676.17" y2="400.82" xlink:href="#linear-gradient-17"/>
    <linearGradient id="linear-gradient-79" x1="455.84" y1="274.41" x2="1676.71" y2="395.45" xlink:href="#linear-gradient-17"/>
    <linearGradient id="linear-gradient-80" x1="455.58" y1="276.97" x2="1676.45" y2="398.02" xlink:href="#linear-gradient-17"/>
    <linearGradient id="linear-gradient-81" x1="456.14" y1="271.36" x2="1677.01" y2="392.4" xlink:href="#linear-gradient-17"/>
    <linearGradient id="linear-gradient-82" x1="1535.9" y1="427.95" x2="1174.86" y2="296.47" xlink:href="#linear-gradient-17"/>
    <linearGradient id="linear-gradient-83" x1="1538.39" y1="421.1" x2="1177.35" y2="289.62" xlink:href="#linear-gradient-17"/>
    <linearGradient id="linear-gradient-84" x1="1542.7" y1="409.28" x2="1181.66" y2="277.8" xlink:href="#linear-gradient-17"/>
    <linearGradient id="linear-gradient-85" x1="1543.1" y1="408.18" x2="1182.06" y2="276.7" xlink:href="#linear-gradient-17"/>
    <linearGradient id="linear-gradient-86" x1="1546.21" y1="399.65" x2="1185.16" y2="268.17" xlink:href="#linear-gradient-17"/>
    <linearGradient id="linear-gradient-87" x1="1545.59" y1="401.34" x2="1184.55" y2="269.86" xlink:href="#linear-gradient-17"/>
    <linearGradient id="linear-gradient-88" x1="1554.38" y1="377.19" x2="1193.34" y2="245.71" xlink:href="#linear-gradient-17"/>
    <linearGradient id="linear-gradient-89" x1="1556.38" y1="371.7" x2="1195.34" y2="240.22" xlink:href="#linear-gradient-17"/>
    <linearGradient id="linear-gradient-90" x1="1559.92" y1="361.98" x2="1198.88" y2="230.5" xlink:href="#linear-gradient-17"/>
    <linearGradient id="linear-gradient-91" x1="1559.73" y1="362.51" x2="1198.69" y2="231.03" xlink:href="#linear-gradient-17"/>
    <linearGradient id="linear-gradient-92" x1="1564.85" y1="348.45" x2="1203.81" y2="216.97" xlink:href="#linear-gradient-17"/>
    <linearGradient id="linear-gradient-93" x1="553.41" y1="44.15" x2="672.67" y2="279.23" xlink:href="#linear-gradient"/>
    <linearGradient id="linear-gradient-94" x1="562.78" y1="39.4" x2="682.04" y2="274.48" xlink:href="#linear-gradient"/>
    <linearGradient id="linear-gradient-95" x1="651.3" y1="218.39" x2="561.5" y2="74.19" xlink:href="#linear-gradient-2"/>
    <linearGradient id="linear-gradient-96" x1="665.58" y1="207.1" x2="576.7" y2="64.37" xlink:href="#linear-gradient-2"/>
    <linearGradient id="linear-gradient-97" x1="1262.91" y1="43.04" x2="1376.43" y2="282.95" xlink:href="#linear-gradient"/>
    <linearGradient id="linear-gradient-98" x1="1301.69" y1="24.69" x2="1415.21" y2="264.59" xlink:href="#linear-gradient"/>
    <linearGradient id="linear-gradient-99" x1="1367.91" y1="215.69" x2="1205.58" y2="45.39" xlink:href="#linear-gradient-2"/>
    <linearGradient id="linear-gradient-100" x1="1414.17" y1="171.6" x2="1251.83" y2="1.3" xlink:href="#linear-gradient-2"/>
  </defs>
  <g id="Capa_2" data-name="Capa 2">
    <g id="Capa_1-2" data-name="Capa 1">
      <path class="cls-1" d="M226.36,248.4a38.35,38.35,0,0,0,1.14-13.58l10.12-9.28a50.11,50.11,0,0,0-3.82-9.92L220,215.49a38.53,38.53,0,0,0-9.83-9.25l-.95-13.77c-1.61-.7-3.28-1.33-5-1.88s-3.44-1-5.17-1.34L190.34,200a38.36,38.36,0,0,0-13.35,1.9L165.62,194a50.66,50.66,0,0,0-8.84,5.91l2.93,13.42a38.47,38.47,0,0,0-6.89,11.75l-13.24,4a50.09,50.09,0,0,0-.9,10.52L151,245.69a38.9,38.9,0,0,0,4.94,12.87l-5.12,12.82a50.16,50.16,0,0,0,7.63,7.21l12.48-5.86a36.45,36.45,0,0,0,13.19,4.18l6.82,12a50.86,50.86,0,0,0,10.39-1.5l3.2-13.43A38.87,38.87,0,0,0,216,266.29l13.57,2.12a49.87,49.87,0,0,0,5.33-9.11ZM184.79,256a17.26,17.26,0,1,1,20.29-13.58A17.27,17.27,0,0,1,184.79,256Z"/>
      <path class="cls-2" d="M220.94,246.88a33,33,0,0,0,1-11.63l8.67-8a43.78,43.78,0,0,0-3.27-8.5l-11.84-.11a32.78,32.78,0,0,0-8.42-7.92l-.81-11.8a41.38,41.38,0,0,0-4.28-1.61,41.83,41.83,0,0,0-4.43-1.15l-7.46,9.17A33.28,33.28,0,0,0,178.64,207l-9.75-6.72a43.44,43.44,0,0,0-7.57,5.06l2.51,11.5a33.05,33.05,0,0,0-5.91,10.07l-11.34,3.43a43,43,0,0,0-.77,9l10.55,5.21a33.29,33.29,0,0,0,4.24,11l-4.38,11a42.53,42.53,0,0,0,6.53,6.18l10.69-5a33.39,33.39,0,0,0,5.48,2.32,32.75,32.75,0,0,0,5.82,1.26l5.85,10.26a42.65,42.65,0,0,0,8.9-1.28l2.75-11.51a33.31,33.31,0,0,0,9.81-6.57L223.68,264a43.15,43.15,0,0,0,4.56-7.81Zm-35.62,6.52a14.79,14.79,0,1,1,17.39-11.64A14.79,14.79,0,0,1,185.32,253.4Z"/>
      <path class="cls-3" d="M152.22,178.49c-.17-2.17-.41-4.35-.77-6.54-.3-1.79-.67-3.54-1.08-5.27l-13.91-1.56a63.42,63.42,0,0,0-5.62-12.39L139,141a75.19,75.19,0,0,0-7.41-9.15l-13.14,5.75a64.34,64.34,0,0,0-11-7.92l1.24-14.44a75.73,75.73,0,0,0-10.89-4.17l-8.63,11.72a62.64,62.64,0,0,0-13.54-1.34l-6.18-13.2c-1.92.17-3.85.39-5.78.71s-3.82.73-5.69,1.19L56.3,124.67a63.42,63.42,0,0,0-12.39,5.62L32,122a75.41,75.41,0,0,0-9,7.44l5.81,13.28a63.81,63.81,0,0,0-7.92,11.05L6.61,152.52a74.93,74.93,0,0,0-4.07,11L14,172a62.77,62.77,0,0,0-1.34,13.54L0,191.5c.17,1.77.37,3.55.67,5.34C1,199,1.5,201.17,2,203.29l13.81,1.54a63.42,63.42,0,0,0,5.62,12.39l-7.84,11.25a75.38,75.38,0,0,0,7.77,9.3l12.47-5.46a63.81,63.81,0,0,0,11.05,7.92l-1.15,13.41a75.66,75.66,0,0,0,11.48,4.28l8-10.8a62.71,62.71,0,0,0,13.54,1.34l5.65,12.06c2-.17,4.07-.4,6.12-.74s4-.77,6-1.26L96,245.28a63.42,63.42,0,0,0,12.39-5.62l11,7.67a76.12,76.12,0,0,0,9.49-7.74l-5.4-12.33a63.81,63.81,0,0,0,7.92-11L145,217.37a75.83,75.83,0,0,0,4.38-11.31l-11-8.13a62.64,62.64,0,0,0,1.34-13.54ZM82.51,223.44a39.58,39.58,0,1,1,32.6-45.5A39.58,39.58,0,0,1,82.51,223.44Z"/>
      <path class="cls-4" d="M144.24,179.11c-.16-1.94-.38-3.9-.7-5.86-.26-1.6-.6-3.16-1-4.72l-12.45-1.38a56.28,56.28,0,0,0-5-11.1l7.3-10.46a69.07,69.07,0,0,0-6.63-8.2L114,142.54a57.1,57.1,0,0,0-9.89-7.08l1.11-12.93a68.17,68.17,0,0,0-9.74-3.73l-7.73,10.49a56.64,56.64,0,0,0-12.12-1.2l-5.53-11.81c-1.72.15-3.44.34-5.17.63s-3.42.65-5.1,1.06l-1.44,13a55.94,55.94,0,0,0-11.09,5L36.6,128.52a67.57,67.57,0,0,0-8,6.66l5.2,11.89A57.1,57.1,0,0,0,26.69,157l-12.8-1.1a68.87,68.87,0,0,0-3.64,9.89l10.27,7.57a56.64,56.64,0,0,0-1.2,12.12L8,190.75c.15,1.59.33,3.18.6,4.78.32,2,.74,3.88,1.22,5.78l12.37,1.37a56.28,56.28,0,0,0,5,11.1l-7,10.07a67.73,67.73,0,0,0,7,8.32l11.16-4.88a57.1,57.1,0,0,0,9.89,7.08l-1,12a69.52,69.52,0,0,0,10.27,3.83l7.12-9.67a56.64,56.64,0,0,0,12.12,1.2l5.06,10.79c1.82-.15,3.64-.35,5.47-.66s3.62-.69,5.39-1.13l1.33-11.85a56.2,56.2,0,0,0,11.09-5l9.84,6.87a68.52,68.52,0,0,0,8.5-6.93l-4.83-11a57.1,57.1,0,0,0,7.08-9.89l12.14,1a68.79,68.79,0,0,0,3.92-10.12l-9.89-7.28a56,56,0,0,0,1.2-12.12ZM81.83,219.34A35.42,35.42,0,1,1,111,178.62,35.42,35.42,0,0,1,81.83,219.34Z"/>
      <path class="cls-5" d="M321.5,107.6a98.16,98.16,0,0,0-.35-15.42L304.21,88a80.29,80.29,0,0,0-5-16.57l11.93-13.05c-1.26-2.47-2.6-4.92-4.09-7.32-1.22-2-2.51-3.83-3.84-5.67l-17.1,4.93a80.07,80.07,0,0,0-12.63-11.83l3.9-17.71a97,97,0,0,0-13.16-7.16L251.55,26.76a81.05,81.05,0,0,0-16.83-3.94L229.15,5.24a96.6,96.6,0,0,0-14.82.38l-4.46,18a80.47,80.47,0,0,0-16.57,5L179.62,16.1c-2.17,1.13-4.33,2.32-6.45,3.63s-4.13,2.72-6.11,4.16l5.14,17.82a80.14,80.14,0,0,0-11.84,12.63l-18.08-4a96.64,96.64,0,0,0-6.93,13.11l13.29,12.79a81.05,81.05,0,0,0-3.94,16.83l-17.4,5.52a97.48,97.48,0,0,0,.59,15l17.6,4.36a79.83,79.83,0,0,0,5,16.57l-12,13.14c1.06,2,2.17,4,3.38,5.95,1.49,2.4,3.09,4.69,4.75,6.91l17-4.9a80.2,80.2,0,0,0,12.64,11.84l-3.76,17a96.53,96.53,0,0,0,13.66,7.15l12-12.47A81.14,81.14,0,0,0,215,183.11l5.17,16.32a95.48,95.48,0,0,0,15.57-.55l4.1-16.56a79.65,79.65,0,0,0,16.57-5l12.5,11.43c2.31-1.19,4.59-2.45,6.83-3.84s4.39-2.88,6.47-4.42l-4.69-16.27a80.13,80.13,0,0,0,11.83-12.64L306,155.26a97,97,0,0,0,7.4-13.71l-12.34-11.88A81.14,81.14,0,0,0,305,112.83Zm-97.06,45.07a50.35,50.35,0,1,1,50.35-50.35A50.35,50.35,0,0,1,224.44,152.67Z"/>
      <path class="cls-6" d="M314.46,107.22a90,90,0,0,0-.33-14.3L298.42,89a74.55,74.55,0,0,0-4.64-15.37l11.06-12.1c-1.16-2.3-2.41-4.57-3.79-6.79-1.13-1.82-2.33-3.56-3.56-5.26l-15.86,4.58a74.44,74.44,0,0,0-11.72-11l3.62-16.42A90.23,90.23,0,0,0,261.33,20l-11.74,12.2A75.45,75.45,0,0,0,234,28.59l-5.16-16.31a89,89,0,0,0-13.75.36l-4.13,16.67A74.55,74.55,0,0,0,195.56,34l-12.69-11.6c-2,1-4,2.16-6,3.37s-3.84,2.52-5.67,3.86L176,46.11a74,74,0,0,0-11,11.71l-16.77-3.69a90,90,0,0,0-6.43,12.16l12.33,11.86a75.36,75.36,0,0,0-3.65,15.61l-16.14,5.12a89.63,89.63,0,0,0,.54,13.88l16.32,4a74.37,74.37,0,0,0,4.64,15.37l-11.13,12.19c1,1.86,2,3.7,3.13,5.52,1.38,2.22,2.86,4.35,4.4,6.41L168,151.75a73.88,73.88,0,0,0,11.71,11l-3.48,15.81a91.54,91.54,0,0,0,12.67,6.64l11.14-11.58a75.38,75.38,0,0,0,15.61,3.66l4.8,15.14a89.46,89.46,0,0,0,14.44-.51l3.8-15.36a74.37,74.37,0,0,0,15.37-4.64l11.6,10.6c2.14-1.1,4.26-2.27,6.33-3.56s4.07-2.67,6-4.1l-4.35-15.09a74.91,74.91,0,0,0,11-11.72l15.45,3.41a90.24,90.24,0,0,0,6.86-12.72l-11.45-11a75.38,75.38,0,0,0,3.66-15.61Zm-90,41.8a46.7,46.7,0,1,1,46.7-46.7A46.7,46.7,0,0,1,224.44,149Z"/>
      <path class="cls-7" d="M461,1.1,460.62,0H416.94L326.48,240.37l-.87,2.3H371l23.92-63.08h86l24.36,63.08H552Zm4.73,136.8H409.62l28.07-82.62Z"/>
      <path class="cls-8" d="M458.12,14.52l-.36-1h-38l-78.62,227-.75,2.18h39.45l20.79-59.58h74.72l21.17,59.58h40.57Zm4.12,129.2h-48.8l24.4-78Z"/>
      <path class="cls-9" d="M915,89.87c-9-12.29-24.25-18.52-45.31-18.52-17.85,0-38.21,5.57-60.5,16.56-10.13-11-24.75-16.56-43.48-16.56-13.21,0-28.06,3.4-44.17,10.14l-6,2.57-2.65,1-.83-12.82H674.87V242.67h44.74V118.61a218.12,218.12,0,0,1,21.1-6.71c16.48-4,26.47-1.77,32.61,6.32,4.24,5.62,6.39,13.69,6.39,24V242.67h45.17V149.18c0-11.8-.92-21.69-2.74-29.44a182.65,182.65,0,0,1,20.63-7.42A61,61,0,0,1,858.85,110c8.2,0,14.24,2.69,18.44,8.23s6.4,13.7,6.4,24V242.67h44.73V147.43C928.42,121.38,923.92,102,915,89.87Z"/>
      <path class="cls-10" d="M913.29,99.47c-8.87-10.72-23.88-16.15-44.61-16.15-17.58,0-37.62,4.86-59.57,14.44-10-9.59-24.37-14.44-42.8-14.44-13,0-27.63,3-43.49,8.84l-5.91,2.24-2.61.85-.81-11.18H676.83V232.7h44V124.53c8.82-2.82,15.81-4.78,20.78-5.86,16.23-3.5,26.06-1.54,32.11,5.52,4.17,4.9,6.29,11.94,6.29,20.92V232.7h44.47V151.18c0-10.29-.9-18.91-2.7-25.67A198.28,198.28,0,0,1,842.14,119,67.39,67.39,0,0,1,858,117c8.07,0,14,2.35,18.15,7.18s6.3,11.94,6.3,20.92V232.7h44v-83C926.46,126.94,922,110.06,913.29,99.47Z"/>
      <path class="cls-11" d="M1089.35,93.6c-15.78-15.92-37.19-24-63.64-24s-47.92,8-63.84,23.77-24,37.63-24,64.94c0,16.75,3.66,31.95,10.87,45.19A80.37,80.37,0,0,0,979.6,235c13,7.66,28.34,11.54,45.67,11.54s32.83-3.8,46.09-11.31a80.47,80.47,0,0,0,31.11-31.35c7.06-13.24,10.64-28.73,10.64-46C1113.11,131.15,1105.12,109.52,1089.35,93.6Zm-22.71,64.71c0,16.05-3.82,28.86-11.36,38.08s-17.55,13.73-30,13.73a36.42,36.42,0,0,1-29.35-14c-7.68-9.35-11.58-22.08-11.58-37.85s3.9-28.66,11.6-38.31,17.47-14.37,29.33-14.37,21.83,4.84,29.57,14.39S1066.64,142.55,1066.64,158.31Z"/>
      <path class="cls-12" d="M1082.5,104.74c-14.09-14.21-33.2-21.42-56.81-21.42s-42.78,7.13-57,21.22-21.42,33.59-21.42,58c0,15,3.26,28.53,9.7,40.35A71.74,71.74,0,0,0,984.52,231c11.58,6.84,25.3,10.31,40.78,10.31s29.3-3.4,41.14-10.1a71.87,71.87,0,0,0,27.78-28c6.3-11.82,9.5-25.65,9.5-41.11C1103.72,138.26,1096.58,119,1082.5,104.74Zm-20.27,57.77c0,14.33-3.41,25.77-10.14,34s-15.67,12.26-26.79,12.26a32.53,32.53,0,0,1-26.21-12.45c-6.86-8.35-10.33-19.72-10.33-33.8s3.48-25.59,10.35-34.2,15.59-12.83,26.19-12.83,19.48,4.32,26.4,12.84S1062.23,148.44,1062.23,162.51Z"/>
      <path class="cls-13" d="M1274.46,109.5a55.74,55.74,0,0,0-16.39-25.12c-9.27-8.07-23.11-12.17-41.14-12.17-18.24,0-37.12,4.5-56.16,13.37V72.21h-38.2V242.67h44.73V119.49c16-5.73,29.06-8.64,38.76-8.64,9.28,0,16.39,2.81,21.1,8.32s7.21,13.66,7.21,23.92v99.58h44.73V148.31C1279.1,132.25,1277.54,119.19,1274.46,109.5Z"/>
      <path class="cls-14" d="M1263.35,122a47.28,47.28,0,0,0-13.91-21.33c-7.87-6.86-19.63-10.33-34.94-10.33-15.49,0-31.52,3.82-47.68,11.35V90.37h-32.45V235.12h38V130.51c13.61-4.86,24.68-7.33,32.91-7.33,7.88,0,13.92,2.38,17.92,7.07s6.12,11.59,6.12,20.3v84.57h38V155C1267.3,141.35,1266,130.26,1263.35,122Z"/>
      <path class="cls-15" d="M1490,85C1478,74.79,1458,69.6,1430.77,69.6A217.21,217.21,0,0,0,1402,72c-11.52,1.6-21.21,3.74-28.82,6.38l-1.14.4v34.13l2.31-.88c5.94-2.26,13.94-4.13,23.78-5.56a186.13,186.13,0,0,1,26.08-2.16c11.08,0,19.23.85,24.26,2.52a15.41,15.41,0,0,1,9.88,8.72c1.81,3.61,2.77,10.28,2.86,19.81l-31,1.66c-22.58,1.17-40.24,6.48-52.49,15.78-12.43,9.43-18.73,22.7-18.73,39.42,0,15.25,5.61,27.76,16.69,37.18s25.86,14.12,44.17,14.12,34.28-4.71,47.12-14l.39,13.13h40.77V135.26C1508.17,112.22,1502,95.32,1490,85ZM1463,200c-6.42,3.69-11.76,6.1-15.9,7.16a68.5,68.5,0,0,1-16.76,1.69c-8.28,0-14.81-1.78-19.41-5.3s-6.73-8.14-6.73-14.31,2.31-10.64,7.07-13.81c5-3.3,13-5.4,24-6.25l27.75-2Z"/>
      <path class="cls-16" d="M1485.83,90.5C1474.7,81,1456.25,76.21,1431,76.21a200.05,200.05,0,0,0-26.63,2.24,144.2,144.2,0,0,0-26.71,5.91l-1.06.37v31.63l2.14-.81c5.51-2.09,12.92-3.83,22-5.15a171.88,171.88,0,0,1,24.17-2c10.27,0,17.83.78,22.48,2.33a14.31,14.31,0,0,1,9.17,8.08c1.67,3.35,2.56,9.53,2.65,18.37l-28.74,1.53c-20.92,1.08-37.29,6-48.64,14.63-11.52,8.74-17.36,21-17.36,36.53,0,14.13,5.2,25.73,15.47,34.46s24,13.08,40.94,13.08,31.76-4.36,43.67-13l.36,12.17h37.78V137.06C1502.71,115.71,1497,100,1485.83,90.5Zm-25,106.53c-5.95,3.42-10.9,5.65-14.74,6.63a63.83,63.83,0,0,1-15.54,1.57c-7.67,0-13.72-1.66-18-4.92s-6.24-7.54-6.24-13.26,2.14-9.86,6.56-12.8c4.59-3.06,12.06-5,22.22-5.78l25.72-1.9Z"/>
      <g>
        <path class="cls-17" d="M460.4,298.09a2.31,2.31,0,1,1,2.31,2.34A2.08,2.08,0,0,1,460.4,298.09Zm1.29,5.7h2.07l.86,19.52h-3.83Z"/>
        <path class="cls-18" d="M473,288.56h4.53L486,309.72h.23l8.63-21.16h4.41L500,315.5h-3.39l-.55-21.75h-.27L487.49,314h-3l-8.24-20.27H476l-.67,21.75h-3.2Z"/>
        <path class="cls-19" d="M506.73,292.66a1.79,1.79,0,0,1,2-2,2,2,0,1,1,0,3.9A1.79,1.79,0,0,1,506.73,292.66Zm.47,4.33h3V315.5h-3Z"/>
        <path class="cls-20" d="M525.58,299.18a9.58,9.58,0,0,0-6,2.73V315.5h-3V297H519l.35,2.66a9,9,0,0,1,6-3.08Z"/>
        <path class="cls-21" d="M542.64,302.11V315.5h-2.46l-.32-2.26a9.73,9.73,0,0,1-6.44,2.69,4.9,4.9,0,0,1-5.23-5.15c0-4.42,4.14-6.87,11.44-6.87V302c0-1.83-1.17-2.93-3.67-2.93a13.36,13.36,0,0,0-6.09,1.64l-.78-2.18a15.92,15.92,0,0,1,7.34-2C540.21,296.57,542.64,298.71,542.64,302.11Zm-3,9V306c-5.35,0-8.36,1.6-8.36,4.45a2.91,2.91,0,0,0,3.13,3.09A8,8,0,0,0,539.63,311.09Z"/>
        <path class="cls-22" d="M563.71,287v28.5h-2.38l-.35-2.42a7,7,0,0,1-6,2.85c-4.84,0-7.57-3.59-7.57-9.57s2.81-9.79,7.61-9.79a7.7,7.7,0,0,1,5.7,2.38V287Zm-3,23.74v-9a6.32,6.32,0,0,0-5-2.58c-3.24,0-5.2,2.66-5.2,7,0,4.8,2.15,7.1,5.31,7.1A6,6,0,0,0,560.74,310.74Z"/>
        <path class="cls-23" d="M577.67,306.25c0-6.21,3.09-9.68,8.48-9.68a8.06,8.06,0,0,1,5.93,2.14l-.66,2.7a6.59,6.59,0,0,0-5-2.23c-3.63,0-5.66,2.54-5.66,7.07s2,7.06,5.58,7.06a7.31,7.31,0,0,0,5.51-2.57l.66,2.65a8.28,8.28,0,0,1-6.36,2.54C580.76,315.93,577.67,312.45,577.67,306.25Z"/>
        <path class="cls-24" d="M611.71,297V315.5h-2.38l-.31-2.66a9,9,0,0,1-6.64,3.09c-3.24,0-5.35-2-5.35-5.15V297h3v12.93a3.18,3.18,0,0,0,3.43,3.32,7.5,7.5,0,0,0,5.31-2.82V297Z"/>
        <path class="cls-25" d="M631,302.11V315.5h-2.46l-.31-2.26a9.77,9.77,0,0,1-6.44,2.69,4.9,4.9,0,0,1-5.24-5.15c0-4.42,4.14-6.87,11.44-6.87V302c0-1.83-1.17-2.93-3.67-2.93a13.39,13.39,0,0,0-6.09,1.64l-.78-2.18a16,16,0,0,1,7.34-2C628.53,296.57,631,298.71,631,302.11Zm-3,9V306c-5.34,0-8.35,1.6-8.35,4.45a2.9,2.9,0,0,0,3.12,3.09A8,8,0,0,0,627.94,311.09Zm-3.78-16h-2.31l3.75-5.93,3.36.86Z"/>
        <path class="cls-26" d="M651.75,301.76V315.5h-3V302.58a3.18,3.18,0,0,0-3.43-3.32,7.64,7.64,0,0,0-5.31,2.81V315.5h-3V297h2.38l.31,2.7a9.09,9.09,0,0,1,6.64-3.12C649.68,296.57,651.75,298.56,651.75,301.76Z"/>
        <path class="cls-27" d="M683,306.29c0,6-2.89,9.64-7.61,9.64a7,7,0,0,1-6-2.85l-.35,2.42h-2.38V287h3v12a7.62,7.62,0,0,1,5.74-2.42C680.2,296.57,683,300.35,683,306.29Zm-3.08,0c0-4.45-2-7.11-5.24-7.11a6.18,6.18,0,0,0-5,2.66v8.9a6,6,0,0,0,5,2.57C677.93,313.31,679.93,310.82,679.93,306.29Z"/>
        <path class="cls-28" d="M702.6,297V315.5h-2.38l-.31-2.66a9,9,0,0,1-6.64,3.09c-3.24,0-5.35-2-5.35-5.15V297h3v12.93a3.18,3.18,0,0,0,3.43,3.32,7.5,7.5,0,0,0,5.31-2.82V297Z"/>
        <path class="cls-29" d="M707.75,306.29c0-6.25,3.16-9.72,8.31-9.72s7.38,3.12,7.38,8.7c0,.31,0,.86,0,1.25H710.83c0,4.53,2.11,6.79,5.74,6.79a8.3,8.3,0,0,0,6-2.49l.39,2.61a9.35,9.35,0,0,1-6.79,2.5C710.83,315.93,707.75,312.45,707.75,306.29Zm12.57-1.88c0-3.32-1.45-5.23-4.3-5.23-3.24,0-4.8,2.19-5.11,5.23Z"/>
        <path class="cls-30" d="M743.26,301.76V315.5h-3V302.58a3.19,3.19,0,0,0-3.44-3.32,7.66,7.66,0,0,0-5.31,2.81V315.5h-3V297H731l.31,2.7a9.09,9.09,0,0,1,6.64-3.12C741.2,296.57,743.26,298.56,743.26,301.76Z"/>
        <path class="cls-31" d="M748.06,306.25c0-6.21,3.08-9.68,8.51-9.68s8.55,3.47,8.55,9.68-3.09,9.68-8.55,9.68S748.06,312.45,748.06,306.25Zm14,0c0-4.57-2-7.07-5.46-7.07s-5.51,2.5-5.51,7.07,2,7.06,5.51,7.06S762.07,310.82,762.07,306.25Z"/>
        <path class="cls-32" d="M793.68,297l-7.14,19.49c-1.4,4-2.81,6.83-6.4,6.83a6.6,6.6,0,0,1-1.56-.2l-.43-2.57a5.31,5.31,0,0,0,1.28.15c1.76,0,2.82-.62,4.14-4.53l-7-19.17h3.31l5.43,15.43L790.6,297Z"/>
        <path class="cls-33" d="M805.07,306.25c0-6.21,3.09-9.68,8.48-9.68a8.06,8.06,0,0,1,5.93,2.14l-.66,2.7a6.59,6.59,0,0,0-5-2.23c-3.63,0-5.66,2.54-5.66,7.07s2,7.06,5.58,7.06a7.31,7.31,0,0,0,5.51-2.57l.66,2.65a8.28,8.28,0,0,1-6.36,2.54C808.16,315.93,805.07,312.45,805.07,306.25Z"/>
        <path class="cls-34" d="M839.11,297V315.5h-2.38l-.31-2.66a9,9,0,0,1-6.64,3.09c-3.24,0-5.35-2-5.35-5.15V297h3v12.93a3.18,3.18,0,0,0,3.43,3.32,7.5,7.5,0,0,0,5.31-2.82V297Z"/>
        <path class="cls-35" d="M858.35,302.11V315.5h-2.46l-.31-2.26a9.77,9.77,0,0,1-6.44,2.69,4.9,4.9,0,0,1-5.24-5.15c0-4.42,4.14-6.87,11.44-6.87V302c0-1.83-1.17-2.93-3.67-2.93a13.36,13.36,0,0,0-6.09,1.64l-.78-2.18a16,16,0,0,1,7.34-2C855.93,296.57,858.35,298.71,858.35,302.11Zm-3,9V306c-5.35,0-8.35,1.6-8.35,4.45a2.9,2.9,0,0,0,3.12,3.09A8,8,0,0,0,855.34,311.09Zm-3.78-16h-2.31l3.75-5.93,3.36.86Z"/>
        <path class="cls-36" d="M879.15,301.76V315.5h-3V302.58a3.18,3.18,0,0,0-3.43-3.32,7.64,7.64,0,0,0-5.31,2.81V315.5h-3V297h2.38l.31,2.7a9.09,9.09,0,0,1,6.64-3.12C877.08,296.57,879.15,298.56,879.15,301.76Z"/>
        <path class="cls-37" d="M909,287v28.5h-2.38l-.35-2.42a7,7,0,0,1-6,2.85c-4.84,0-7.58-3.59-7.58-9.57s2.81-9.79,7.62-9.79a7.7,7.7,0,0,1,5.7,2.38V287Zm-3,23.74v-9a6.34,6.34,0,0,0-5-2.58c-3.24,0-5.19,2.66-5.19,7,0,4.8,2.14,7.1,5.31,7.1A6,6,0,0,0,906.08,310.74Z"/>
        <path class="cls-38" d="M914.19,306.29c0-6.25,3.16-9.72,8.31-9.72s7.38,3.12,7.38,8.7c0,.31,0,.86,0,1.25H917.27c0,4.53,2.11,6.79,5.74,6.79a8.3,8.3,0,0,0,6-2.49l.39,2.61a9.35,9.35,0,0,1-6.79,2.5C917.27,315.93,914.19,312.45,914.19,306.29Zm12.57-1.88c0-3.32-1.44-5.23-4.29-5.23-3.25,0-4.81,2.19-5.12,5.23Z"/>
        <path class="cls-39" d="M935,287h3v28.5h-3Z"/>
        <path class="cls-40" d="M944,292.66a1.79,1.79,0,0,1,2-2,2,2,0,1,1,0,3.9A1.79,1.79,0,0,1,944,292.66Zm.47,4.33h3V315.5h-3Z"/>
        <path class="cls-41" d="M952.59,306.25c0-6.21,3.08-9.68,8.47-9.68a8,8,0,0,1,5.93,2.14l-.66,2.7a6.57,6.57,0,0,0-5-2.23c-3.64,0-5.67,2.54-5.67,7.07s2,7.06,5.59,7.06a7.29,7.29,0,0,0,5.5-2.57l.67,2.65a8.3,8.3,0,0,1-6.37,2.54C955.67,315.93,952.59,312.45,952.59,306.25Z"/>
        <path class="cls-42" d="M971.67,292.66a1.79,1.79,0,0,1,2-2,2,2,0,1,1,0,3.9A1.79,1.79,0,0,1,971.67,292.66Zm.47,4.33h3V315.5h-3Z"/>
        <path class="cls-43" d="M980.26,306.25c0-6.21,3.08-9.68,8.51-9.68s8.55,3.47,8.55,9.68-3.09,9.68-8.55,9.68S980.26,312.45,980.26,306.25Zm14,0c0-4.57-1.95-7.07-5.46-7.07s-5.51,2.5-5.51,7.07,2,7.06,5.51,7.06S994.27,310.82,994.27,306.25Z"/>
        <path class="cls-44" d="M1001,314.21l.31-2.65a14.52,14.52,0,0,0,6.72,1.79c2.34,0,3.86-.9,3.86-2.77s-2.22-2.73-4.6-3.44c-2.85-.81-6-1.95-6-5.38s2.85-5.19,6.41-5.19a15.16,15.16,0,0,1,6,1.28l-.24,2.5a16.54,16.54,0,0,0-5.58-1.33c-2.07,0-3.59,1-3.59,2.62,0,1.8,2,2.34,4.26,3,3,.82,6.24,2.07,6.24,5.62,0,3.71-2.77,5.66-7.1,5.66A12.92,12.92,0,0,1,1001,314.21Z"/>
        <path class="cls-45" d="M1018.15,306.25c0-6.21,3.09-9.68,8.51-9.68s8.55,3.47,8.55,9.68-3.08,9.68-8.55,9.68S1018.15,312.45,1018.15,306.25Zm14,0c0-4.57-2-7.07-5.47-7.07s-5.5,2.5-5.5,7.07,1.95,7.06,5.5,7.06S1032.17,310.82,1032.17,306.25Z"/>
        <path class="cls-46" d="M1047.85,306.29c0-6.25,3.16-9.72,8.32-9.72s7.37,3.12,7.37,8.7c0,.31,0,.86,0,1.25h-12.57c0,4.53,2.11,6.79,5.74,6.79a8.3,8.3,0,0,0,6-2.49l.39,2.61a9.35,9.35,0,0,1-6.79,2.5C1050.93,315.93,1047.85,312.45,1047.85,306.29Zm12.57-1.88c0-3.32-1.44-5.23-4.29-5.23-3.24,0-4.81,2.19-5.12,5.23Z"/>
        <path class="cls-47" d="M1067.21,314.21l.31-2.65a14.48,14.48,0,0,0,6.71,1.79c2.35,0,3.87-.9,3.87-2.77s-2.23-2.73-4.61-3.44c-2.85-.81-6-1.95-6-5.38s2.85-5.19,6.4-5.19a15.16,15.16,0,0,1,6,1.28l-.23,2.5a16.54,16.54,0,0,0-5.58-1.33c-2.07,0-3.59,1-3.59,2.62,0,1.8,2,2.34,4.25,3,3,.82,6.25,2.07,6.25,5.62,0,3.71-2.77,5.66-7.11,5.66A12.88,12.88,0,0,1,1067.21,314.21Z"/>
        <path class="cls-48" d="M1095.85,288.56h3.44v11.87h14V288.56h3.44V315.5h-3.44V303.32h-14V315.5h-3.44Z"/>
        <path class="cls-49" d="M1136.91,302.11V315.5h-2.46l-.31-2.26a9.77,9.77,0,0,1-6.44,2.69,4.9,4.9,0,0,1-5.23-5.15c0-4.42,4.14-6.87,11.44-6.87V302c0-1.83-1.18-2.93-3.67-2.93a13.36,13.36,0,0,0-6.09,1.64l-.78-2.18a15.91,15.91,0,0,1,7.33-2C1134.49,296.57,1136.91,298.71,1136.91,302.11Zm-3,9V306c-5.35,0-8.36,1.6-8.36,4.45a2.9,2.9,0,0,0,3.12,3.09A8,8,0,0,0,1133.91,311.09Z"/>
        <path class="cls-50" d="M1159.35,306.29c0,6-2.89,9.64-7.61,9.64a7,7,0,0,1-6-2.85l-.36,2.42H1143V287h3v12a7.62,7.62,0,0,1,5.74-2.42C1156.54,296.57,1159.35,300.35,1159.35,306.29Zm-3.08,0c0-4.45-2-7.11-5.23-7.11a6.18,6.18,0,0,0-5,2.66v8.9a6,6,0,0,0,5,2.57C1154.28,313.31,1156.27,310.82,1156.27,306.29Z"/>
        <path class="cls-51" d="M1164,292.66a1.79,1.79,0,0,1,2-2,2,2,0,1,1,0,3.9A1.79,1.79,0,0,1,1164,292.66Zm.47,4.33h3V315.5h-3Z"/>
        <path class="cls-52" d="M1182.22,314.87a6.82,6.82,0,0,1-3.09.79c-2.92,0-4.56-1.68-4.56-4.65V299.57h-2.89l.74-2.58h2.15v-6.67h3V297h3.75v2.58h-3.75v11.36c0,1.37.71,2.15,2,2.15a5.52,5.52,0,0,0,1.91-.27Z"/>
        <path class="cls-53" d="M1199.35,302.11V315.5h-2.46l-.31-2.26a9.77,9.77,0,0,1-6.44,2.69,4.9,4.9,0,0,1-5.23-5.15c0-4.42,4.13-6.87,11.44-6.87V302c0-1.83-1.18-2.93-3.67-2.93a13.36,13.36,0,0,0-6.09,1.64l-.79-2.18a16,16,0,0,1,7.34-2C1196.93,296.57,1199.35,298.71,1199.35,302.11Zm-3,9V306c-5.35,0-8.36,1.6-8.36,4.45a2.9,2.9,0,0,0,3.12,3.09A8,8,0,0,0,1196.35,311.09Z"/>
        <path class="cls-54" d="M1214.41,299.18a9.63,9.63,0,0,0-6,2.73V315.5h-3V297h2.38l.36,2.66a9,9,0,0,1,6-3.08Z"/>
        <path class="cls-55" d="M684.8,330.93h3v28.5h-3Z"/>
        <path class="cls-56" d="M692.91,350.18c0-6.21,3.09-9.68,8.52-9.68S710,344,710,350.18s-3.09,9.68-8.55,9.68S692.91,356.39,692.91,350.18Zm14,0c0-4.57-1.95-7.07-5.47-7.07s-5.5,2.5-5.5,7.07,1.95,7.07,5.5,7.07S706.93,354.75,706.93,350.18Z"/>
        <path class="cls-57" d="M713.64,358.14l.31-2.65a14.37,14.37,0,0,0,6.71,1.8c2.35,0,3.87-.9,3.87-2.78s-2.23-2.73-4.61-3.43c-2.85-.82-6-1.95-6-5.39s2.85-5.19,6.4-5.19a15.22,15.22,0,0,1,6,1.29l-.24,2.5a16.31,16.31,0,0,0-5.58-1.33c-2.07,0-3.59,1-3.59,2.61,0,1.8,2,2.35,4.25,3,3,.82,6.25,2.07,6.25,5.62,0,3.71-2.77,5.66-7.11,5.66A12.88,12.88,0,0,1,713.64,358.14Z"/>
        <path class="cls-58" d="M755.63,345.69v13.74h-3V346.51a3.21,3.21,0,0,0-3.44-3.32,7.62,7.62,0,0,0-5.31,2.81v13.43h-3v-28.5h3v12.34a9.16,9.16,0,0,1,6.37-2.77C753.53,340.5,755.63,342.49,755.63,345.69Z"/>
        <path class="cls-59" d="M760.43,350.22c0-6.25,3.16-9.72,8.31-9.72s7.38,3.12,7.38,8.71c0,.31,0,.85,0,1.24H763.51c0,4.53,2.11,6.8,5.74,6.8a8.3,8.3,0,0,0,6-2.5l.39,2.61a9.31,9.31,0,0,1-6.79,2.5C763.51,359.86,760.43,356.39,760.43,350.22ZM773,348.35c0-3.32-1.44-5.24-4.29-5.24-3.25,0-4.81,2.19-5.12,5.24Z"/>
        <path class="cls-60" d="M790.21,343.11a9.59,9.59,0,0,0-6,2.74v13.58h-3v-18.5h2.38l.35,2.65a9,9,0,0,1,6-3.08Z"/>
        <path class="cls-61" d="M820.85,345.69v13.74h-3V346.51a3.17,3.17,0,0,0-3.39-3.32,7.59,7.59,0,0,0-5.35,2.85v13.39h-3V346.51a3.18,3.18,0,0,0-3.43-3.32,7.68,7.68,0,0,0-5.31,2.81v13.43h-3v-18.5h2.38l.31,2.69a9.09,9.09,0,0,1,6.64-3.12c2.58,0,4.41,1.21,5.08,3.28a8.51,8.51,0,0,1,6.63-3.28C818.78,340.5,820.85,342.49,820.85,345.69Z"/>
        <path class="cls-62" d="M840.05,346v13.39h-2.46l-.32-2.26a9.68,9.68,0,0,1-6.44,2.69,4.9,4.9,0,0,1-5.23-5.15c0-4.41,4.14-6.87,11.44-6.87V346c0-1.84-1.17-2.93-3.67-2.93a13.24,13.24,0,0,0-6.09,1.64l-.78-2.19a15.92,15.92,0,0,1,7.34-2C837.63,340.5,840.05,342.65,840.05,346Zm-3,9v-5.11c-5.35,0-8.35,1.6-8.35,4.45a2.9,2.9,0,0,0,3.12,3.08A8,8,0,0,0,837,355Z"/>
        <path class="cls-63" d="M860.85,345.69v13.74h-3V346.51a3.19,3.19,0,0,0-3.44-3.32,7.68,7.68,0,0,0-5.3,2.81v13.43h-3v-18.5h2.38l.31,2.69a9.09,9.09,0,0,1,6.64-3.12C858.78,340.5,860.85,342.49,860.85,345.69Z"/>
        <path class="cls-64" d="M865.64,350.18c0-6.21,3.09-9.68,8.51-9.68s8.55,3.47,8.55,9.68-3.08,9.68-8.55,9.68S865.64,356.39,865.64,350.18Zm14,0c0-4.57-2-7.07-5.47-7.07s-5.5,2.5-5.5,7.07,1.95,7.07,5.5,7.07S879.66,354.75,879.66,350.18Z"/>
        <path class="cls-65" d="M886.36,358.14l.32-2.65a14.34,14.34,0,0,0,6.71,1.8c2.34,0,3.87-.9,3.87-2.78s-2.23-2.73-4.61-3.43c-2.85-.82-6-1.95-6-5.39s2.85-5.19,6.4-5.19a15.17,15.17,0,0,1,6,1.29l-.23,2.5a16.42,16.42,0,0,0-5.59-1.33c-2.06,0-3.59,1-3.59,2.61,0,1.8,2,2.35,4.26,3,3,.82,6.24,2.07,6.24,5.62,0,3.71-2.77,5.66-7.1,5.66A13,13,0,0,1,886.36,358.14Z"/>
        <path class="cls-66" d="M910.91,367.05l-.43-2.58a7.63,7.63,0,0,0,1.44.16c1.25,0,2-.78,2-2.15V340.93h3v21.55c0,3.08-1.64,4.76-4.68,4.76A4.49,4.49,0,0,1,910.91,367.05Zm2.54-30.45a1.8,1.8,0,0,1,2-2,2,2,0,1,1,0,3.91A1.79,1.79,0,0,1,913.45,336.6Z"/>
        <path class="cls-67" d="M937.84,340.93v18.5h-2.38l-.31-2.65a9.05,9.05,0,0,1-6.64,3.08c-3.24,0-5.35-2-5.35-5.15V340.93h3v12.92a3.19,3.19,0,0,0,3.44,3.32,7.52,7.52,0,0,0,5.31-2.81V340.93Z"/>
        <path class="cls-68" d="M959,345.69v13.74h-3V346.51a3.19,3.19,0,0,0-3.44-3.32,7.7,7.7,0,0,0-5.31,2.81v13.43h-3v-18.5h2.38l.31,2.69a9.09,9.09,0,0,1,6.64-3.12C956.93,340.5,959,342.49,959,345.69Z"/>
        <path class="cls-69" d="M973,358.81a6.77,6.77,0,0,1-3.08.78c-2.93,0-4.57-1.68-4.57-4.65V343.51h-2.89l.74-2.58h2.15v-6.68h3v6.68H972v2.58h-3.75v11.36c0,1.36.7,2.14,2,2.14a5.46,5.46,0,0,0,1.91-.27Z"/>
        <path class="cls-70" d="M975.5,350.18c0-6.21,3.08-9.68,8.51-9.68s8.55,3.47,8.55,9.68-3.09,9.68-8.55,9.68S975.5,356.39,975.5,350.18Zm14,0c0-4.57-2-7.07-5.46-7.07s-5.51,2.5-5.51,7.07,2,7.07,5.51,7.07S989.51,354.75,989.51,350.18Z"/>
        <path class="cls-71" d="M996.22,358.14l.31-2.65a14.38,14.38,0,0,0,6.72,1.8c2.34,0,3.86-.9,3.86-2.78s-2.22-2.73-4.61-3.43c-2.85-.82-6-1.95-6-5.39s2.85-5.19,6.4-5.19a15.18,15.18,0,0,1,6,1.29l-.24,2.5a16.31,16.31,0,0,0-5.58-1.33c-2.07,0-3.59,1-3.59,2.61,0,1.8,2,2.35,4.25,3,3,.82,6.25,2.07,6.25,5.62,0,3.71-2.77,5.66-7.1,5.66A12.92,12.92,0,0,1,996.22,358.14Z"/>
        <path class="cls-72" d="M1022.21,350.22c0-6.25,3.16-9.72,8.32-9.72s7.37,3.12,7.37,8.71c0,.31,0,.85,0,1.24h-12.58c0,4.53,2.11,6.8,5.74,6.8a8.34,8.34,0,0,0,6-2.5l.39,2.61a9.34,9.34,0,0,1-6.8,2.5C1025.29,359.86,1022.21,356.39,1022.21,350.22Zm12.57-1.87c0-3.32-1.44-5.24-4.29-5.24-3.24,0-4.81,2.19-5.12,5.24Z"/>
        <path class="cls-73" d="M1057.73,345.69v13.74h-3V346.51a3.18,3.18,0,0,0-3.43-3.32A7.68,7.68,0,0,0,1046,346v13.43h-3v-18.5h2.38l.31,2.69a9.09,9.09,0,0,1,6.64-3.12C1055.66,340.5,1057.73,342.49,1057.73,345.69Z"/>
        <path class="cls-74" d="M1085.75,346v13.39h-2.46l-.31-2.26a9.72,9.72,0,0,1-6.44,2.69,4.9,4.9,0,0,1-5.24-5.15c0-4.41,4.14-6.87,11.44-6.87V346c0-1.84-1.17-2.93-3.67-2.93a13.27,13.27,0,0,0-6.09,1.64l-.78-2.19a16,16,0,0,1,7.34-2C1083.33,340.5,1085.75,342.65,1085.75,346Zm-3,9v-5.11c-5.35,0-8.35,1.6-8.35,4.45a2.9,2.9,0,0,0,3.12,3.08A8,8,0,0,0,1082.74,355Z"/>
        <path class="cls-75" d="M1100.81,343.11a9.62,9.62,0,0,0-6,2.74v13.58h-3v-18.5h2.38l.35,2.65a9,9,0,0,1,6-3.08Z"/>
        <path class="cls-76" d="M1131.45,345.69v13.74h-3V346.51a3.18,3.18,0,0,0-3.4-3.32,7.59,7.59,0,0,0-5.35,2.85v13.39h-3V346.51a3.18,3.18,0,0,0-3.43-3.32A7.68,7.68,0,0,0,1108,346v13.43h-3v-18.5h2.38l.32,2.69a9.07,9.07,0,0,1,6.63-3.12c2.58,0,4.41,1.21,5.08,3.28a8.53,8.53,0,0,1,6.63-3.28C1129.38,340.5,1131.45,342.49,1131.45,345.69Z"/>
        <path class="cls-77" d="M1136.24,350.18c0-6.21,3.09-9.68,8.51-9.68s8.55,3.47,8.55,9.68-3.08,9.68-8.55,9.68S1136.24,356.39,1136.24,350.18Zm14,0c0-4.57-2-7.07-5.47-7.07s-5.5,2.5-5.5,7.07,2,7.07,5.5,7.07S1150.26,354.75,1150.26,350.18Z"/>
        <path class="cls-78" d="M1173.13,345.69v13.74h-3V346.51a3.19,3.19,0,0,0-3.44-3.32,7.68,7.68,0,0,0-5.3,2.81v13.43h-3v-18.5h2.38l.31,2.69a9.09,9.09,0,0,1,6.64-3.12C1171.06,340.5,1173.13,342.49,1173.13,345.69Z"/>
        <path class="cls-79" d="M1182.14,333.12l3.35.86-4.8,5.08h-2.3Zm-2.89,7.81h3v18.5h-3Z"/>
        <path class="cls-80" d="M1201.62,346v13.39h-2.47l-.31-2.26a9.68,9.68,0,0,1-6.44,2.69,4.9,4.9,0,0,1-5.23-5.15c0-4.41,4.14-6.87,11.44-6.87V346c0-1.84-1.17-2.93-3.67-2.93a13.24,13.24,0,0,0-6.09,1.64l-.78-2.19a15.92,15.92,0,0,1,7.34-2C1199.19,340.5,1201.62,342.65,1201.62,346Zm-3,9v-5.11c-5.35,0-8.36,1.6-8.36,4.45a2.91,2.91,0,0,0,3.13,3.08A8,8,0,0,0,1198.61,355Z"/>
        <path class="cls-81" d="M1207.66,357.56a2.31,2.31,0,1,1,2.3,2.3A2.06,2.06,0,0,1,1207.66,357.56Zm.39-25.06h3.83l-.86,19.36H1209Z"/>
      </g>
      <g>
        <path class="cls-82" d="M1270.09,317.61c-3.17,2.85-5.36-1.36-2.27-2.61,7.17-3,9.12-17.5,1.6-20.84-4.94-2.16-12.66,1-19.16,5.88-6,4.45-11.94,12.07-8.49,19,2.68,5.46,8.59,11.27,11.93,17.5a74.75,74.75,0,0,1,21.53-9.47c3.45-.83,1.88,1.4.35,1.4-5.84,1.49-14,5.18-21,9.74,2,4.28,2.41,8.69-.38,13.25a16.67,16.67,0,0,1-9.22,7.34c-7,2.23-7.69-4.24-5.18-9,2.33-4.42,7-8.7,12.56-12.42-3.17-6.4-10.68-12-13.57-18.34-3.9-8.35,2.16-16.7,9.29-21.7,8-5.61,18.61-8,24.07-3.27C1278.12,299.24,1276,312.39,1270.09,317.61Zm-17,21.53c-5.46,3.69-10,7.9-12.28,11.86s-1.25,8.32,4.11,5.29a19.63,19.63,0,0,0,6.54-6.09C1254.08,346.06,1254.22,342.48,1253.07,339.14Z"/>
        <path class="cls-83" d="M1275.21,334.24c-1.11-.56-1.39-2.09-1.22-3.52a11.1,11.1,0,0,1,12.25-9.39,5.16,5.16,0,0,1,4.21,2.71c.73,1.57-1.25,1.95-1.91.28a3.45,3.45,0,0,0-2.79-1.91c-2.85-.28-6.19,3-7.48,6.16-.28.62-1,2.47-.48,3.13.55.83,6.4-5.64,7.09-6.34,1.67-1.56,3.59-.83,3.1.7-1.57,4.73-.63,6.75,1.32,7.2,3.34.73,9.78-3.23,12.28-6.23.94-1.32,2.54-.66,1.11.87-3.09,3.66-8.94,7.35-14,6.79-4.17-.38-5.6-4-3.65-7.79C1283.49,328.11,1279,336.18,1275.21,334.24Z"/>
        <path class="cls-84" d="M1302.61,347.53c3.51,1,10.4-8.11,14.71-15.35,1.08-1.81,2.09-3.58,3.17-5.15s2.26-.69,1,1-2.29,3.72-3.51,5.7c-4.35,7.31-11.62,15.14-15.72,14.69-5.57-.7-3.69-10.72-1.6-18.27,3.09-11.62,8.1-24.35,12.24-28.63,2.3-2.3,5.71-2.12,4.87,2.4-1.11,6.12-8.35,16-12.94,22C1303.2,329.37,1297.39,346.17,1302.61,347.53Zm3.65-26a111.22,111.22,0,0,0,7.66-12.49c2.88-5.67,1.35-5.6-1.81-.59A68.79,68.79,0,0,0,1306.26,321.54Z"/>
        <path class="cls-85" d="M1336.13,331.49c.18-.35-2.33,1.42-4.17,3.2a17.72,17.72,0,0,1-2.71,2.43c-1.64.67-2.54-.14-1.74-1.39,2.71-4.1,5.18-10,4-10.92-1.91-.66-6.33,8.56-6.61,9-1,2.26-2.36,5.53-3.93,5.53s-1.88-2-2-3.23c-.38-3.62,1.5-10.68,3.48-13.05,1.49-1.74,3.58-.83,3.09.7-.83,2.82-4.34,9.85-4.52,13,0,.2,0,1,.42.41,2-2.4,5.81-14.12,10.64-14.12,2.79,0,1.85,5.43.63,9,1.64-1.35,3.86-3.65,5.18-4.2s2.13,0,1.71,1c-1.64,3.76-1.74,6-.11,6.41,3.34.27,8.6-5.36,10.93-8.22.94-1.32,2.54-.66,1.11.87-3,3.62-7.79,9-12.77,8.74C1335.61,336.46,1335,334.1,1336.13,331.49Z"/>
        <path class="cls-86" d="M1349.44,328.53c1.78-3.62,5.81-6.16,10.09-4.94,1.22.84-.35,2.05-1.6,1.18-4.14-2.08-6,5.67-5.88,8.67.1,1.21.87,1.53,1.84.55a11.15,11.15,0,0,0,2.3-5.18c-4.24-1.36-.07-5.39.9-1.22a28.13,28.13,0,0,0,10-.56c3.23-.83,1.7,1.19.73,1.4a30.63,30.63,0,0,1-10.47.55,9.76,9.76,0,0,1-2.72,6.54c-1.53,1.43-4.59,1.85-5.7-.41C1348,333.23,1348.54,330.48,1349.44,328.53Z"/>
        <path class="cls-87" d="M1376,335.07c2,2.92,1.22,6.37-1.15,10s-6.85,7.16-9.91,7.16c-2.61,0-4.53-1.25-4.14-4.14.55-4.17,6.5-9.22,12.69-13.39-2.15-2.09-6.74-3.06-6.57-6.82.17-3.51,4.14-6.51,7.76-5.67,3.41.7,1.56,4.49-.8,2.4s-4.7,0-4.42,2.78,3.51,4.63,5.43,6.37c4.31-2.82,8.52-5.22,11.27-6.72,1.6-.93,2.68.18,1,1.12C1384.74,329.57,1380.36,332.11,1376,335.07Zm-1.53,1.05c-5.74,4-11.1,8.38-12,11.58-.45,1.57.45,3,2.23,2.26s4.49-3.2,6.5-5.95,3.17-4.94,3.41-6.5A3,3,0,0,0,1374.48,336.12Z"/>
        <path class="cls-88" d="M1401.8,341.82a90.5,90.5,0,0,1,2.82-14.33c2.23-8.63,4.56-13.92,8.8-22.34a16.42,16.42,0,0,1-6.19,4.28c-3.65,1.18-3.93-2.19-1.15-2.19,3.79,0,7-3.55,9.74-6.33,0,0,.07-.07.11-.07,1.77-1.39,4.1,0,2,3.16-.14.7-7.79,10.27-12,24.6a40,40,0,0,0-2.22,12.94,11.7,11.7,0,0,0,1.32,5.39c2.36,2.37-1.29,4.39-2.82.66A12,12,0,0,1,1401.8,341.82Z"/>
        <path class="cls-89" d="M1420.89,348.22c9.36.84,19-15,11.38-22.19a9.41,9.41,0,0,0-7.24-2.86c-2.4.66-2.92-1.77-.17-1.6,5.57.28,11.72-7,13.67-12.17,2-5.74-1.56-8.21-5.7-7.83-5,.56-9,4.45-8.94,9.64.38,3.44-3.55,3.06-2.54-.91a14,14,0,0,1,11.51-10.23c4-.48,8.84,1.46,9.29,6.3.28,6.82-7.58,13.78-13.46,16a15.18,15.18,0,0,1,4.38,2.47c10.82,9,1,25.82-12.39,24.84-9.08-.69-8.38-11-4-16.7,2.54-3.41,5.11-.28,2.33,1.5C1414.11,337.82,1412.89,347.53,1420.89,348.22Z"/>
        <path class="cls-90" d="M1451.11,348.22c9.36.84,19-15,11.37-22.19a9.38,9.38,0,0,0-7.23-2.86c-2.4.66-2.93-1.77-.18-1.6,5.57.28,11.73-7,13.67-12.17,2.06-5.74-1.56-8.21-5.7-7.83-5,.56-9,4.45-8.94,9.64.38,3.44-3.55,3.06-2.54-.91a14.07,14.07,0,0,1,11.51-10.23c4-.48,8.84,1.46,9.29,6.3.28,6.82-7.58,13.78-13.46,16a15.05,15.05,0,0,1,4.38,2.47c10.82,9,1,25.82-12.38,24.84-9.08-.69-8.39-11-4-16.7,2.54-3.41,5.12-.28,2.33,1.5C1444.32,337.82,1443.11,347.53,1451.11,348.22Z"/>
        <path class="cls-91" d="M1481.32,334.72c-.83,1.4-3.37,1.12-2.82-.83C1479.06,331.56,1483.58,329.92,1481.32,334.72Z"/>
        <path class="cls-92" d="M1491.19,341.82a90.5,90.5,0,0,1,2.82-14.33c2.23-8.63,4.56-13.92,8.8-22.34a16.5,16.5,0,0,1-6.19,4.28c-3.65,1.18-3.93-2.19-1.15-2.19,3.79,0,7-3.55,9.74-6.33,0,0,.07-.07.11-.07,1.77-1.39,4.1,0,2,3.16-.14.7-7.79,10.27-12,24.6a40.23,40.23,0,0,0-2.23,12.94,11.7,11.7,0,0,0,1.33,5.39c2.36,2.37-1.29,4.39-2.82.66A12,12,0,0,1,1491.19,341.82Z"/>
      </g>
      <g>
        <path class="cls-93" d="M663.18,74.42a100.28,100.28,0,0,0-19-2.21h-3.92c-21.29,0-40.39,3.49-56.78,10.36-16.87,7.08-25.27,18.67-25,34.41V242.67h44.73V120.81a44.63,44.63,0,0,1,25.8-10,60.57,60.57,0,0,1,33,7.63l2.52,1.37V74.7Z"/>
        <path class="cls-94" d="M568.42,58.14a9.74,9.74,0,0,0-9.74,10l.53,20.68c9.38-23.19,41.72-30.67,41.72-30.67H568.42Z"/>
      </g>
      <g>
        <path class="cls-95" d="M658.2,73.54a89.61,89.61,0,0,0-17.49-2.09h-3.6c-19.56,0-37.11,3.3-52.16,9.8C569.45,88,561.73,98.91,562,113.81V232.7h41.1V117.43a40.42,40.42,0,0,1,23.7-9.43,54.4,54.4,0,0,1,30.34,7.22l2.31,1.3V73.8Z"/>
        <path class="cls-96" d="M571.15,58.14a9.09,9.09,0,0,0-8.95,9.45l.49,19.57c8.61-21.94,38.33-29,38.33-29H571.15Z"/>
      </g>
      <g>
        <path class="cls-97" d="M1308.64,102.82a46.77,46.77,0,0,1-9.89-1V242.67h45.17V90.37C1333.53,99.59,1319.6,102.82,1308.64,102.82Z"/>
        <path class="cls-98" d="M1327.42,27.52c5.38,10.94-5.89,14.67-17.63,18.33-24.74,7.71-11.27,35.39-8.71,40.2,4.63,1.55,25.87,2.56,36-11.51C1351.55,54.49,1335.91,31.74,1327.42,27.52Z"/>
      </g>
      <g>
        <path class="cls-99" d="M1309.73,109.35a42,42,0,0,1-8.89-.88V235.12h40.62v-137C1332.12,106.44,1319.59,109.35,1309.73,109.35Z"/>
        <path class="cls-100" d="M1326.62,41.63c4.85,9.84-5.29,13.19-15.85,16.48-22.25,6.94-10.13,31.84-7.83,36.15,4.16,1.41,23.26,2.31,32.38-10.34C1348.33,65.89,1334.26,45.43,1326.62,41.63Z"/>
      </g>
    </g>
  </g>
</svg>
