<?xml version="1.0" encoding="UTF-8"?>
<svg id="Capa_2" data-name="Capa 2" xmlns="http://www.w3.org/2000/svg" xmlns:xlink="http://www.w3.org/1999/xlink" viewBox="0 0 1059.22 971.43">
  <defs>
    <style>
      .cls-1 {
        fill: url(#Degradado_sin_nombre_3);
      }

      .cls-1, .cls-2, .cls-3, .cls-4, .cls-5 {
        stroke-width: 0px;
      }

      .cls-6 {
        clip-path: url(#clippath-2);
      }

      .cls-7 {
        isolation: isolate;
      }

      .cls-3 {
        fill: none;
      }

      .cls-8 {
        clip-path: url(#clippath-1);
      }

      .cls-4 {
        fill: url(#Degradado_sin_nombre_3-2);
      }

      .cls-5 {
        fill: #fff;
      }

      .cls-9 {
        clip-path: url(#clippath);
      }

      .cls-10 {
        clip-path: url(#clippath-3);
      }

      .cls-11 {
        mask: url(#mask-1);
      }

      .cls-12 {
        mask: url(#mask);
      }
    </style>
    <clipPath id="clippath">
      <rect class="cls-3" x=".5" y="844.13" width="1045.22" height="127.29"/>
    </clipPath>
    <clipPath id="clippath-1">
      <path class="cls-3" d="m1022.63,917.39c0,91.25-229.6,165.23-512.82,165.23S-3.01,1008.64-3.01,917.39s229.6-165.24,512.82-165.24,512.82,73.98,512.82,165.24"/>
    </clipPath>
    <radialGradient id="Degradado_sin_nombre_3" data-name="Degradado sin nombre 3" cx="5594.33" cy="4529.62" fx="5594.33" fy="4529.62" r="5.08" gradientTransform="translate(-563871.41 148153.17) scale(100.88 -32.51)" gradientUnits="userSpaceOnUse">
      <stop offset="0" stop-color="#fff"/>
      <stop offset=".19" stop-color="#bebebe"/>
      <stop offset=".41" stop-color="#7b7b7b"/>
      <stop offset=".61" stop-color="#464646"/>
      <stop offset=".78" stop-color="#202020"/>
      <stop offset=".91" stop-color="#080808"/>
      <stop offset="1" stop-color="#000"/>
    </radialGradient>
    <mask id="mask" x="-3.01" y="752.15" width="1048.74" height="330.47" maskUnits="userSpaceOnUse">
      <g>
        <rect class="cls-2" x=".52" y="844.13" width="1045.22" height="127.29"/>
        <g class="cls-7">
          <g class="cls-9">
            <g class="cls-8">
              <rect class="cls-1" x="-3.01" y="752.15" width="1025.64" height="330.47"/>
            </g>
          </g>
        </g>
      </g>
    </mask>
    <clipPath id="clippath-2">
      <rect class="cls-3" x="13.98" y="840.65" width="1045.22" height="127.29"/>
    </clipPath>
    <clipPath id="clippath-3">
      <path class="cls-3" d="m1036.12,913.9c0,91.25-229.6,165.23-512.82,165.23S10.48,1005.16,10.48,913.9s229.6-165.24,512.82-165.24,512.82,73.98,512.82,165.24"/>
    </clipPath>
    <radialGradient id="Degradado_sin_nombre_3-2" data-name="Degradado sin nombre 3" cx="5594.47" cy="4529.73" fx="5594.47" fy="4529.73" r="5.08" xlink:href="#Degradado_sin_nombre_3"/>
    <mask id="mask-1" x="10.47" y="748.67" width="1048.74" height="330.47" maskUnits="userSpaceOnUse">
      <g>
        <rect class="cls-2" x="14" y="840.65" width="1045.22" height="127.29"/>
        <g class="cls-7">
          <g class="cls-6">
            <g class="cls-10">
              <rect class="cls-4" x="10.47" y="748.67" width="1025.64" height="330.47"/>
            </g>
          </g>
        </g>
      </g>
    </mask>
  </defs>
  <g id="Capa_1-2" data-name="Capa 1">
    <path class="cls-5" d="m660.43,779.79c33.28,2.06,66.56,4.12,100.22,6.21.11-2.3.24-3.73.24-5.15-.02-12.78-.13-25.56-.02-38.34.02-2.23.56-4.65,1.53-6.66,22.1-46.07,44.34-92.08,66.37-138.18,1.63-3.41,3.51-4.86,7.26-5.35,13.26-1.72,26.47-3.86,40.18-5.92,0-1.71,0-3.15,0-4.59.15-23.11.32-46.21.41-69.31,0-2.35.33-3.73,3.09-4.37,26.57-6.12,53.11-12.42,79.66-18.65,1.4-.33,2.84-.51,5.05-.9-31.49,84.86-68.84,166.41-107.16,248.31,1.69,0,2.83.06,3.96,0,16.94-.93,33.86-1.93,50.81-2.73,2.9-.14,3.71-1.11,3.72-3.93.08-20.77.34-41.53.44-62.31.02-2.55.63-3.73,3.42-3.93,26.83-2.06,53.65-4.23,80.48-6.36.95-.07,1.91-.01,2.96-.01v72.13h33.32c.06,1.02.2,2.18.19,3.34-.1,25.93-.28,51.86-.24,77.79,0,3.4-1.17,4.09-4.23,4.12-8.73.1-17.45.59-26.17.7-2.93.04-3.74,1.07-3.7,3.9.21,15,.23,29.99.32,44.98,0,1.33,0,2.67,0,4.7-28.95.73-57.62,1.44-86.91,2.18v-53.34h-150.16v50.11c-3.6,0-6.76.18-9.89-.03-26.85-1.72-53.76-2.88-80.53-5.44-35.11-3.35-69.75-9.84-103.96-18.52-13.44-3.42-26.89-6.81-40.36-10.05-2.77-.67-3.64-1.87-3.6-4.75.26-18.43.38-36.87.39-55.3,0-2.66.95-4.22,3.01-5.75,38.96-29.02,76.5-59.79,112.52-92.38,7.79-7.05,14.86-15.02,21.49-23.18,6.6-8.14,9.69-17.82,9.03-28.52-.98-15.72-9.71-26.78-24.88-31.05-3.3-.93-6.7-1.65-10.1-2.02-13.9-1.51-22.37,5.36-23.96,19.28-.25,2.19-.37,4.38-.59,7-1.28-.3-2.32-.44-3.3-.77-26.74-9.11-53.48-18.21-80.17-27.44-1.08-.37-2.49-1.92-2.5-2.92-.06-12.81.94-25.53,4.44-37.93.09-.34.34-.63.69-1.24,7.62,2.66,15.24,5.32,22.86,7.99,29.44,10.28,58.68,21.17,89.06,28.51,35.34,8.53,71.16,13.63,107.53,14.47,2.47.06,3.35.88,3.88,3.2,7.08,30.96,4.31,60.49-11.98,88.33-11.93,20.4-27.35,37.74-45,53.27-12.46,10.96-24.72,22.14-37.1,33.18-.81.72-1.84,1.19-2.77,1.78.26.62.51,1.25.77,1.87h0Z"/>
    <path class="cls-5" d="m524.05,653.43c-.72,27.08-2.97,53.82-11.26,79.75-5.99,18.72-14.72,35.92-28.95,49.86-17.21,16.86-38.28,25.24-62.02,26.39-35.61,1.73-70.12-3.72-102.59-19.01-31.98-15.06-52-40.62-63.04-73.75-10.71-32.11-14.03-65.21-13.49-98.84.49-30.33,4.94-59.91,16.03-88.36,2.15-5.49,4.92-8.14,10.91-9.25,40.81-7.52,81.83-10.73,123.21-6.61,36.8,3.66,72.58,12.27,107.85,23.1,1.42.44,2.89,2.19,3.46,3.67,8.46,22.15,13.92,45.08,16.49,68.61,1.61,14.76,2.3,29.62,3.41,44.43m-194.24-34.73c.36,6.22.66,16.42,1.62,26.56,1.47,15.46,4.23,30.68,11.08,44.83,8.34,17.22,21.72,27.36,41,29.61,17.64,2.06,31.88-4.61,40.47-20.1,2.89-5.21,5.14-10.9,6.89-16.61,4.9-15.99,6-32.55,6.27-49.16.38-22.77-.53-45.45-7.01-67.5-4.19-14.24-10.51-27.26-22.66-36.63-16.48-12.72-48.66-15.68-64.05,12.68-2.79,5.14-5.09,10.66-6.82,16.25-5.66,18.26-6.37,37.17-6.78,60.08"/>
    <path class="cls-5" d="m610.73,450.95c11.97,3.26,23.51,6.64,35.17,9.52,13.81,3.42,27.72,6.45,41.61,9.59,7.85,1.78,14.81,5.13,20.36,11.11,6.01,6.48,10.81,18.48,4.08,30.13,1.58,1.4,3.3,2.74,4.82,4.29,9.32,9.52,12.22,20.81,8.51,33.54-3.33,11.45-13.54,18.59-25.31,16.79-16.12-2.46-32.06-5.99-48.11-8.97-2.67-.49-2.41-2.27-2.42-4.12-.1-21.61-.32-43.22-.19-64.84.03-3.86-1.21-5.22-4.76-6.13-10.22-2.62-20.32-5.71-30.5-8.47-2.38-.64-3.43-1.59-3.33-4.24.22-5.98.07-11.97.07-18.2m61.38,70.15c0,5.68-.07,11.07.08,16.45.02.8.94,2.16,1.62,2.29,7.58,1.45,15.17,2.86,22.81,3.94,3.45.48,5.87-1.49,6.91-4.83,1.94-6.16-1.47-12.2-7.82-13.5-7.68-1.57-15.41-2.86-23.6-4.35m-.11-32.27c0,3.81-.12,7.22.09,10.61.05.74,1.17,1.85,1.97,2.03,4.78,1.11,9.61,1.98,14.41,2.99,2.32.49,3.47-.7,4.1-2.66,1.25-3.9-.77-8.48-4.7-9.55-5.06-1.39-10.27-2.24-15.87-3.42"/>
    <path class="cls-5" d="m.51,627.74c.49-6.82.6-13.42,1.47-19.94,6.27-46.96,32.02-80.1,73.3-101.78,28.02-14.72,58.05-21.63,89.73-21.19,5.33.08,5.34.17,5.38,5.55.13,16.59.24,33.18.36,49.76,0,1.33,0,2.66,0,4.41,20.63-5.49,40.84-10.86,61.93-16.46,1.26,6.73,2.68,12.91,3.53,19.16,2.93,21.65-1.93,42.02-10.73,61.64-11.67,26.04-27.03,49.85-43.86,72.79-14.89,20.31-29.65,40.72-44.46,61.09-.48.66-.85,1.39-1.72,2.82,35.36-10.33,70.03-20.25,106.3-27.11-.45,29.13-.89,57.91-1.33,86.56-13.97,3.29-27.52,6.22-40.92,9.7-40.36,10.46-80.64,21.19-120.97,31.72-23.8,6.21-48,10.28-72.48,12.68-.83.09-1.68.02-2.71.02-.1-.89-.25-1.72-.26-2.55-.25-19.29-.52-38.58-.65-57.87-.01-1.67.51-3.77,1.58-4.97,38.23-43.1,72.02-89.62,105.47-136.39,10.5-14.68,20.7-29.57,30.45-44.75,5.87-9.13,9.91-19.19,9.37-30.51-.58-12.15-7.33-18.54-19.35-17.06-15.67,1.93-29.3,8.03-36.79,22.93-2.46,4.88-2.79,10.82-4.31,16.21-.35,1.24-1.4,2.89-2.49,3.23-26.98,8.39-54.22,15.78-82.2,20.12-.94.15-1.91.12-3.64.21"/>
    <path class="cls-5" d="m600.19,528.23c-5.15-1.73-9.87-3.1-14.39-4.96-1.28-.53-2.38-2.34-2.88-3.8-4.27-12.42-8.39-24.9-12.56-37.36-.41-1.22-.87-2.42-1.81-3.46v52.26c-7.14-2.47-14.16-4.84-21.13-7.39-.63-.23-1.2-1.55-1.21-2.37-.32-29.59-.57-59.19-.83-88.79,0-.11.09-.23.28-.73,8.41,2.47,16.89,4.85,25.27,7.54,1.04.33,1.84,2.13,2.29,3.41,5.69,16.33,11.28,32.7,16.91,49.05.39,1.11.84,2.2,1.65,4.3,4.19-10.07,8.02-19.26,11.85-28.44l1.01.11c0,2.6.1,5.21-.03,7.8-.11,2.09.72,3.01,2.74,3.58,9.1,2.56,18.14,5.3,27.22,7.94,1.7.49,3.11.83,3.12,3.23.05,20.52.22,41.03.34,61.54,0,.35-.16.71-.38,1.62-6.94-2.05-13.87-3.99-20.68-6.26-.8-.27-1.37-2.4-1.39-3.68-.2-15.48-.29-30.96-.4-46.43-.01-1.29,0-2.58,0-3.87-.32-.07-.63-.14-.94-.21-4.63,11.65-9.25,23.3-14.04,35.36"/>
    <path class="cls-5" d="m760.78,570.15c.35-1.3.62-2.45.97-3.57,9.06-29.32,18.16-58.62,27.12-87.97.78-2.54,1.98-3.39,4.54-3.7,7.19-.85,14.35-1.98,21.49-3.19,2.12-.36,3.09.11,3.75,2.19,8.84,27.84,17.76,55.64,26.63,83.46,1.19,3.74.3,5.08-3.67,5.74-5.69.94-11.41,1.73-17.11,2.68-2.09.35-3.32-.25-3.61-2.43-.02-.12-.07-.23-.1-.35-1.1-3.21-1.31-7.68-3.56-9.26-2.06-1.45-6.31.19-9.6.5-5.13.48-10.26,1.09-15.41,1.45-2.14.15-3.44.74-3.79,3.04-.26,1.69-.9,3.31-1.35,4.97-1.69,6.21-1.69,6.29-8.29,6.42-5.86.12-11.72.03-18.02.03h0Zm43.43-66.94c-.32.01-.64.02-.96.03-2.77,10.36-5.54,20.73-8.48,31.75,6.16-.7,11.68-1.33,17.74-2.02-2.86-10.27-5.58-20.01-8.29-29.76h0Z"/>
    <path class="cls-5" d="m339.39,488.51c-8.51.02-16.55-1.82-24.08-5.83-16.01-8.5-23.15-24.56-18.74-42.21,7.35-29.4,43.44-45.81,69.51-31.61,27.72,15.09,29.67,53.05,3.6,70.89-9.12,6.24-19.35,8.75-30.29,8.76m-21.42-43.54c-.11,10.72,4,17.4,12.01,20.62,9.76,3.93,19.18,2.78,27.5-3.67,10.64-8.25,11-24.96.79-33.24-7.99-6.48-17.09-6.64-26.08-2.65-8.9,3.94-13.83,11.1-14.22,18.94"/>
    <path class="cls-5" d="m292.82,460.48c-1.3,8.49-4.62,15.16-9.59,20.91-14.08,16.27-32.01,23.72-53.4,21.65-18.62-1.8-29.89-16.61-27.32-35.53,2.71-19.95,14.69-33.39,31.94-42.38,11.36-5.92,23.52-8.74,36.33-5.27,10.25,2.78,17.66,8.9,20.96,19.33.28.9.38,1.86.6,3-7.35,1.48-14.43,2.95-21.53,4.28-.71.13-1.96-.37-2.32-.96-4.02-6.62-10.26-7.45-17.07-6.59-12.97,1.63-23.41,10.7-25.9,22.35-2.97,13.88,5.41,23.2,19.45,21.35,10.53-1.38,19.25-5.7,23.87-16.05.34-.76,1.29-1.58,2.08-1.75,7.06-1.48,14.15-2.83,21.91-4.36"/>
    <path class="cls-5" d="m469.94,468.43c-4.73-.95-10.1-2.01-15.46-3.09q-8.15-1.64-8.81-9.98c-1.16-14.91,2.74-27.66,16.3-35.72,11.55-6.86,23.82-6.14,35.93-1.74,24.16,8.75,41.06,34.5,39.86,60.18-.9,19.19-14.68,32.32-33.39,31.98-3.16-.06-4.63-.73-4.47-4.32.25-5.52,0-11.06-.21-16.58-.08-2.09.55-2.97,2.68-3.48,7.53-1.78,11.72-6.67,12.68-14.35,2.24-17.87-12.43-34.88-29.91-34.69-9.77.11-16.77,6.32-17.06,16.09-.15,5.14,1.18,10.33,1.87,15.7"/>
    <path class="cls-5" d="m491.96,505.4c-18.87-4.1-37.38-8.45-56.04-12.06-11.67-2.26-23.54-3.56-35.35-5.01-3.22-.4-4.21-1.43-4.24-4.73-.2-24.94-.61-49.87-.95-74.8-.02-1.32,0-2.63,0-4.51,7.61.49,14.78.95,22.23,1.42.1,1.66.22,2.98.24,4.3.31,18.3.69,36.6.85,54.9.03,3.16,1.1,3.88,4.12,4.47,22.15,4.3,44.24,8.87,66.32,13.5,1.07.22,2.65,1.67,2.69,2.6.23,6.74.12,13.48.12,19.93"/>
    <path class="cls-5" d="m733.9,476.9c7.09,0,13.7-.08,20.31.1.84.03,1.8,1.36,2.41,2.28.34.52.08,1.43.08,2.17,0,28.26-.04,56.53.08,84.79.02,3.32-.77,4.62-4.29,4.33-5.13-.43-10.31-.45-15.47-.54-2.25-.04-3.23-.81-3.23-3.27,0-29.37-.08-58.74-.12-88.11,0-.71.17-1.42.21-1.75"/>
    <g class="cls-12">
      <path class="cls-5" d="m1045.73,888.78c-25.45,30.06-77.44,54.26-130.52,68.1-22.95,5.98-46.09,10.03-67.39,11.78-.85.07-1.71.12-2.57.19-.07,0-.14,0-.21.01-16.83,1.2-33.72,1.72-50.58,2.58-40.88-.84-81.46-4.42-121.85-10.52-52.02-7.85-103.06-19.98-153.82-33.64-20.81-5.6-42.22-9.12-63.49-12.79-39.43-6.8-79.17-10.14-119.23-9.13-35.95.91-71.59,4.86-106.72,12.34-19.65,4.18-39.19,8.91-58.72,13.66,0,0,0,.01-.01.01-.13.03-.26.06-.39.09-13.43,3.12-26.1,5.89-37.99,8.35C46.23,957.64.51,959.55.51,959.55v-63.66s40.62-.51,130.18-25.66c.55-.16,1.09-.31,1.64-.46,76.36-21.23,141.61-24.81,158.42-25.39.13,0,.26,0,.39-.02h0c.27-.01.54-.02.83-.02.99-.03,1.98-.05,2.96-.07,7.14-.14,14.29-.14,21.45,0,29.3.57,58.24,4.57,87.13,9.13,58.39,9.19,115.51,24.19,172.99,37.51,44.64,10.35,89.65,18.57,135.24,23.46,47.2,5.06,94.52,7.93,142,7.11,12.53-.22,25.04-1.09,37.56-1.9,0,0,.03,0,.08-.01.03,0,.06,0,.11,0,5.17-.54,116.62-12.17,154.23-30.79"/>
    </g>
    <g>
      <path class="cls-5" d="m158.29,380.39l-34.46,3.8v-46.38l16.1-1.78v30.25l10.96-1.21c2.04,5.44,4.5,10.55,7.4,15.32Z"/>
      <path class="cls-5" d="m190.79,410.78c-8.89-4.74-16.41-10.56-22.7-17.36l-58.34,6.45v-74.62l14.08-1.56,16.1-1.78,3.47-.38c-.02-4.18.14-8.37.47-12.57.09-1.23.21-2.44.33-3.65l-50.35,5.56v90.75l-2.01.22-12.08,1.34-69.74,7.7c1.7,6.27,3.68,12.42,5.9,18.46,3.92-2.3,16.52,14.27,21.71,20.62.52-.62,1.11-1.27,1.77-1.94,5.19-5.35,16.93-21.9,21.13-17.05.39.66.61.99.8,1.84,1.32,5.98-16,20.56-21.01,25.41-.36,1.18-1.18,1.89-2.62,1.52-1.57.26-3.17-.44-3.49-2.17-.76-.67-1.58-1.5-2.49-2.51-1.96-2.18-5.36-5.26-8.64-8.61,7.45,15.82,16.83,30.75,28.25,44.72.9,1.11,1.89,2.14,2.7,3.05,36.94-17.6,74.94-28.93,115.68-28.41v-18.85c-3.82-3.23-7.39-6.43-9.78-8.5-.45.77-.96,1.59-1.54,2.46-4.62,6.84-14.08,27.29-19.82,22.59-.58-.67-.89-1.01-1.29-1.93-2.79-6.44,13.32-25.64,17.85-31.9.14-1.36.9-2.3,2.58-2.13,1.7-.56,3.63-.05,4.37,1.84.98.61,2.09,1.4,3.32,2.38,1.15.91,2.64,1.96,4.31,3.12v-10.05c0-7.72-.95-6,5.97-7.95,5.55-1.55,11.13-3.02,17.38-4.72-1.25-.77-1.75-1.11-2.27-1.39Zm-92.54,56.07c-.3.76-.41,1.09-.92,1.63-3.28,3.45-17.73-13.31-23.56-19.61-.46.64-.99,1.31-1.59,2.01-4.74,5.56-15.05,22.59-19.63,17.9-.44-.65-.69-.98-.94-1.82-1.82-5.94,14.22-21.22,18.8-26.27.26-1.19,1.03-1.93,2.48-1.62,1.55-.32,3.19.32,3.66,2.05.8.63,1.7,1.43,2.69,2.41,5.43,5.39,20.65,16.19,19.01,23.32Zm23.98-7.83c-.17,1.37-.94,2.33-2.61,2.2-1.71.61-3.62.15-4.33-1.72-.97-.59-2.06-1.35-3.28-2.29-6.67-5.21-24.92-14.98-23.84-23.25.26-.91.35-1.29.87-1.98,3.31-4.4,21.33,12.19,28.55,18.36.45-.79.98-1.63,1.58-2.51,4.72-6.99,14.5-27.76,20.14-23.2.56.66.87.98,1.25,1.89,2.67,6.4-13.72,26.09-18.33,32.5Z"/>
      <path class="cls-5" d="m49.58,315.76v46.38l-16.1,1.78v-30.25l-14.08,1.56-16.1,1.77-3.23.36c-.11-5.4-.09-10.78.07-16.14l49.44-5.46Z"/>
      <path class="cls-5" d="m569.86,232.75c-5.83-32.23-17.25-62.27-36.11-89.17-37.58-53.58-90.03-84.85-152.63-100.4-27.98-6.95-56.47-8.94-85.25-7.65-32.34,1.44-64.05,6.48-94.73,16.94C124.76,78.5,66.45,125.93,30.54,198.94c-8.06,16.39-14.44,33.04-19.26,49.89,4.03-2.83,7.27-4.2,8.4-2.35.48.8.55,1.24.76,2.29.41,5.91-6.61,12.46-13.67,18.02-2.9,13.29-4.85,26.7-5.88,40.23l48.69-5.38,14.08-1.55v60.5s0,14.11,0,14.11l-30.19,3.34-14.08,1.55v-30.25l-16.1,1.78v25.75c.69,4.95,1.48,9.9,2.38,14.87.33,1.81.7,3.6,1.06,5.39l73.02-8.07v-76.63l-.2.02v-14.12l.2-.02,14.09-1.56,52.3-5.77c2.58-14.56,6.9-27.94,12.86-40.2-8.21-4.02-18.11-9.46-18.46-13.65-.07-.87.04-1.25.21-1.99,2.23-5.09,14.63,3.48,22.16,8.17,14.94-26.52,38.12-47.42,68.7-63.21,19.97-10.32,41.58-15.57,63.82-18.09,24.76-2.79,49.08-1.04,72.45,8.42,23.87,9.66,42.48,24.97,52.16,49.53,1.24,3.15,2.63,4.21,6.04,4.2,41.11-.11,81.96,3.37,122.66,8.96,7.02.96,14.04,1.86,21.38,2.83-.11-1.32-.11-2.27-.27-3.2Zm-502.44,46.47c-.1,1-.31,1.41-.66,2.22-4.08,6.19-19.18-10.53-25.63-15.69-.81-.66-1.54-1.29-2.2-1.9-5.13,8.25-17.6,29.96-21.98,26.83-.69-.5-.87-.84-1.38-1.62-3.34-7.57,11.26-22.83,16.15-29.97.89-1.3,1.71-2.38,2.47-3.26.15-2.02,1.84-3.08,3.63-3.05,1.55-.66,2.55,0,3.1,1.27,6.17,4.64,27.25,18.19,26.5,25.17Zm22.83-11.68c-.88,1.27-1.69,2.31-2.44,3.16-.13,2-1.82,3.01-3.63,2.93-1.55.62-2.58-.07-3.15-1.33-6.3-4.74-27.8-18.69-27.14-25.59.09-.98.29-1.38.63-2.18,4.04-6.02,19.54,10.91,26.12,16.18.83.67,1.59,1.31,2.26,1.93,5.06-8.04,17.34-29.22,21.81-26.01.7.51.89.85,1.41,1.63,3.49,7.59-11.04,22.33-15.87,29.28Zm60.59-8.6c0,.88-.14,1.26-.37,2.01-2.98,5.83-17.88-7.37-24.05-11.27-.78-.49-1.49-.98-2.12-1.45-3.7,7.76-12.52,28.05-16.68,25.72-.65-.36-.85-.64-1.36-1.28-3.68-6.32,7.65-21.16,11.24-27.91.65-1.23,1.27-2.26,1.85-3.1-.07-1.79,1.31-2.89,2.88-3.04,1.3-.73,2.25-.25,2.85.81,5.88,3.46,25.72,13.3,25.76,19.51Z"/>
    </g>
    <path class="cls-5" d="m570.92,319.22c-46.65-9.34-93.5-17.25-141.14-19.37-1.1-.05-2.2,0-4.05,0,1.94,31.84-6.64,59.47-33.92,80.19,57.56,1.28,112.05,13.37,166.16,27.83.67-1.4,1.19-2.37,1.61-3.38,10.84-26.36,13.84-54.06,14.15-82.24.02-2.12-1.04-2.68-2.82-3.04Z"/>
    <g>
      <path class="cls-5" d="m1037.56,359.21l-17.76,1.96v-43.17l14.98-1.66v28.16l2.54-.28c.08,5,.16,9.99.24,14.99Z"/>
      <path class="cls-5" d="m1039.67,500.2c-.41-29.4-.83-58.81-1.27-88.21-.22.27-.44.54-.68.82-4.4,5.17-14,21.02-18.26,16.66-.41-.61-.64-.91-.88-1.69-1.69-5.53,13.24-19.75,17.51-24.45.23-1.07.9-1.74,2.15-1.53-.15-9.83-.31-19.65-.47-29.48l-31.08,3.44v-69.45l13.11-1.45,14.98-1.66,1.79-.19c-.09-4.56-.16-9.11-.25-13.66-.01-.44-.02-.89-.03-1.33l-46.46,5.13v84.47l-1.87.21-11.24,1.24-84.28,9.31v-69.45l13.11-1.45,14.98-1.66,13.11-1.45v28.16l14.99-1.65v-43.18s-56.15,5.81-56.15,5.81v-13.14l1.8-.19c-.39-.46-.69-.82-.96-1.16-10.53-13.29-20.85-26.76-31.63-39.84-31.95-38.79-64.3-77.28-93.29-118.4-18.75-26.61-37.08-53.52-55.59-80.31-1.13-1.65-2.05-3.06-4.55-2.95-31.87,1.45-63.62-1.19-95.4-2.75-4.51-.22-9.02-.41-14.04-.64,0,1.93.01,3.49,0,5.05-.15,53.21-.44,106.42-.43,159.62.03,68.7.32,137.39.39,206.08,0,3.28.91,4.74,4.15,5.56,10.83,2.72,21.56,5.84,32.38,8.67,28.65,7.51,57.49,14.14,87.06,16.93,6.92.65,13.86,1.07,20.93,1.62v-132.67c.21-.09.42-.19.63-.28.77,1.15,1.55,2.3,2.3,3.47,25.41,39.31,50.83,78.62,76.14,118,1.75,2.72,3.33,3.59,6.49,2.59,14.52-4.59,29.1-8.98,43.66-13.43,1.25-.39,2.51-.75,4.43-1.31v17.96c1.79-7.44,4.21-15.71,7.97-14.2.6.37.92.55,1.43,1.17,3.6,4.33-4.42,23.53-6.48,29.6.2,1.11-.17,2.04-1.5,2.34-.43.32-.92.54-1.42.62v14.74c2.03,1,3.53,2.24,4.09,3.83.14.74.23,1.05.09,1.72-.23,1.17-1.83,1.58-4.18,1.53v9.74c12.15-3.18,23.62-6.35,35.19-9.14,22.56-5.47,45.17-10.74,67.77-16.05,5.37-1.26,7.52.8,6.39,6.26-.65,3.12-1.74,6.15-2.76,9.17-12.89,38.31-28.05,75.75-43.88,112.92-.48,1.15-.89,2.35-1.17,3.11,33.96-3.15,67.64-6.26,101.55-9.4.02-.46.14-1.42.13-2.39-.14-29.12-.09-58.25-.5-87.36Zm-107.36-59.83c-.84,4.29-20.3-1.6-27.93-3.62-.05.73-.13,1.51-.25,2.35-.93,6.64-.55,24.93-6.41,23.55-.66-.29-1.01-.42-1.63-.95-4.33-3.71.58-23.46,1.66-29.64-.39-1.05-.16-2,1.12-2.47,1.04-1.02,2.63-1.34,3.84-.22.94.1,2.03.27,3.28.55,6.87,1.5,23.99,2.39,26.24,8.73.14.74.22,1.04.08,1.72Zm.52-11.44c-1.42.38-2.94-.11-3.39-1.67-.75-.54-1.58-1.23-2.5-2.08-5.07-4.64-19.21-13.73-17.8-20.36.27-.72.36-1.02.83-1.54,2.97-3.35,16.48,11.24,21.92,16.71.42-.61.9-1.25,1.44-1.93,4.28-5.35,13.54-21.53,17.81-17.48.42.57.65.85.9,1.62,1.74,5.35-12.8,20.23-16.95,25.12-.23,1.1-.92,1.82-2.26,1.61Zm57.71.84c-2.37,3.67-18.28-8.98-24.62-13.68-.32.66-.68,1.36-1.1,2.09-3.32,5.83-9.72,22.97-14.66,19.52-.51-.51-.78-.76-1.16-1.48-2.65-5.05,9.21-21.59,12.48-26.94.03-1.11.6-1.92,1.96-1.88,1.34-.56,2.94-.26,3.65,1.22.84.43,1.78,1,2.85,1.72,5.82,3.93,21.41,11.08,21.16,17.8-.15.74-.19,1.05-.56,1.63Zm17.53-10.13c-.33,1.09-1.1,1.76-2.43,1.41-1.47.25-2.95-.4-3.25-2.02-.71-.62-1.48-1.39-2.32-2.33-4.66-5.18-18.02-15.74-15.94-22.28.34-.7.46-1,.98-1.48,3.32-3.08,15.51,12.96,20.46,19.01.49-.58,1.03-1.18,1.64-1.81,4.84-4.97,15.77-20.37,19.68-15.87.36.62.56.93.74,1.72,1.23,5.56-14.89,19.14-19.56,23.65Z"/>
      <path class="cls-5" d="m1035.27,238.84c-7.25-5.46-14.95-12.05-14.57-16.07.09-.91.27-1.29.59-2.03,2.19-3.27,8.01.73,13.69,5.6-.67-27.89-1.47-55.77-2.59-83.64-2.29-57.2-2.32-83.1-5.22-140.28-.08-1.38-1.2-2.42-2.55-2.42-.08,0-.16,0-.25.01-5.51.53-10.87.99-16.21,1.62-40.13,4.74-79.77-2.62-117.82,10.54-2.35.81-2.88,2.01-2.77,4.31,1.77,38.42,1.57,63.94,2.89,102.37,1.09,31.87,2.01,63.75,2.91,95.63,9.86-4.58,21.83-9.51,22.75-5.59.2.84.13,1.25.01,2.25-1.66,6.52-13.41,10.68-22.47,13.75.16,5.85.33,11.7.49,17.55,4.89-7.1,19.11-13.17,25.17-17,1.32-.83,2.49-1.48,3.5-1.97,1.05-1.88,2.91-2.09,4.36-1.21,1.57.1,2.08,1.22,1.95,2.7,2.94,7.42,13.98,30.54,10.19,36.93-.54.91-.89,1.21-1.55,1.82-6.16,4.03-10.88-19.3-13.79-27.35-.37-1.02-.68-1.98-.94-2.88-6.99,4.86-23.39,17.07-28.68,16.43.35,12.57.7,25.13,1.06,37.7.02.74-.07,1.48-.16,2.47l53.36-5.52,13.12-1.45v69.46l-28.1,3.1-13.11,1.45v-28.16l-14.98,1.66v43.17l71.17-7.86v-84.47l1.87-.21,11.24-1.24,46.2-5.1c-.24-12.03-.49-24.05-.76-36.07Zm-69.09,10.84c-1.18,1.02-2.24,1.84-3.17,2.47-.76,2.01-2.57,2.5-4.13,1.85-1.56.13-2.24-.9-2.33-2.38-4-6.9-18.36-28.13-15.56-35.01.4-.98.7-1.33,1.26-2.04,5.49-4.89,13.62,17.48,17.7,25.01.52.95.97,1.86,1.35,2.71,7.05-6.64,24.68-24.47,27.56-19.73.45.74.51,1.16.71,2.13.61,8.91-16.9,19.4-23.39,24.99Zm67.12,3.35c-.1.93-.29,1.31-.61,2.07-3.8,5.76-17.86-9.8-23.86-14.61-.76-.61-1.44-1.2-2.05-1.76-4.77,7.68-16.38,27.88-20.46,24.96-.64-.46-.81-.77-1.28-1.5-3.11-7.05,10.48-21.25,15.03-27.9.83-1.21,1.59-2.21,2.3-3.03.14-1.88,1.71-2.86,3.38-2.84,1.44-.61,2.37.01,2.88,1.18,5.75,4.32,25.37,16.93,24.67,23.43Z"/>
    </g>
    <g class="cls-11">
      <path class="cls-5" d="m1059.22,885.29c-25.45,30.06-77.44,54.26-130.52,68.1-22.95,5.98-46.09,10.03-67.39,11.78-.85.07-1.71.12-2.57.19-.07,0-.14,0-.21.01-16.83,1.2-33.72,1.72-50.58,2.58-40.88-.84-81.46-4.42-121.85-10.52-52.02-7.85-103.06-19.98-153.82-33.64-20.81-5.6-42.22-9.12-63.49-12.79-39.43-6.8-79.17-10.14-119.23-9.13-35.95.91-71.59,4.86-106.72,12.34-19.65,4.18-39.19,8.91-58.72,13.66,0,0,0,.01-.01.01-.13.03-.26.06-.39.09-13.43,3.12-26.1,5.89-37.99,8.35-86.02,17.84-131.74,19.74-131.74,19.74v-63.66s40.62-.51,130.18-25.66c.55-.16,1.09-.31,1.64-.46,76.36-21.23,141.61-24.81,158.42-25.39.13,0,.26,0,.39-.02h0c.27-.01.54-.02.83-.02.99-.03,1.98-.05,2.96-.07,7.14-.14,14.29-.14,21.45,0,29.3.57,58.24,4.57,87.13,9.13,58.39,9.19,115.51,24.19,172.99,37.51,44.64,10.35,89.65,18.57,135.24,23.46,47.2,5.06,94.52,7.93,142,7.11,12.53-.22,25.04-1.09,37.56-1.9,0,0,.03,0,.08-.01.03,0,.06,0,.11,0,5.17-.54,116.62-12.17,154.23-30.79"/>
    </g>
  </g>
</svg>